<svg xmlns="http://www.w3.org/2000/svg" viewBox="0 0 1400 1200" width="1400" height="1200"><g transform="scale(1.000000)">
 <metadata>Created by potrace 1.16, written by Peter Selinger 2001-2019</metadata>
 <g transform="translate(0 1200) scale(.1 -.1)" fill="#7fa697">
  <path d="m4967 11990c-21-4-43-12-50-19-6-6-24-11-40-11s-41-6-55-14c-26-14-92-35-122-40-8-1-25-7-37-14s-30-12-40-12-27-7-37-15c-11-8-30-15-42-15s-27-7-34-15-20-15-30-15-23-6-29-13c-6-8-36-20-66-27s-60-19-66-27c-6-7-19-13-29-13s-23-6-29-14c-7-8-23-17-36-20-14-4-25-11-25-16 0-6-7-10-15-10-13 0-40-14-150-77-22-12-47-25-55-29-8-3-22-10-30-15s-26-14-40-20c-73-32-84-38-142-82-20-15-51-34-70-42-18-9-46-24-63-35-16-11-39-24-50-30s-47-30-80-55-70-51-82-57c-13-6-23-15-23-20 0-4-5-8-11-8-39 0-639-599-639-639 0-6-5-11-10-11-6 0-13-8-17-17-3-10-18-34-33-53-14-19-34-51-44-70-26-54-102-168-119-181-4-3-7-10-5-15 2-8-22-71-41-104-22-40-39-78-45-102-3-16-11-28-16-28-6 0-10-7-10-15 0-14-9-35-32-75-4-8-11-22-14-30s-12-28-20-43c-7-16-14-40-14-54s-6-39-14-56c-7-18-19-51-26-75-7-23-19-47-27-53-7-6-13-18-13-26 0-7-6-24-14-36s-17-41-21-64c-4-24-11-45-16-49-5-3-9-16-9-29s-6-30-14-38c-8-7-20-34-26-58-11-40-77-187-90-199-13-13-30-52-30-69 0-24-17-56-55-106-17-22-52-73-79-113s-61-79-76-87c-16-8-42-37-59-64-17-28-53-73-81-102-27-28-50-59-50-68 0-10-10-26-21-37-12-10-30-38-39-60-10-23-23-45-29-48-6-4-11-17-11-30 0-12-3-26-7-30-14-14-30-160-22-191 5-16 9-42 9-57s11-44 25-64 23-40 20-44 2-13 10-20 15-18 15-25c0-13 109-135 173-193 42-39 46-61 17-87-11-10-20-25-20-33s-12-28-26-46c-14-17-35-46-47-64-24-37-52-54-172-103-44-18-84-37-90-41-5-4-23-8-41-8-17 0-37-6-43-14s-41-19-77-26c-37-7-90-26-120-41-29-16-65-29-78-29-14 0-27-4-30-9-5-8-36-26-117-67-14-8-36-25-49-39s-29-25-37-25c-14 0-55-43-60-63-26-114-24-148 14-189 18-20 73-24 90-7 5 5 25 18 43 27 19 9 36 23 38 30 5 16-28 15-52-3-29-22-53-1-48 41 2 19 8 34 13 34s9 8 9 18 11 29 25 42 24 28 22 34c-4 11 45 56 60 56 6 0 23 11 38 24 24 21 43 28 114 42 7 1 23 12 35 23 12 12 34 21 49 21s32 9 40 20c11 16 21 19 41 14 19-4 33-1 46 11 16 15 22 16 35 5s19-9 38 9c13 11 32 21 43 21s31 11 44 25c14 15 35 25 52 25 15 0 28 4 28 10 0 15 97 61 115 54 10-4 14-2 10 8-3 8 3 23 15 33 11 10 20 25 20 33 0 24 59 91 96 108 34 16 36 16 60-7 21-20 29-22 52-13 32 12 52 8 52-10 0-8 9-25 20-39 12-14 17-32 14-42-4-9 2-25 13-38 39-42 37-79-7-122-21-21-41-48-45-62-4-18-10-23-25-18-21 7-28-10-7-18 6-2-5-13-26-23-26-13-40-27-45-48-5-18-16-32-27-35-10-2-25-9-33-17-7-8-22-14-31-14-10 0-24-7-31-15s-18-15-26-15c-7 0-28-18-45-40-28-35-37-40-74-40-47 0-78-26-115-98-36-69-105-122-161-122-60 0-83-23-74-74 7-33 3-39-49-95-41-42-59-69-63-95-3-20-11-36-17-36-26 0-36-23-20-41 19-21 12-37-22-49-13-5-24-16-24-24s-8-19-18-25c-16-9-16-11 0-27 17-18 48-6 48 18 0 6 11 23 25 40 14 16 25 38 25 49 0 27 46 111 75 139 14 13 25 29 25 36s11 21 25 32 25 30 25 44c0 38 25 65 70 72 54 9 180 124 180 166 0 38 23 56 55 42 19-9 28-7 48 9 14 10 32 19 40 19s22 16 32 36c9 19 26 39 38 43 12 5 33 21 46 35 14 14 32 26 42 26s21 5 24 10c11 19 55 12 55-9 0-10 7-24 15-31 18-15 19-24 3-42-17-19-36-48-48-75-12-29-33-29-52-1l-15 22-12-22c-6-12-18-22-26-22s-15-7-15-15 7-15 15-15 15 5 15 10c0 15 36 12 50-5 7-8 17-15 22-15 14 0 47 42 48 61 0 9 9 24 20 34 12 10 18 25 16 32-3 7-1 13 4 13s13 12 16 27c4 15 13 34 21 41 7 7 13 27 13 43 0 41-34 37-38-4-3-21-8-27-19-23-8 3-19 6-24 6-25 0-3 44 51 103 33 36 60 70 60 75 0 15 50 52 71 52 9 0 27-12 39-27 12-16 34-30 48-33 21-4 28-12 30-33 2-16 10-31 18-34 17-6 18-36 2-62-9-15-7-29 10-72l22-53-25-26c-30-31-38-83-15-87 9-2 22 12 33 35 19 40 58 66 117 77 19 4 49 16 66 26 33 20 59 17 68-7 6-16 52-19 61-3 4 5 18 14 31 19 32 13 30 26-6 39-16 5-30 15-30 20 0 6-5 11-11 11-8 0-8-4 0-14s8-16-3-25c-10-9-16-8-26 4-19 23-62 17-100-15-24-21-45-30-70-30-56 0-76 29-83 119-3 41-10 78-16 84s-6 19-1 33c12 31-13 59-40 44-16-8-24-4-46 25-14 19-34 35-44 35-30 0-73 66-64 98 13 47 13 56 2 69-6 7-21 13-34 13-17 0-28 8-35 28-19 48-26 57-43 60-10 2-26-6-36-18-22-25-44-17-36 13 6 24-54 90-76 82-16-6-105 81-94 92 5 5 11 2 13-5 13-34 51-67 65-54 10 10 10 16 0 30-7 9-17 28-22 41-7 15-16 21-26 17-8-3-12-2-9 4 6 10-7 14-32 11-7-1-19 9-28 23-15 23-15 27 0 50 18 26 13 31-22 27-7-1-13 3-13 9 0 5 5 10 11 10 28 0 3 65-33 84-35 18-36 20-23 40 17 23 20 66 6 66-6 0-13-4-16-10-7-12-16-12-34-1-20 13 5 54 30 48 20-5 27 17 9 28s-10 51 15 75c14 13 25 31 25 41s5 21 10 24c6 3 10 12 9 18 0 9-2 9-6 0-5-15-33-18-33-4 0 6 5 13 10 16 6 3 10 14 10 23 1 44 60 77 60 33 0-23 9-31 26-24 9 3 12 13 9 23s0 22 7 26c6 4 14 2 16-4 9-28 31-12 25 18-6 33-2 36 26 18 23-14 51 4 51 33 0 14-7 19-29 19-31 0-54 21-32 28 35 12 66 51 55 69-9 15-7 24 12 48l23 30 39-38c21-21 41-34 45-31 4 4-3 12-16 18-12 7-22 18-23 26 0 8-4 23-8 32-13 29 1 48 34 48 31 0 39 17 19 37-15 15-3 33 22 33 21 0 25 10 8 27s-2 46 20 40c10-2 18 1 18 7-1 59 17 74 41 35 10-15 17-18 24-11s6 17-5 32c-8 12-13 30-10 41 3 10 0 19-6 19s-11 5-11 12c0 6 8 4 19-6 19-17 21-16 50 10 33 29 32 40-5 54-33 13-30 34 11 90 19 26 35 53 35 59 0 18 18 13 34-11 14-20 16-20 22-3 4 10 2 26-4 36-18 28-15 47 14 84 14 19 23 39 19 45-4 7 3 18 15 27 12 8 19 21 16 29-6 17 13 125 25 139 5 5 9 18 9 30 0 11 7 29 15 39 8 11 12 28 9 39-3 10 1 26 8 35 19 23 58 99 58 115 0 24 51 87 70 87 25 0 26 26 3 39-15 8-16 12-5 22 6 7 12 20 12 29 0 20 27 77 41 85 5 4 9 19 9 35s4 31 10 35c15 9 130 154 130 164 0 5 15 28 34 50 19 23 40 58 46 79 7 21 39 65 74 102 34 36 70 81 81 100 32 59 169 190 199 190 16 0 29 8 37 23 16 31 71 87 85 87 18 0 130 113 129 130 0 8 8 15 19 15 10 0 22 10 27 22 5 15 14 21 24 17 9-4 38 12 74 42 33 26 78 58 101 70s49 29 58 37 36 20 58 26c28 7 43 18 47 31 5 18 8 19 30 9 27-12 87 21 87 47 0 21 20 27 51 13 29-12 32-10 85 42 41 40 57 50 66 41 12-12 49 13 108 73 14 14 35 25 47 25 11 0 26 7 33 15s27 15 45 15c25 0 45 11 84 46 33 30 57 44 67 40 9-4 28 4 46 19 16 14 40 25 54 25 13 0 24 4 24 9s9 7 21 4c13-4 29 3 47 19 36 34 100 43 132 21 35-24 112-28 108-5-2 12-15 18-41 20-42 4-47 14-16 36 19 13 24 13 44 0s24-13 35 1c7 8 19 15 28 15 8 0 24 8 34 17 19 17 21 17 50 0 32-18 53-14 44 9-4 9 2 14 15 14 11 0 30 7 43 16 16 10 26 12 31 4 4-7 13-5 28 5 23 16 57 20 57 7 0-5-14-19-31-31-22-16-28-26-20-34 7-7 16-6 29 6 10 9 23 17 28 17 22 0 45 26 38 43-5 15-24 17-173 16-91-1-183-5-204-9z"/>
  <path d="m7408 11993c21-8 13-27-20-43-18-8-34-21-36-27-6-20 36-15 47 5 12 21 35 4 29-24-6-32-56-40-84-13-19 17-27 20-36 11s-4-20 21-46c44-45 36-61-35-76-59-12-164-79-164-104 0-30 85-82 106-65 27 22 14-2-23-41-21-24-45-40-58-40s-28-6-34-14-33-17-59-21c-36-5-55-15-78-41-39-42-26-54 19-20 19 15 45 26 58 26 14 0 30 5 36 11s26 13 44 16c19 2 49 17 68 31 18 15 45 34 60 43 75 45 62 99-25 99-29 0-56 5-59 11-9 13 28 49 50 49 15 0 24 3 82 34 17 9 45 16 62 16 32 0 34 3 35 55 1 26 6 31 32 35 62 10 130 121 82 134-27 7-139 7-120-1z"/>
  <path d="m9920 11992c0-6-3-18-7-28-5-14-3-16 11-11 10 4 28-1 43-10 23-16 26-16 35 0 11 21 38 22 38 2 0-8-6-15-12-15-7 0-31-18-52-40-22-22-44-40-50-40s-17-9-24-20c-12-19-11-20 10-8 12 7 34 24 49 38 45 42 130 83 143 70 8-9 3-19-22-40-22-18-30-30-22-35 6-4 17-2 23 4 15 15 27 14 27-3 0-12 6-13 31-4l32 11-24 18c-24 18-24 18-4 33 22 16 39 11 31-10-8-22 14-27 35-8 19 17 24 12 20-23-3-20 20-26 38-9 16 15 24 15 61 4 50-15 59-31 35-58-27-29-11-36 24-10 35 24 69 23 85-2 14-23 0-35-24-20-25 15-25 9-3-18 21-24 33-26 33-5 0 20 50 20 76 0 10-8 29-15 41-15 28 0 38-17 22-36-7-9-20-12-33-8l-21 6 21-20c11-10 36-21 56-24 34-4 36-3 27 21-11 28-6 36 17 27 11-4 15-15 12-36-4-23-2-27 8-19 15 12 54 8 57-6 1-5-10-11-25-13-31-4-35-14-14-31 15-13 61-6 84 12 9 7 16 7 24-1 7-7 18-12 24-12 18 0 64-45 64-62 0-26 13-29 37-6l24 22 41-42 42-41-23-25c-12-13-18-27-13-30s15 1 22 9c16 19 29 19 37-1 3-8-3-25-15-37l-20-22 29-30c23-24 29-26 29-12 0 10-7 20-15 23-28 11-18 44 13 44 15 0 32 4 38 10 10 10 74-25 74-40 0-16-21-22-35-10-20 17-40-32-25-61 11-19 11-19 32 1 29 27 43 25 68-10 13-19 30-30 45-30 13 0 26-4 30-9 3-6 20-17 37-25 29-15 33-15 50 1 17 15 20 15 34 1 18-18 11-38-12-38-19 0-18-14 2-31 14-11 14-13 0-21-23-13-20-26 7-26 12 0 31-2 42-4 16-2 20 2 18 25-2 32 7 34 30 9 20-22 21-36 5-62-16-25-10-29 30-23 26 4 31 9 27 24-10 29 5 23 52-23 43-42 54-72 31-81-10-3-10-8-2-17 9-9 16-9 33 2 19 12 26 7 86-52 36-35 65-70 65-77 0-8 11-18 25-23 25-10 34-46 16-65-4-6-12-23-15-39-6-26-5-28 8-17 17 14 46 8 46-8 0-6-12-21-26-35-18-16-25-30-20-41 8-23 36-2 36 27 0 25 21 19 36-11 6-12 19-28 29-35 12-8 16-19 11-31-3-10-2-23 4-30 7-9 6-16-5-25-8-7-15-19-15-26 0-8-4-14-10-14-5 0-10 7-10 15 0 9-6 18-14 21s-16 14-19 25c-6 22-27 26-27 4 0-8-6-15-12-16-7 0-24-14-37-30-30-38-11-70 29-49 12 6 29 9 38 5 32-12 449-17 457-6 4 7-34 55-87 111-88 93-95 99-134 100-50 0-64 14-64 61 0 34-11 47-137 175-112 111-235 222-326 294-7 5-30 24-52 43s-92 72-156 120c-64 47-120 90-123 96-4 6-14 11-23 11s-26 9-37 19c-22 20-70 49-126 78-19 9-37 20-40 24-7 9-109 67-142 80-16 6-28 15-28 20s-7 9-15 9c-17 0-52 18-73 38-7 6-22 12-33 12-10 0-19 4-19 9s-12 14-27 20c-16 6-35 15-43 20s-28 14-45 21c-16 7-37 16-45 21s-22 12-30 15-27 12-42 20c-14 8-33 14-41 14s-20 7-27 15-20 15-29 15-27 6-41 13-46 19-72 26c-26 8-53 20-59 27-6 8-21 14-32 14s-29 8-39 17c-22 20-288 34-288 15z"/>
  <path d="m8025 11836c-12-8-33-12-56-9-48 7-57-10-20-36 25-18 33-19 55-9 23 10 29 8 49-10 20-19 28-20 87-13 36 5 88 6 116 4 28-3 60 0 71 5 14 8 23 8 31 0 11-11 141-12 152-2 9 10-31 33-46 27-8-3-23 2-34 12-14 13-23 14-38 6-22-12-32-6-32 22 0 16-5 15-40-13-42-34-63-33-42 0 18 29 16 32-25 28-29-2-37-7-35-20 4-27-18-35-103-38-11-1-21 4-23 10-2 5-10 10-17 10s-12 7-11 16c1 23-16 27-39 10z"/>
  <path d="m7756 11702c-3-5 3-17 14-27s20-26 20-35 5-21 12-28c9-9 7-13-7-18-12-5-22-1-31 11-11 15-17 16-26 7s-8-12 5-12c11 0 16-7 14-22-3-30 37-37 64-12 22 20 25 67 5 84-8 6-16 21-18 33-3 23-41 36-52 19z"/>
  <path d="m8669 11698c-1-2-2-40-3-85-2-77 3-98 19-73 3 6 15 10 26 10 10 0 19 5 19 10 0 6-7 10-15 10-17 0-20 21-5 36 7 7 6 22-5 47-12 30-32 55-36 45z"/>
  <path d="m10805 11581c-3-10-14-26-25-36-10-9-16-23-13-30 3-10 11-7 27 12 20 23 25 24 46 13 20-11 25-10 36 5 14 18 9 39-6 30-4-3-13 2-20 10-17 21-37 19-45-4z"/>
  <path d="m8661 11498c-5-13-5-27 0-32 5-6 9-20 9-33 0-29 9-29 38 2l24 25-22 30c-26 36-38 38-49 8z"/>
  <path d="m7407 11503c-12-11-8-40 8-53 19-16 19-43 0-80s-3-39 32-4c28 28 27 71-2 100-8 9-15 22-15 30 0 15-12 19-23 7z"/>
  <path d="m10876 11473c10-41 20-48 48-35 38 17 53-18 19-44-10-7-14-16-10-21 5-4 13 0 18 10 6 9 21 27 33 40 28 26 43 67 26 67-6 0-18-7-26-15-21-21-56-19-77 5-24 29-39 25-31-7z"/>
  <path d="m7553 11453c-7-2-13-12-13-22 0-9-6-26-14-36-18-25-3-40 51-47 43-6 72 10 59 31-4 6-1 19 6 30 20 32-2 39-26 9-25-32-51-38-43-10 2 9 6 23 8 31 4 15-9 22-28 14z"/>
  <path d="m7725 11448c-2-7-9-30-15-51-6-20-33-60-60-87-44-45-53-84-11-46 10 9 21 16 25 16 5 0 17 11 27 24 17 22 40 29 119 40 25 3 26 6 14 61-10 44-22 55-61 55-18 0-35-6-38-12z"/>
  <path d="m6954 11368c-4-7 0-16 10-22 51-30 61-43 47-60-7-9-21-16-31-16-19 0-30-19-30-51 0-26-25-64-57-84-24-16-26-16-49 6-19 18-29 21-41 13-21-13-29-34-13-34 7 0 24-9 39-19 41-30 83-16 120 39 17 25 31 52 31 60 1 19 27 50 63 73 15 9 27 26 27 35 0 25-43 64-62 57-9-4-19-2-23 4-8 14-22 14-31-1z"/>
  <path d="m8666 11299c-28-56-14-109 28-109 23 0 66 37 66 58 0 6 8 15 18 21 16 9 16 11 0 27-21 22-48 11-48-19 0-31-26-55-42-39-9 9-5 19 17 42 31 32 31 34-2 44-17 5-24 1-37-25z"/>
  <path d="m9e3 11238c-53-64-62-80-57-95 6-14 13-10 46 22 35 34 42 37 63 28 13-6 29-8 36-4 17 11 3 38-22 44-12 2-29 8-38 11-10 4-22 2-28-6z"/>
  <path d="m9134 11172c-32-22-3-112 36-112 31 0 109 95 92 112-14 14-41 3-49-19-12-30-41-52-62-46l-21 5 20 28c27 38 18 56-16 32z"/>
  <path d="m9305 11123c-51-58-63-95-33-101 12-2 19 5 24 25 4 15 25 45 46 66 37 37 44 57 22 64-5 2-32-22-59-54z"/>
  <path d="m6699 11113c-47-58-53-103-14-103 5 0 16-9 23-20s17-20 23-20c13 0 59-47 59-60 0-20-54-70-83-78-25-7-31-14-29-31 1-16-4-24-17-28-34-9-34-34 1-63l33-28-33-30c-17-16-32-36-32-44s-13-29-28-47c-24-30-31-32-49-22-12 6-42 11-67 11s-48 5-51 10c-3 6-17 10-30 10s-27 5-30 10c-10 16-19 12-42-23-33-48-30-79 11-111 19-14 43-26 54-26 31 0 45-23 31-53-10-21-8-31 10-60 28-46 27-64-7-81-23-12-30-12-47 0-25 18-49 18-65-1-7-8-21-15-30-15-19 0-80-66-80-87 0-6-7-18-15-26s-26-39-41-68c-67-137-110-214-124-220-64-32-109-49-126-49-11 0-31-12-45-26-13-15-37-33-54-41-73-35-126-77-122-96 1-6-16-20-38-32s-45-31-51-44c-6-12-23-34-37-49-23-25-25-31-16-82l9-55-43-43c-35-35-42-50-44-85-4-96-16-173-30-189-9-10-13-26-10-37 5-19-9-72-26-98-4-7-4-21 2-30 12-23 11-162-1-169-5-3-5-11 1-18s12-51 14-99c2-47 9-93 16-100 6-8 11-19 9-23-1-5 3-19 10-31 10-19 8-26-14-53-23-26-25-36-20-73 5-35 3-48-15-71-19-24-20-30-9-57 10-23 10-39 2-67-6-20-14-57-17-81-4-29-16-56-35-78-50-57-30-91 36-59 43 20 107 21 124 1s50-18 78 4c27 24 28 37 2 44-11 3-20 1-20-4 0-17-40-31-56-18-8 6-35 12-62 13-41 1-47 4-44 21 2 11 5 36 7 55 4 53 15 92 31 123 13 23 13 33 3 62-11 30-10 37 4 53 19 21 23 67 7 77-7 4 4 23 25 46 39 44 39 43 25 67-45 82-59 186-46 351 4 49 2 79-6 88-8 10-8 20-1 36 27 58 48 146 45 187-3 34 2 52 17 72 14 17 21 41 21 68 0 30 7 50 25 72 21 24 25 40 25 89 0 53 4 65 33 99 17 22 39 40 48 40 18 0 49 30 49 48 0 12 90 92 105 92 5 0 23 14 41 31 28 27 34 29 52 18 19-12 25-10 50 14 16 15 46 32 66 38 49 14 72 38 80 85 5 23 21 53 41 74 18 20 42 62 54 97 11 34 39 87 63 118 42 56 43 57 83 50 80-12 95-9 131 26 39 38 43 60 14 89-24 24-25 43-5 60 8 7 15 18 15 25 0 17-51 50-75 48-12-1-32 12-49 33-28 33-28 35-11 54 19 21 60 27 70 9 11-17 57-31 116-35l57-3 41 49c22 27 41 56 41 65s11 31 25 50l26 33-23 16c-12 9-28 16-35 16s-13 4-13 8c0 18 26 32 57 32 30 0 33 3 33 28 0 18 11 38 30 57 55 53 36 117-47 156-45 20-64 40-45 47 7 2 12 12 12 22 0 11 9 24 20 30s20 15 20 20c0 17-36 11-51-7z"/>
  <path d="m9615 10985c-28-33-45-61-41-70 6-18 26-20 26-4 0 7 18 31 40 55 37 41 51 74 31 74-5 0-30-25-56-55z"/>
  <path d="m7287 11003c-3-5-8-22-11-40-4-17-14-37-22-44-8-6-14-15-14-20s-9-18-20-29c-23-23-19-40 11-40 14 0 27 16 45 56 14 32 37 69 50 83 22 23 22 26 6 33-23 9-40 9-45 1z"/>
  <path d="m7547 10935c-26-24-47-50-46-57 3-29-2-41-33-69-24-24-28-32-19-42 10-9 23-1 61 41 27 28 54 52 61 52s9 9 5 22c-4 17 2 28 22 45 24 19 25 23 12 37-13 13-20 10-63-29z"/>
  <path d="m9785 10959c-11-11-39-36-62-55-42-36-52-57-33-69 15-9 140 123 126 134-8 7-18 3-31-10z"/>
  <path d="m7350 10927c-17-14-45-86-36-94 8-8 36 17 36 32 0 6 9 20 20 30 19 18 20 17 20-1 0-11-5-25-10-30-14-14 13-37 37-32 13 2 19 14 21 41 2 20 9 37 15 37 21 1-17 17-53 23-21 4-41 2-50-6z"/>
  <path d="m7710 10933c-34-6-80-52-80-80 0-32 10-29 42 11 21 26 35 34 55 33 22-2 28 2 28 17 0 22-9 25-45 19z"/>
  <path d="m7951 10904c-11-14-23-34-26-45-4-10-11-19-16-19-23 0-4-55 22-64 31-10 88 19 70 37-7 7-15 6-26-3-27-23-36 2-14 38 14 20 29 32 43 32 32 0 39 11 19 32-23 25-48 23-72-8z"/>
  <path d="m6290 10910c0-5 4-10 9-10 11 0 36-59 28-66-7-8-47 14-47 26 0 6-7 10-15 10-26 0-17-35 18-68 42-40 39-41 82 14 38 51 42 64 21 64-7 0-25 9-39 20-27 21-57 27-57 10z"/>
  <path d="m8059 10839c-20-18-29-36-27-50 4-30 28-36 35-10 3 12 12 21 20 21 11 0 13-7 9-26-6-21-4-25 11-22 10 2 17 11 15 20-3 19 13 32 53 45l30 10-35 18c-53 28-76 27-111-6z"/>
  <path d="m9882 10805c-35-35-42-47-34-61 8-15 15-12 57 29 30 30 45 52 41 62-8 22-17 18-64-30z"/>
  <path d="m8226 10818c-9-12-16-28-16-34s-7-17-15-24c-34-29 0-28 36 1 40 31 64 34 39 4-24-28 5-43 33-17s47 29 24 4c-21-23-6-41 29-34 17 3 24 11 24 26 0 12 5 27 11 33 24 24 2 43-50 43-27 0-53 5-56 10-11 17-43 11-59-12z"/>
  <path d="m6155 10790c-20-33 126-173 153-146 7 8-38 66-52 66-18 0-46 33-46 53 0 24-43 46-55 27z"/>
  <path d="m8453 10784c-7-3-13-20-13-37 0-32-42-87-67-87-7 0-13-7-13-15 0-20 39-19 62 2 12 11 33 16 56 15 41-3 74 23 85 65 5 24-15 49-32 39-5-3-11-2-13 3-4 12-49 22-65 15z"/>
  <path d="m1e4 10755c-7-8-18-15-25-15-18 0-45-34-45-57 0-28 27-38 35-13 5 14 17 20 53 22 54 3 64 21 34 56-23 26-35 28-52 7z"/>
  <path d="m8601 10704c-21-34-21-38-5-55 36-40 122 2 109 54-7 28-25 37-25 14 0-8-11-24-25-37-22-20-25-21-31-6-4 10 1 24 10 35 20 22 20 31 2 31-8 0-24-16-35-36z"/>
  <path d="m8763 10666c-27-39-29-45-15-51 11-4 23 1 34 14 10 13 28 21 47 21 35 0 50 22 31 45-25 30-64 18-97-29z"/>
  <path d="m9080 10671c0-6 4-13 10-16 10-6-10-45-37-73-19-20-16-71 4-79 19-7 68 17 62 32-2 5-14 8-27 6-28-3-20 18 31 81 16 20 26 41 22 47-8 13-65 15-65 2z"/>
  <path d="m8872 10637c-27-29-28-41-2-67 23-23 72-26 89-6 7 8 22 12 34 10 17-3 18-3 5 3-16 7-16 11-4 35 13 24 12 29-1 40s-17 11-21-1c-11-32-60-76-73-64-9 9-6 18 10 42 21 29 21 31 3 31-10 0-28-10-40-23z"/>
  <path d="m11746 10623c-8-8 54-73 69-73 6 0 22-11 35-25 31-34 42-31 38 8-3 27-7 32-33 35-16 2-46 17-66 33-20 15-39 26-43 22z"/>
  <path d="m11045 10601c-15-26 97-143 118-122 9 10 5 18-21 39-18 15-36 41-40 57-9 31-44 47-57 26z"/>
  <path d="m9420 10542c0-5-22-33-50-63-57-62-56-60-31-83 23-21 41-14 41 15 0 11 20 42 45 68 51 55 56 71 20 71-14 0-25-4-25-8z"/>
  <path d="m9478 10416c-39-45-39-56-3-56 24 0 80 73 70 90-12 19-30 9-67-34z"/>
  <path d="m11650 10444c-15-8-25-22-25-36 0-18-6-23-25-24-14-1-38-6-54-13-25-10-31-9-38 4-10 17-38 21-38 5 0-5-7-10-15-10-22 0-18 31 5 37 26 7 25 19-1 33-26 15-49 6-49-18 0-19-39-62-56-62-13 1-54 37-54 48 0 5-6 15-14 21-21 18-32-6-12-28 22-24 20-46-6-64-18-12-20-18-11-28 10-10 16-9 33 6 17 16 24 16 44 5 16-8 40-10 69-6 25 4 48 3 51-2s87-9 188-8l182 1 7 33c6 30-8 82-22 82-3 0-16-11-29-25-26-28-35-30-53-15-7 6-21 17-32 24-15 11-17 17-7 28 22 27 1 34-38 12z"/>
  <path d="m6104 10419c-3-6-13-8-21-5-9 4-22 1-29-5-22-18 2-39 37-32 31 6 40-12 18-34-8-8-7-13 2-18 13-8 59 40 59 61 0 23-55 50-66 33z"/>
  <path d="m9589 10375c-12-19-26-35-32-35s-4-7 5-16c15-16 18-15 42 11 17 18 31 25 42 21 15-6 14-9-6-31-19-21-21-27-10-40 21-25 55-15 55 17 1 14 6 33 13 41 13 15-11 47-25 33-3-3-12 3-20 14-21 29-41 25-64-15z"/>
  <path d="m9753 10287c-45-42-41-67 12-67 83 0 138 47 94 81-35 27-65 23-106-14z"/>
  <path d="m12501 10088c1-106 6-201 11-211s6-26 2-35c-12-30-10-163 3-174 7-6 39-7 75-4 83 7 86 7 136 0 47-7 79-38 61-60-7-9-7-19 1-34 7-13 8-26 3-33-11-14-9-194 2-220 4-11 3-23-4-30-14-14-15-69-1-83 6-6 6-40 1-94-12-110-12-272 0-286 5-6 5-24-1-43-5-18-7-71-5-119s4-93 5-99c0-18 50-16 50 1 0 8-4 18-10 21-6 4-4 17 6 36s13 41 9 60c-4 18-3 29 4 29 14 0 14 37 0 46-6 3-9 19-5 34 3 18 0 33-9 40-16 13-20 51-8 64 4 4 15-3 24-15 18-24 39-18 39 12 0 16 5 18 28 13 25-7 26-6 13 10-8 9-21 16-30 15-38-3-42 0-36 35 5 25 3 35-9 39-22 9-20 29 3 25 21-3 61 28 61 49 0 16-5 16-31 1-36-22-78 49-47 80 8 8 8 15-1 26-7 8-11 20-10 28 1 7-1 21-6 31-4 11-2 28 5 42 10 19 10 27-4 46-22 32-21 39 16 78 23 25 31 42 30 68-1 27 2 34 16 31 19-4 31-68 13-68-6 0-11-5-11-11s11-8 28-4c37 8 58-14 42-44-6-12-15-21-20-21-6 0-10-4-10-9s9-7 21-4c30 8 83-51 69-77-12-22 9-44 33-34 28 10 40-6 21-27-9-10-13-20-8-20 5-1 16-2 24-3 8 0 15-8 15-18 0-9 8-24 17-35 9-10 18-34 20-53 2-25 8-35 20-35 27 0 29-9 13-55-15-41-14-44 6-66 12-13 19-30 16-38-5-11 0-16 13-16 24 0 28-47 5-56-8-4-12-11-9-16 4-6 9-5 14 2 4 7 15 10 24 7 18-7 22-57 5-74-14-14-5-29 21-36 11-3 18-1 15 3s4 6 15 3c30-8 70-61 70-93 0-16 5-32 10-35 18-11-2-27-26-21-43 11-21-44 24-58 34-11 30-65-8-99-51-46-37-62 25-27 44 25 51 25 77 0 23-21 18-41-5-21-26 21-41-12-17-34 15-14 19-26 15-46-3-15-1-30 4-34 6-3 11-19 11-34s5-32 12-39c18-18-9-45-32-32-20 11-70-3-70-19 0-24 29-32 42-12 16 26 30 27 46 1 29-46 52-19 52 63 0 96 35 5 47-121 4-46 1-57-22-88-20-25-24-39-17-46 15-15 38 5 46 38 10 40 30 22 31-29 0-25-3-41-6-35-5 7-13-2-22-23-14-33-14-34 19-64 37-33 46-74 25-113-21-40-8-51 58-50 59 1 80 11 43 20-15 4-18 18-20 89-1 46-7 88-12 93-6 6-10 26-10 45 0 20-7 49-15 65-9 16-13 31-11 34 3 2-1 14-9 26-8 11-15 37-15 57s-7 42-15 49-15 29-15 50-6 43-14 49c-7 6-16 34-20 61s-11 52-16 55c-6 3-10 16-10 28 0 13-7 33-16 45-9 13-13 30-10 38s2 22-3 32c-16 29-51 147-51 169 0 11-7 26-15 33s-15 18-15 24c0 10-18 52-66 149-8 16-14 36-14 45s-7 26-15 36c-8 11-15 25-15 32s-13 33-30 57c-16 25-30 48-30 51 0 7-57 125-71 146-5 8-16 31-24 50-9 19-26 51-38 70s-31 50-42 69c-11 18-30 46-42 61-13 15-23 30-23 33s-20 35-45 71c-25 37-45 69-45 73 0 3-11 21-25 39s-25 38-25 44-7 13-15 16c-8 4-15 10-15 16 0 5-11 24-25 42s-25 36-25 40c0 6-52 80-80 113-5 7-10 15-10 18 0 4-11 21-25 39s-25 38-25 44c0 7-4 12-8 12s-14 16-21 35-16 35-20 35c-5 0-12 8-15 18-3 9-12 26-19 37-86 141-88 140-86-97zm209-271c0-5-11-22-25-39-29-34-32-48-9-48 8 0 13-4 10-9-11-17-53 13-65 44-15 44-14 48 13 41 35-9 39 5 10 35-18 18-24 34-20 45 6 15 12 12 46-21 22-22 40-43 40-48z"/>
  <path d="m5861 10186c-7-8-9-21-5-28 8-13 89-115 105-132 12-13 49 22 49 46 0 23-9 23-25 1-12-16-15-16-33 7-12 14-23 36-27 48-10 41-49 76-64 58z"/>
  <path d="m3245 1e4c5-24 2-37-9-46-9-8-16-20-16-27 0-8-4-14-10-14-5 0-10-7-10-15s-15-21-34-29c-33-14-55-35-39-37 68-7 123-7 123 0 0 5-5 11-12 13-20 7 0 38 31 49s47 45 30 65c-7 9-7 19 1 33 13 25 27 26 52 4 17-15 20-15 34-1 28 27 7 38-72 38h-75l6-33z"/>
  <path d="m4355 10059c-4-6-4-13-1-16 4-5-10-37-43-93-35-60-37-90-5-90 9 0 14 10 14 29 0 16 7 34 15 41s15 17 15 22 5 14 10 21c26 31 58 86 52 91-9 10-50 7-57-5z"/>
  <path d="m5824 1e4c-47-54-48-57-33-86 37-74 64-79 108-20 36 48 40 78 12 78-10 0-26 11-35 25-20 31-27 31-52 3z"/>
  <path d="m3956 1e4c-9-13-16-29-16-34 0-6-7-14-15-18-28-16-31-71-4-82 25-9 70 19 68 43 0 6-3 5-6-1-6-15-39-17-48-3-3 6-1 10 4 10 6 0 11 6 11 13 0 8 9 22 20 32 20 18 28 65 11 65-5 0-16-11-25-25z"/>
  <path d="m3382 9975c-15-11-21-23-17-35 3-11 2-27-3-37-10-20-5-43 9-43 5 0 18 18 29 40 18 36 23 39 50 34 31-7 53 17 34 36-19 18-79 21-102 5z"/>
  <path d="m3549 9968c-50-47-55-108-9-108 22 0 35 16 20 25-19 12-10 43 19 68 29 24 31 37 6 37-7 0-23-10-36-22z"/>
  <path d="m4108 9963c-59-62-44-102 37-99l50 1 6 45c4 25 3 49-1 53-9 10-40-30-40-50 0-7-7-13-15-13-20 0-20 44 0 60 14 12 12 30-4 30-4 0-19-12-33-27z"/>
  <path d="m3712 9968c-7-7-12-19-12-28 0-8-7-25-15-37-13-18-13-22 0-33 12-10 16-9 22 6 8 21 18 35 47 64 10 10 15 23 11 29-8 15-38 14-53-1z"/>
  <path d="m3788 9959c-10-6-18-17-18-25s-6-23-12-34c-9-14-9-23-2-30 19-19 43 1 55 42 12 45 3 62-23 47z"/>
  <path d="m5704 9929c-3-6 3-24 15-40 11-15 21-35 21-44 0-17 35-21 45-5 4 6-5 31-20 55-25 44-47 56-61 34z"/>
  <path d="m11163 9800c3-11 1-23-4-26s-9-14-9-24-11-27-24-38c-16-12-22-23-16-32 7-11 12-11 22-2 11 9 19 8 35-3 23-16 38-9 22 11-7 9-7 19 0 33 15 28 3 101-16 101-10 0-14-7-10-20z"/>
  <path d="m5575 9799c-4-6 1-16 10-23 20-14 26-81 7-81-7 0-18 11-25 24-14 28-37 40-37 19 0-25 40-78 58-78 51 0 71 89 29 128-26 25-33 27-42 11z"/>
  <path d="m4307 9749c16-16-1-49-25-49-10 0-38-20-62-45s-49-45-56-45c-20 0-124-120-150-173-15-33-38-61-60-75-29-19-33-26-24-37 21-26 130 60 130 102 0 16 10 30 30 41 16 9 30 22 30 28 0 5 27 35 59 64 33 30 62 64 65 75s18 26 33 33c73 33 92 80 37 90-15 3-16 1-7-9z"/>
  <path d="m5460 9675c-21-22-22-29-12-45 19-31 30-53 37-75 6-19 7-19 20-2 11 15 10 23-2 49-13 24-13 35-4 49 29 48 0 66-39 24z"/>
  <path d="m11134 9585c-3-14-3-36 0-50 4-16 0-31-11-45-10-11-17-23-15-25 1-3-7-14-18-25-29-29-26-54 4-48 31 6 39-11 20-47-20-38-18-52 8-51 16 1 24-7 30-31 6-22 15-33 27-33 16 0 17 10 16 117-2 112-3 117-25 125-20 7-21 10-8 21 25 19 31 77 12 99-23 24-32 23-40-7z"/>
  <path d="m3492 9578c-5-7-13-23-16-35-4-11-13-27-21-33-18-15-20-50-2-50 17 0 80 99 73 116s-20 18-34 2z"/>
  <path d="m5237 9491c-26-28-39-91-18-91 5 0 12-12 16-27 17-77 106-75 113 2 2 27 0 36-10 32-7-2-12-10-10-16 5-25-24-42-39-23-51 63-63 118-24 108 37-9 50 2 29 25-22 25-24 24-57-10z"/>
  <path d="m3823 9238c-12-13-23-32-25-43s-14-25-26-31c-35-17-45-31-38-49 5-15 9-14 36 5 21 15 30 18 32 8 0-7 2-17 3-23 2-5 3-14 4-19 3-21 32 20 41 58 6 22 17 53 26 69 27 48-14 67-53 25z"/>
  <path d="m3697 9083c-4-3-7-13-7-21 0-9-6-23-14-31-28-33-28-67 1-80 20-9 29-9 37 0 8 8 8 13-1 16-18 6-16 39 3 68 22 33 5 73-19 48z"/>
  <path d="m11706 8961c-4-6-41-8-97-5-91 5-129-4-129-30 0-19-30-29-45-16-7 6-11 20-8 31 7 26-34 24-50-2-13-20 57-108 86-109 9 0 17-7 17-15s5-15 11-15 9 3 7 8c-2 4-10 19-17 35-13 25-12 29 9 52 13 14 31 25 40 25s21 5 27 11c13 13 43 5 43-11 0-5-7-10-15-10-20 0-19-13 3-33 24-22 42-21 57 0 10 14 16 15 27 5 17-14 28-6 28 21 0 13 5 17 16 13 9-3 20-6 25-6s9-8 9-19c0-18 39-51 60-51 6 0-1 16-16 35-30 40-27 74 5 53 11-7 23-9 27-5 14 14-14 29-52 30-22 0-44 4-51 9s-14 5-17-1z"/>
  <path d="m3638 8898c-40-14-30-99 16-137 18-15 34 5 17 22s-13 46 9 74c15 20 17 29 9 39-13 16-14 16-51 2z"/>
  <path d="m12024 8869c-4-6 12-28 35-49 22-21 41-47 41-58 0-12 5-24 10-27 15-9 12-41-5-55-19-16-19-39 0-64 14-19 15-19 35-1 24 22 27 70 4 79-12 5-14 14-9 45s3 43-13 57c-11 11-27 34-36 52-17 32-48 43-62 21z"/>
  <path d="m12125 8870c-4-6 0-19 9-29s16-22 16-28 7-24 15-39c8-16 15-43 15-61 0-17 3-33 8-35 17-7 42-76 40-107-2-20 2-36 10-38 16-6 17 119 1 149-8 15-8 26 1 42 6 12 10 50 8 86l-3 65-57 3c-33 2-59-2-63-8z"/>
  <path d="m2092 8767c-14-17 17-47 48-47 9 0 21-5 28-12 8-8 15-8 27 2 19 16 19 25-1 45-15 15-18 15-35-1-18-16-20-15-37 6-16 19-19 20-30 7z"/>
  <path d="m3580 8577c0-53-28-88-50-62-10 13-10 19 4 34 15 16 15 19-2 35-29 25-44-1-47-81-1-38-5-79-8-93-11-47-13-180-2-180 19 0 38 59 25 75-10 12-10 18 1 31 7 9 14 36 16 61 3 66 34 93 63 58 10-13 10-19-4-33-12-14-16-38-16-90 0-40-5-74-11-78-6-3-8-17-5-30 4-13 1-33-6-43-10-16-9-23 5-39 25-27 21-42-12-42-34 0-44-18-24-42 28-32-3-61-59-55-57 5-57 3-17-64 26-45 29-56 18-75-7-14-9-33-4-51 4-15 9-44 10-64 2-19 14-58 28-85 15-30 23-59 20-75s1-30 11-38c9-8 16-25 16-40 0-14 9-37 20-51s20-33 20-42c0-43 59-124 102-140 19-8 16 10-10 49-7 12-11 27-8 32 4 5-5 26-19 47-14 20-25 45-25 56 0 10-9 31-20 46s-23 50-26 77c-4 28-12 60-20 71-23 37-28 117-10 151 16 33 12 42-26 56-10 4-18 13-18 22 0 8-5 24-12 35-10 15-9 24 2 45 20 38 45 28 46-18 1-49 20-69 39-43 13 17 12 21-5 36-26 22-25 33 4 78 22 33 25 49 27 152 1 63 3 143 4 177 0 33 7 68 13 76 9 10 10 17 2 22-14 8-13 68 2 83 8 8 8 15-2 26-7 9-10 26-6 41 5 18 2 25-9 25s-15-11-15-43z"/>
  <path d="m3242 8568c-5-7-12-40-15-73-4-53-13-100-32-182-3-13-1-23 5-23 5 0 10 6 10 14 0 7 7 19 15 26 9 8 15 30 15 59 0 26 4 51 10 57 19 19 40 107 28 121-13 16-23 16-36 1z"/>
  <path d="m12783 8495c-7-19 5-368 13-390 4-8 15-15 25-15 19 0 25 11 12 24-4 4-8 54-10 112-2 103-1 105 23 114 32 12 31 44-1 74-21 19-23 25-10 30 9 3 15 0 15-9 0-20 20-29 33-16 8 8 8 14-1 23-7 7-12 22-12 34 0 34-74 50-87 19z"/>
  <path d="m12195 8490c-4-6-1-18 6-26 21-25 17-139-6-164-14-16-16-23-7-32 15-15 16-60 1-75-8-8-6-18 6-37 10-14 18-41 20-59 6-74 20-24 23 83 8 239 6 301-9 311-18 12-26 11-34-1z"/>
  <path d="m7790 8393c-62-9-109-60-88-96 11-21 41-5 32 17-7 18 54 72 66 60s-9-61-32-75c-19-12-2-22 24-16 16 4 29 20 38 44 8 21 16 41 18 45 5 11-31 24-58 21z"/>
  <path d="m7492 8377c-6-7-9-23-5-35 3-14-1-30-12-42-23-26-9-47 16-24 10 9 19 23 19 31 0 7 4 13 9 13 16 0 23 40 11 55-15 18-24 19-38 2z"/>
  <path d="m7921 8364c-25-18-26-31-4-56 15-17 15-19 0-36-45-50-2-41 50 10s53 60 9 80c-30 15-36 15-55 2z"/>
  <path d="m7350 8353c-57-21-79-93-40-128 18-16 23-17 57-3l38 14v62c1 65-7 73-55 55z"/>
  <path d="m7216 8314c-3-9-6-32-6-52 0-43-13-68-29-58-7 5-9 21-6 39 6 38-8 68-25 51-20-20-8-118 14-122 11-3 25 4 32 13s17 14 22 11c25-15 34 34 23 127-2 13-19 7-25-9z"/>
  <path d="m8041 8295c-29-34-31-39-18-53 18-17 52-8 44 12-6 15 22 46 40 46 20 0 22-28 2-46-23-21-24-31-4-50 13-13 17-10 38 23 13 21 32 44 41 52 24 20 20 28-16 34-18 4-47 9-64 12-26 6-35 2-63-30z"/>
  <path d="m8262 8299c-9-17-29-47-44-66-32-41-34-49-12-57 34-13 51-7 47 17-3 15 4 30 21 46 14 14 26 31 26 38 0 8 7 16 15 19 12 5 13 10 4 20-18 22-39 16-57-17z"/>
  <path d="m7033 8241c-20-17-21-20-7-40 17-24 15-82-3-89-13-4-17 3-27 50-9 39-36 26-36-17 0-35 31-72 50-60 6 4 22-3 36-16 30-28 57-13 36 21-17 27-15 111 3 137 13 19 13 22-1 27-22 9-26 7-51-13z"/>
  <path d="m6813 8209c-21-13-33-29-33-43 0-25 38-66 61-66 8 0 27-11 44-24 25-20 28-26 16-40-17-20-40-20-62 0s-39 10-39-22c0-25 2-25 43-19 101 17 115 111 20 139-32 10-50 35-33 46 9 5 20 4 28-2 24-20 39 8 17 32-22 25-22 25-62-1z"/>
  <path d="m7481 8135c-19-20-33-25-76-25-28 0-67-7-84-16-25-12-47-15-90-10-58 7-58 7-86-30-24-32-31-35-60-30-37 7-50-4-40-34 8-26 37-25 61 1 31 34 64 46 147 54 42 4 77 11 77 16s29 9 64 9c61 0 66 2 83 30 9 17 25 33 35 36s18 10 18 15c0 17-25 9-49-16z"/>
  <path d="m7566 8151c-6-10 6-20 45-40 21-10 32-10 61 2 84 35 110 32 152-17 34-38 42-43 58-33 21 14 24 27 6 27-7 0-23 16-36 35l-22 35h-130c-71 0-131-4-134-9z"/>
  <path d="m2155 8111c-3-6-1-19 5-30 5-11 8-26 5-33-8-21 32-55 47-40 9 9 8 23-3 59-14 46-39 66-54 44z"/>
  <path d="m2064 8092c-22-14-37-53-25-65 6-6 11-21 11-32 0-26 34-60 49-50 6 3 11 14 11 23 0 10 7 28 16 40 20 29 11 56-17 49-18-5-20-2-15 19 6 24-7 32-30 16z"/>
  <path d="m7917 8094c-4-4 2-19 12-33s21-34 24-44c7-19 45-15 58 5 3 5 16-3 28-18l22-27 30 22 31 23 31-29c29-26 37-29 85-25 63 5 72 28 15 38-21 3-63 13-93 20-30 8-67 14-82 14-16 0-41 12-61 30-32 28-83 40-100 24z"/>
  <path d="m2323 8019c-27-10-28-17-7-40s10-39-26-39c-37 0-47 16-25 40 19 21 12 42-11 33-9-3-12-12-9-24 5-16 1-19-24-19-52 0-65-9-45-31 9-11 25-19 34-19 10 0 24-7 31-16 10-12 25-15 61-12 49 5 68-4 68-34 0-21-26-37-51-31-20 6-69-21-69-37 0-15 21-12 39 4 9 8 36 16 61 18l45 3-1-37c-1-40 6-47 26-23 13 15 5 55-11 55-6 0-9 12-7 27 2 22 10 29 33 34 243 52 539-171 730-548 50-100 47-135-17-177-26-17-46-35-44-41 5-18 86-18 107 1 27 25 124 9 124-21 0-13 8-21 23-23 37-5 26-42-31-104-62-68-63-68-81-24-15 37-57 53-77 30-9-11-7-14 9-14 21 0 36-24 33-51-6-48 75-47 111 1 24 33 46 28 74-16 15-23 15-26 0-43-20-22-21-45-1-61 24-20 50-81 38-88-5-4-13-24-16-46-3-21-14-47-23-57-10-11-15-28-12-43 3-17-1-31-13-42-14-13-19-31-19-76 0-56-9-82-38-120-12-14-12-20 1-39 14-20 14-23 0-37-14-15-18-14-37 11-25 32-47 26-108-28-25-23-34-26-47-16-31 22-42 23-61 6-29-26-152-18-181 12-22 22-55 155-43 174 11 19-7 51-22 38-17-14-20-129-3-146 8-8 8-17 0-31-6-11-11-34-11-51 0-22-7-35-25-47-14-9-25-24-25-33 0-31-55-74-78-62-34 18-34 8 1-46 8-13 47 23 121 112l39 47 76-7c42-4 82-12 89-18 9-7 16-7 24 1 15 15 134 16 143 2 3-5 21-10 40-10 77 0 111-37 56-60-16-6-35-25-41-41-7-16-16-29-19-29-4 0-34-27-66-60-53-53-61-58-75-45-25 23-39 18-48-17-6-24-15-34-33-36-13-2-32-11-41-19s-22-12-28-8-27-9-47-29c-41-41-57-46-48-15 5 16-1 28-25 51-34 31-55 31-27 0 21-23 22-38 1-46-9-3-14-15-12-28 4-28-18-35-32-9-10 20-12 20-49-19-40-42-47-45-71-30-12 8-11 13 8 33 40 42 20 53-24 12-28-26-68-33-80-14-3 6-17 8-31 4-17-4-33 1-54 20-48 40-78 26-34-15 14-13 25-34 25-47 0-14 7-26 18-29 9-3 28-11 41-17 36-18 144-14 175 6 14 9 40 17 59 17 18 0 42 7 53 15 10 8 26 15 34 15s35 11 60 24 72 31 105 41c81 25 393 270 371 292-3 3 1 15 9 27 8 11 15 30 15 41 0 18 18 84 37 135 3 8 7 31 9 50 6 75 28 190 36 190 4 0 8 20 8 45s7 57 16 71c9 13 14 27 10 31-3 4 0 16 7 27 16 24 15 169-1 189-5 7-13 30-17 52s-11 45-17 52c-5 7-7 21-4 31 4 11 0 24-9 32-8 7-15 20-15 29 0 10-7 26-15 37-19 24-19 74 0 98 8 11 15 29 15 40 0 42 17 53 43 28 17-16 35-22 70-22 43 0 49-3 89-50 26-30 51-50 64-50 26 0 43-20 77-92 45-95 80-115 141-83 22 12 32 12 43 4 8-7 34-10 66-7 59 6 77 2 77-16 0-7 7-27 16-45s14-35 11-38c-4-3 0-12 8-20s15-23 15-32c0-10 7-24 15-31s15-17 15-22c0-8 37-65 50-78 11-11 30-62 30-81 0-21 23-70 48-100 20-26 17-247-5-282-3-5 3-6 14-3 30 10 48-17 25-36-9-9-26-18-37-20-16-3-19-11-17-38 1-19-4-57-12-84-17-60-28-157-31-275-2-68-6-87-20-98-16-11-17-16-5-37 7-14 10-31 7-39s3-23 14-33c10-9 19-22 19-29 0-18 201-215 220-215 10 0 23-7 30-15s17-15 22-15c6 0 33-20 61-45 50-46 62-48 69-10 4 23 70 34 93 15 9-7 93-11 260-10 172 0 253-3 268-12 13-7 97-14 208-18 102-4 195-12 206-18 12-7 56-12 99-13 46-1 85-7 94-14 8-7 44-17 80-23s88-16 115-21c28-6 75-14 105-20 30-5 80-16 110-26 30-9 93-23 140-31s105-21 130-28c25-8 75-16 112-19 38-3 76-11 89-21 13-9 33-16 45-16s36-8 53-17c23-14 33-15 42-6 25 25-19 68-79 77-12 2-17 12-17 32 0 34-17 34-52 2-12-11-27-17-33-13-7 4-42 10-78 12-37 2-71 8-77 12-5 5-33 11-61 13-32 3-62 13-79 27-22 16-36 20-62 15-18-3-33-2-33 2 0 5-30 10-67 12-37 1-72 7-77 11-6 5-39 12-73 16s-78 15-98 25-38 14-41 9c-7-12-73 0-99 17-11 8-30 14-43 14s-32 5-43 11c-15 7-24 7-34-1-13-11-45 10-45 30 0 12-37 0-51-16-21-26-70-17-102 19l-30 32 7-28c13-55-33-43-117 31-41 36-57 37-35 3 15-24-1-47-27-38-16 7-19 13-30 61-6 29-20 31-66 12-16-7-43 12-51 36-4 10-10 9-29-3-52-34-216-17-227 23-6 23-13 23-45-3-17-12-26-28-24-42 1-17-3-21-18-19-11 1-42 3-70 5-67 3-85 20-55 51 12 13 17 27 12 30s-15-1-22-9c-11-13-17-11-47 15-18 17-39 30-46 30-6 0-1-7 11-16 16-11 21-22 17-35-4-10-2-19 4-19s20-18 31-40c19-37 19-41 4-47-13-5-27 5-51 32-28 32-35 36-48 25-24-20-44 3-23 27 30 35 30 43 3 43-21 0-26-4-25-22 3-37 1-41-15-28-17 14-21 60-5 60 6 0 10 9 10 20s-4 20-10 20c-5 0-10-9-10-20 0-32-46-27-63 8-7 15-19 26-26 24-7-1-19 5-26 15s-17 15-21 11 12-27 34-50c35-36 39-44 26-51-19-11-125 89-117 110 3 7-3 16-13 19-11 4-31 21-46 38l-26 30 20 41c11 22 30 50 41 63 21 22 21 24 4 53-9 17-17 41-17 54s-4 27-10 30c-21 13-11 37 13 31 21-5 23-2 24 33 2 35 0 38-23 33-22-4-24-1-24 31 0 19 7 40 15 47s12 16 9 21-2 30 2 55c8 57 41 79 74 49 11-10 20-13 20-7 0 7-4 12-10 12-12 0-13 37-1 44 5 3 9 38 10 77 1 54 5 75 18 84 18 14 10 37-11 29-20-8-30 30-15 55 9 14 10 23 2 33-6 7-14 31-19 52-4 22-13 51-20 65-8 14-14 39-14 55s-7 38-16 48c-21 22-30 108-15 137 13 23 41 27 71 11 15-8 21-6 30 9 19 37 13 44-33 38-51-7-65 0-76 39-9 34-35 42-61 19-10-9-27-15-37-13-23 4-29 41-8 58 8 7 15 24 15 38 0 15 12 39 29 57 23 24 28 36 24 62-6 34-23 36-23 2 0-25-48-98-63-95-66 12-156 78-157 115 0 8-7 22-15 31-28 30-95 170-101 210-8 51-20 51-29 2-7-44 45-159 91-200 15-13 24-26 21-29-4-3 0-15 8-27 8-11 15-28 15-37s7-22 15-29 15-23 15-35c0-91-233-51-253 43-10 46-84 123-112 116-20-5-26 0-38 28-20 47-44 65-68 50-41-26-78-14-105 33-17 30-44 32-44 3 0-13-5-29-11-35s-16-21-23-34c-6-12-16-24-22-26-20-7-72 46-95 95-12 26-28 54-34 62-7 8-27 42-44 76-17 33-43 71-56 84-14 13-25 28-25 33 0 36-150 205-225 253-16 10-34 24-40 30-20 22-115 84-129 84-7 0-19 7-26 15-7 9-30 15-54 16-69 0-222 23-237 35-23 18-43 22-66 13z"/>
  <path d="m8386 8012c-3-6-15-8-25-5-23 6-38-14-22-30 9-9 16-8 31 1 26 16 25 17 70-24 24-22 46-34 55-30 21 8 19 50-4 70-23 21-95 33-105 18z"/>
  <path d="m6943 7957c-24-18-50-42-59-55-11-16-22-21-35-17-22 7-52-12-43-26 9-15 58-10 84 7 42 28 119 107 114 116-8 12-16 9-61-25z"/>
  <path d="m12325 7979c-23-36 33-83 64-55 16 15 19 15 31 1 16-19 29-19 51 1 17 15 19 15 31-12 16-39 16-38 33-24 11 9 12 17 5 30-17 31 9 35 39 6s66-33 91-11c9 8 31 18 48 21 28 6 32 4 32-15 0-33 27-25 32 10 6 37-16 52-70 47-29-2-37-7-37-23 0-13-6-20-17-19-49 2-58 5-58 18 0 8-5 18-11 22-17 10-258 13-264 3z"/>
  <path d="m5665 7930c-15-25 17-40 85-40 38 0 70-5 72-10 2-6 35-13 73-17 39-3 79-11 90-16 26-14 83-18 90-7 7 12-95 60-128 60-14 0-29-4-32-10-8-13-55-13-55 0s-60 28-96 23c-20-3-35 1-43 11-15 18-47 21-56 6z"/>
  <path d="m5140 7914c-24-13-60-67-60-90 0-16-48-100-66-115-8-7-21-27-28-44-8-18-34-47-59-65-48-34-63-55-46-66 9-5 42 19 79 56 3 3 17 13 33 23 16 11 27 26 27 40 0 12 13 34 29 48 17 15 33 39 36 55 9 47 58 134 78 140 10 3 26-1 36-10 16-15 20-15 30-2 16 20 4 38-19 31-10-3-21-1-25 5-8 12-13 12-45-6z"/>
  <path d="m3617 7863c-5-26-2-42 8-53 8-9 15-24 15-32 0-9 7-21 15-28s15-27 15-44c0-22 8-40 25-56 14-13 25-31 25-40 0-30 34-52 64-41 28 11 36 34 10 29-28-5-41 28-20 50 12 14 14 22 6 27-6 4-17 0-23-10-21-28-72 13-53 44 3 4-3 16-14 26-13 12-20 31-20 56 0 36-27 108-41 109-4 0-9-17-12-37z"/>
  <path d="m6113 7855c-8-22 15-36 48-30 16 4 41-3 73-21 43-24 57-27 132-25 76 2 87 0 117-23 38-29 57-33 57-11 0 8-4 15-8 15-5 0-24 14-42 30-34 30-54 37-64 21s-55-18-76-4c-13 9-31 12-46 9-21-6-67 13-84 35-14 17-100 20-107 4z"/>
  <path d="m9227 7853c-9-2-14-9-11-15 3-5-9-25-27-44-46-47-14-62 35-15 29 28 33 30 48 15 19-19 38-11 38 15 0 36-37 56-83 44z"/>
  <path d="m6752 7828c-7-7-12-19-12-28 0-26-33-50-68-50-38 0-102-29-102-46 0-7-15-23-32-36-18-12-44-35-56-50-13-16-29-28-36-28-17 0-82-70-91-97-3-12-18-32-33-43-14-12-46-45-70-73-81-96-76-88-59-104 13-13 20-8 56 46 23 34 47 61 54 61 20 0 72 60 95 110 13 28 41 60 73 85 28 22 66 55 84 73 17 17 36 32 42 32 5 0 18 9 28 20 13 14 31 20 61 20 38 0 45 4 73 42 32 44 40 78 18 78-7 0-18-5-25-12z"/>
  <path d="m8683 7783c-4-10-16-25-27-35-20-16-21-16-2-37 11-12 25-21 33-21 7 0 18-11 23-25 10-25 10-25 36-9 21 14 30 15 45 6 23-15 59-15 95-2 31 12 64-11 90-65 24-50 98-79 180-72 46 3 74 1 88-8 12-7 59-15 105-19 47-3 89-10 95-16 5-5 22-10 37-10 56 0 79-31 44-60-8-7-15-19-15-26 0-8-36-49-81-93l-81-78 41-32c23-18 41-38 41-45 0-30 112-79 141-61 16 11-10 35-37 35-13 0-32 9-42 21-9 11-27 25-39 29-59 24-43 94 29 129 53 25 92 64 95 94 2 12 5 38 9 58 8 49-13 64-93 65-35 0-66 4-70 7-3 4-19 7-34 7s-31 5-34 10c-3 6-17 10-31 10s-35 6-47 14c-18 12-37 13-96 5-118-14-182 15-192 90-5 32-55 69-71 53-17-17-64-15-82 3-9 9-33 15-64 15-60 0-84 20-58 48 9 10 13 22 9 25-12 13-34 7-40-10z"/>
  <path d="m9322 7747c-32-34-29-63 8-76 29-9 30-9 19 11-19 35 10 54 40 27 30-28 56-15 56 27 0 28-2 29-50 32-43 2-54-1-73-21z"/>
  <path d="m4423 7343c-13-8-23-21-23-27 0-16-56-73-80-81-28-9-25-25 4-25 15 0 35 14 56 40 30 36 35 39 48 26 12-12 13-18 4-29-13-15-6-27 15-27 8 0 13 13 13 38 0 27 7 45 21 58 19 17 19 19 3 31-23 16-34 16-61-4z"/>
  <path d="m13250 7330c-8-5-31-10-50-11-19 0-29-3-21-6 24-10 53-44 47-56-34-69-60-83-69-37-4 17-11 30-17 30-19 0-23-30-6-49 20-22 20-45 1-61-21-17-19-44 5-65 11-10 20-22 20-27 0-6 20-33 43-61 24-29 47-60 50-69 6-16 27-26 27-13 0 10-34 59-55 80-77 79-91 185-23 185 12 0 18 8 18 23 0 13 6 29 13 36 6 6 12 17 12 24s12 13 28 15c29 4 38 37 15 60-14 14-19 15-38 2z"/>
  <path d="m6163 7210c-5-19-11-21-40-17-36 6-55-11-68-64-4-15-25-46-48-70s-50-59-60-79c-28-51-57-80-83-80-23 0-58-57-78-127-4-11-13-27-21-33-25-20-17-39 22-55 41-17 51-15 28 8-19 20-19 51 0 67 8 7 15 23 15 36 0 29 33 64 58 64s46 25 70 80c11 25 35 58 55 73 19 15 48 52 63 82 25 52 29 55 54 50 45-10 94 69 52 83-8 2-16-6-19-18z"/>
  <path d="m13538 7185c-3-4-1-19 5-36 9-23 9-34-2-52-8-12-19-31-25-42s-15-23-19-26c-12-9 26-76 41-71 17 5 15 49-3 56-21 7-19 33 4 57 24 26 35 89 18 107-7 7-16 10-19 7z"/>
  <path d="m5392 7148c-7-7-12-17-12-24 0-6-6-17-14-24-8-6-16-28-18-48-3-32-7-38-36-47-39-11-37-29 5-33 25-3 33 1 38 20 9 33 48 110 63 126 23 25-2 54-26 30z"/>
  <path d="m5615 7148c-2-7-6-29-9-49-4-21-16-49-27-63-24-30-22-69 4-74 12-3 17 3 17 21 0 14 16 55 35 92 20 36 33 70 30 76-9 13-45 11-50-3z"/>
  <path d="m1416 7131c-3-5-3-16 0-24 8-23-15-31-35-13-16 15-19 15-35-3s-16-20 10-40c15-11 32-21 38-21 16 1 74 50 59 50-7 0-13 11-13 24 0 26-15 43-24 27z"/>
  <path d="m5439 7061c-16-16-29-38-29-49 0-24 38-61 48-46 4 6 20 10 37 10 27-1 30 2 37 44 4 25 12 46 18 48 23 8-4 22-41 22-31 0-47-7-70-29z"/>
  <path d="m9600 7066c0-8 5-18 10-21 6-3 10-16 10-29 0-28 18-46 45-46 36 0 76-51 69-87-6-30-4-32 57-63 35-18 87-36 114-39 44-5 52-10 67-39 9-18 24-42 34-53 14-15 15-24 6-43-9-20-7-27 8-41 10-9 20-34 22-54l3-36 57 2c39 1 61-3 69-13 6-8 20-14 30-14s21-4 24-10c3-5 14-10 24-10 9 0 32-15 50-34 24-24 45-36 76-41 52-7 74-27 55-50-11-13-5-23 37-63 28-27 54-58 57-70 4-12 12-22 17-22 31 0-1-24-46-34-60-14-78-22-90-38-7-11-28-23-46-27-18-3-37-15-43-26s-23-39-38-62c-16-23-28-49-28-57 0-9-4-16-10-16-5 0-13-12-16-27-4-16-14-38-21-50-18-27-10-43 20-43 27-1 64-30 69-56 2-12 12-19 28-19 38 0 63-59 37-87-7-7-20-26-31-42-24-37-11-49 55-50 63-1 89-27 52-53-20-14-22-43-2-43 15 0 59 47 59 65 0 9 7 33 16 52 15 31 15 36 1 50s-20 14-61-7c-25-12-46-26-46-31 0-17-19-9-25 12-4 13-1 27 10 39 31 34-4 140-47 140-12 0-36 11-55 26-29 22-33 30-30 65 2 21 9 45 15 51 7 7 12 16 12 21s10 19 23 31c12 12 35 41 51 64 37 53 50 61 126 69 33 3 63 10 66 14 3 5 13 9 23 9 11 0 28 8 40 18l22 17-51 48c-27 26-50 53-50 61 0 7-9 25-20 39s-20 37-20 51c0 24-31 52-44 39-6-6-116 57-151 87-11 10-38 20-59 23-21 4-56 18-77 32s-52 25-69 25c-29 0-30 1-30 48 0 72-55 176-95 180-34 3-130 47-159 71-10 9-29 38-43 64-17 34-34 53-58 63-27 11-34 20-37 46-3 29-7 33-35 36-24 2-33-1-33-12z"/>
  <path d="m2835 7043c-50-8-83-50-54-69 7-4 16 1 21 10s17 16 27 16 24 7 31 15 21 15 31 15c11 0 19 5 19 10 0 10-19 11-75 3z"/>
  <path d="m1223 7007c-30-31-37-68-20-95 15-23 25-3 19 43-4 39-2 45 12 39 9-3 16-16 16-29 0-35 24-50 45-28 17 16 17 18-4 31-11 8-21 25-21 38 0 36-14 36-47 1z"/>
  <path d="m1060 6956c0-8 5-18 10-21 6-3 10-15 10-25 0-23 59-75 72-62 21 21 4 75-26 83-17 5-34 15-38 24-11 19-28 20-28 1z"/>
  <path d="m4615 6942c-22-1-49-7-60-12s-28-9-39-7c-12 1-20-5-22-18-1-10-13-27-26-36-18-14-20-20-11-30 10-10 17-8 36 9 13 12 27 22 31 22s23 12 41 26c20 15 41 23 52 20 20-6 47 7 42 20-2 5-22 8-44 6z"/>
  <path d="m981 6884c-17-12-19-19-11-29 14-17 1-39-49-80-33-29-33-29-27-94 4-36 11-70 17-75 12-13 11-70-2-116-10-33-9-41 15-77 25-37 37-81 53-190 3-24 15-53 27-66 35-39 76-102 76-119 0-8 7-21 15-28s15-18 15-24c0-7 12-23 26-37 14-13 32-38 39-55s24-44 39-60c39-43 116-143 116-150 0-3 14-23 30-44 17-21 30-44 30-53 0-8 9-26 20-40s20-39 20-57c0-17 7-44 15-60 15-30 26-81 45-220 6-41 15-97 21-125 26-128 24-139-34-148-63-11-92-20-109-34-9-9-35-15-57-15-23 0-45-5-52-14s-32-14-72-14c-51 0-63-4-83-25-18-19-33-25-67-25-23 0-48-5-53-10-15-15-188-50-213-43-11 3-46-7-78-22-88-41-119-75-70-75 13 0 38-7 56-16 25-12 35-13 46-4 20 17 51 4 76-33 12-18 27-36 33-42 6-5 21-32 34-60 13-27 27-57 32-65 45-73 52-105 47-199-3-51-10-98-16-104s-11-22-11-36c0-22-32-93-92-204-9-18-17-39-18-48 0-9-7-22-15-29s-15-20-15-30-7-23-15-30-15-23-15-35-7-28-15-35-15-19-15-26c0-16-18-51-37-72-7-7-13-19-13-26 0-11-25-65-45-96-17-26-34-104-28-128 3-12 0-29-7-37-10-12-10-18 0-30 16-20-8-82-55-140-19-23-35-47-35-52 0-6-8-21-19-34-10-13-22-40-26-59s-14-44-21-55-15-52-18-90c-2-39-8-80-12-93-3-13-2-33 4-45s12-75 15-140c3-122 13-151 41-128 8 7 27 11 43 9l28-3 2-123c2-86 7-132 18-152 8-16 15-35 15-42s9-30 20-51c11-20 20-48 20-61 0-14 4-27 9-30 17-11 51-92 51-123 0-17 6-36 14-42 21-18 22-221 1-261-8-16-15-50-15-76 0-44-36-144-52-144-5 0-8-7-8-15 0-15-73-138-97-163-6-6-15-21-18-32-8-25-68-119-89-141-9-9-16-27-16-41s-7-31-15-38-15-17-15-22-9-28-21-51c-34-69-59-157-59-208 0-29-6-53-15-63-20-19-20-99 0-116 10-8 15-30 15-64 0-30 6-60 15-72 8-10 15-29 15-40 0-12 7-27 15-34s15-21 15-31 5-21 10-24c6-3 10-13 10-22 0-17 55-89 104-135 27-26 35-28 110-28 73 1 79 2 62 15-13 10-23 11-31 5-12-10-45 26-45 49 0 13-51 52-60 46-20-12-20 17 0 42l20 26-32 28c-18 15-50 33-71 40-45 15-53 24-59 65-3 23 0 31 11 30 8-1 18 13 23 32 9 36-17 71-53 72-28 0-42 25-28 49 11 16 10 25-1 45-15 29 4 60 46 76 32 13 57 66 42 90-18 28 29 114 55 105 15-5 38 13 54 42 11 20 10 25-13 39l-25 17 47 48c37 37 53 47 70 43 32-8 40 14 15 40-13 14-19 29-15 39 8 21 13 21 36 0 25-23 57 3 40 33-8 15-6 24 9 40 18 19 19 23 5 37-27 26-5 77 32 77 7 0 12 11 12 25 0 15 6 25 14 25 17 0 28-38 12-43-8-3-8-8 0-16 6-6 18-9 27-5 19 7 23 24 6 24-6 0-8 7-5 16 4 9 1 23-5 30-34 41-49 88-34 104 8 9 15 24 15 33s5 19 10 22c14 9 13 61-2 85-10 15-10 22 0 32s14 8 19-10c6-26 21-25 37 2 8 14 8 20-2 23-18 7-62 79-62 102 0 27 29 49 40 30 6-8 5-18 0-23-11-11-13-46-3-46 3 0 15 8 25 17 16 14 23 15 38 5 46-28 40 4-10 58-22 24-40 48-40 55 0 24-23 35-37 17-12-16-15-15-38 11-30 34-31 56-6 88 46 60 55 90 36 125-10 18-15 39-12 47 8 21-10 44-24 30-8-8-8-25 1-68 9-46 9-63-1-81-18-35-45-30-41 8 1 3-5 12-13 18-8 7-15 28-15 47s-6 47-14 61c-29 53-47 131-50 221-5 106 0 111 66 91 33-9 46-9 65 1 18 10 26 10 35 1 7-7 24-12 38-12 39 0 60-28 58-80-2-115 10-217 31-264 12-27 20-54 18-60s2-17 9-23c17-18 15-94-3-115-13-15-13-20 3-48 18-29 18-33 2-60-16-28-16-28 13-40 35-15 40-58 9-80-19-14-19-14 2-37 19-20 20-27 10-44-15-23 21-82 48-77 20 4 26 38 7 38s-28 23-17 41c5 8 4 19-2 27-7 8-11 43-10 82 1 49-2 71-13 80-23 19-18 37 13 52 32 16 41 57 18 90-9 12-16 32-16 43s-7 29-15 39c-8 11-15 28-15 38s-10 38-22 61c-24 46-24 49-28 221-2 128 4 146 41 124 14-7 59-14 109-14 113-2 110-2 110-18 0-26 21-29 52-6 19 14 39 20 54 17 14-2 27 0 30 4 11 18 43 9 46-13 2-15 10-23 23-24 11 0 34-6 50-13 17-7 47-10 67-8 21 3 41 1 44-4 8-13 18-106 16-149 0-19 6-42 15-52 20-22 0-52-28-43s-23-5 12-34c30-26 30-26 15-62-8-19-21-41-29-47-17-14-15-84 2-90 18-6 41 18 38 41-2 17 4 21 41 24 47 3 53-10 28-59-17-32 2-73 24-52 30 29 13 150-31 236-5 10-9 38-9 63s-4 45-9 45-15 15-21 34c-20 62 29 164 80 166 8 0 28 7 44 15 37 19 37 19 80-10 20-14 49-28 64-31 15-4 33-12 41-18s35-11 60-11c39 0 46-3 46-20 0-15-8-21-32-23-38-4-41-12-14-36 15-13 19-32 19-94l1-78-45-52c-37-42-44-55-34-66 7-10 8-20 1-33-5-10-17-35-26-56-16-36-23-41-58-38-10 2-21-8-27-23-10-28-38-46-70-46-15 0-20-5-18-17 2-11 12-17 23-16 11 2 30-2 42-8 16-9 26-8 44 5 13 9 34 16 47 16 27 0 39 26 24 51-16 24-15 29 3 29 23 0 67 71 53 87-8 10-6 18 7 33 22 24 87 27 105 5 10-12 16-13 26-4 17 14 18 45 3 55-6 3-8 17-5 30 5 20 2 26-19 34-23 9-25 15-25 64 0 30-5 67-12 81-9 19-9 28 0 37 7 7 12 23 12 36 0 32 26 51 71 52 19 0 39 4 45 9 5 5 25 12 45 16 32 6 37 4 42-15 5-20 10-22 41-16s36 4 36-13c0-28 20-31 58-9 30 19 34 19 51 4 10-9 31-16 48-16s36-7 43-15 19-15 26-15c8 0 14-5 14-11 0-5 5-7 11-3 8 4 8 9 0 17-16 16-14 27 5 27 35 0 101-94 82-117-6-7-8-19-5-28 4-8 2-17-2-20-5-2-12-25-15-49-4-24-16-52-27-62s-17-25-14-35c3-9-7-43-23-76-54-110-56-121-16-138 28-11 39-12 54-2 15 9 22 9 32-1 16-16 38-15 38 2 0 24 28 40 45 26 24-20 35-6 14 19l-20 24-31-23c-25-18-34-21-47-11-9 6-26 15-38 21-13 5-23 14-23 19s10 11 23 13c12 2 21 9 19 17-6 26 60 83 87 76 21-5 23-3 17 17-3 13-9 41-12 63-4 22-11 46-17 52-6 9-5 23 3 43 7 16 10 40 6 53-10 43 11 93 54 121 51 33 71 33 97-3 17-22 32-30 71-35 56-7 92-40 92-83 0-35 17-18 22 21 3 32 4 32 97 75 61 28 89 32 75 10-9-14 15-39 32-32 7 3 11 9 8 14-9 15 23 10 36-6 10-13 9-19-6-36-17-19-17-20 3-25 29-8 37-33 17-55-16-18-13-49 5-49 5 0 12 9 16 19 3 10 15 21 25 24 25 6 26 39 4 104l-16 47 30 26c60 50 213 64 260 25 32-27 103-27 147 0 24 15 110 27 120 17 4-4 23-7 42-7 22 0 38-6 43-15 4-8 19-38 33-67 26-51 24-69-7-57-23 9-31-21-12-48 21-30 20-57-1-64-10-3-29-11-42-17-19-9-25-9-28 1-5 14-39 17-47 4-7-12 22-52 38-52 37 0 39-30 5-60-37-32-49-36-65-20-18 18-41-17-26-41 16-25 15-29-6-29-11 0-24 11-30 25-15 32-24 31-65-5-37-32-90-40-127-20-29 15-32-4-5-28l25-22-48-51c-26-29-66-70-89-92-33-31-40-43-32-54 15-17 29-17 29 2 0 8 11 22 25 31s25 22 25 30c0 19 20 28 33 15 18-18 27-13 27 18 0 16 7 34 15 41s15 21 15 32 9 22 20 25 20 9 20 14 12 9 26 9 33 7 41 16c15 14 18 13 41-9 29-30 24-62-8-52-11 4-20 2-20-4s5-11 10-11c6 0 10-9 10-20 0-26-20-26-27 0-3 11-12 20-21 20-8 0-24 7-34 17-17 15-18 15-18-3 0-11 10-24 23-29 27-12 29-34 4-49-14-9-21-7-31 7-18 24-26 21-26-8 0-17 9-29 29-40 38-19 46-32 31-50-9-11-17-12-32-4-26 14-36 3-20-21 24-38 3-58-23-23-13 17-14 17-32 0-36-32-56-17-31 23 19 30 3 34-26 5-14-14-26-36-26-49s-9-35-20-49-20-34-20-45c0-36-24-45-49-18-21 22-67 33-54 13 11-18-9-58-38-73-29-14-30-17-16-32 15-14 18-14 36 2 13 12 21 14 26 6 11-17-55-68-79-62-15 4-18 1-13-11 4-11-1-21-15-28-12-7-31-20-42-30-22-21-36-24-36-9 0 19-21 10-29-13-12-31-36-49-58-45-15 3-11 10 19 38 39 36 50 70 22 70-8 0-22-16-30-35-9-22-21-35-32-35-10 0-29-11-42-25-14-15-35-25-51-25-30 0-99-36-99-51 0-5 6-12 14-15 11-4 8-12-11-32-24-26-24-27-4-36 15-6 27-3 49 15 16 13 38 29 48 35 22 13 16 24-15 27-12 1-20 6-18 12 3 5 18 9 34 8 20-2 36 4 48 17 17 19 45 27 45 13 0-3-7-14-16-24s-11-20-6-23 15 1 22 9 20 15 29 15c10 0 28 11 41 25s30 23 37 21c7-3 28 10 46 29 19 19 41 35 49 35s39 25 68 56c52 55 59 57 73 19 6-15 61 29 66 51 5 26 101 124 122 124 19 0 120 104 204 209 33 41 70 86 83 99 12 14 22 31 22 38 0 8 5 14 10 14 6 0 10 6 10 13 0 6 14 32 30 57 17 25 60 106 96 180s72 147 80 162c8 14 14 33 14 41s6 20 14 26c13 11 19 33 33 125 3 22 12 46 19 54 8 7 14 31 14 53s7 50 15 63c9 13 17 53 19 92 2 38 7 78 12 89 17 37 8 542-10 567-10 14-16 44-16 83 0 38-6 69-15 82-8 12-19 39-24 60-8 28-9 15-4-53l5-92-25 3c-20 2-24-1-20-16 3-10 14-19 24-19 14 0 21-9 25-30 4-16 12-34 20-41 7-6 10-17 7-25-6-16-42-19-44-4-1 6-2 16-3 23-2 19-40 14-44-6-2-10 5-35 16-56l20-39-24-11c-24-11-24-11-8-48 9-21 19-51 22-66 2-16 13-34 24-40 50-30 75-182 38-222-12-13-18-29-14-38 10-27-25-33-43-8-15 22-16 22-35 4-20-18-21-17-70 37-37 41-48 60-43 77 6 26-8 37-33 24-13-7-24-4-42 9-17 13-28 16-37 9-24-21-84 30-64 54 6 8 8 17 4 20-11 11-23 8-23-7 0-13-71-66-89-66-6 0-14 8-20 17-11 21-43 0-34-23 3-8-1-14-10-14s-27-15-41-32c-19-25-28-30-37-21-12 12-39 7-39-8 0-5 7-9 15-9 19 0 19-9-1-48-22-46-54-53-68-17-3 8 0 12 7 10 22-8 44 12 29 27-9 9-17 10-30 1-10-6-30-9-45-6-34 7-38-30-8-56 24-21 37-66 22-75-6-4-11-27-11-50 0-28-7-52-20-68-17-22-18-27-4-46 9-13 12-31 8-47-4-18-1-32 11-45 23-25 16-56-13-53-12 2-22-2-22-7 0-6-7-10-15-10s-25-10-37-22c-17-17-33-22-65-21-24 1-43-3-43-8 0-18-27-8-54 20-32 33-57 29-108-18-26-23-34-24-120-22-74 2-96 6-108 20-22 25-40 59-40 75 0 8-5 16-11 18-8 3-9 17-1 53 6 30 7 54 2 61-6 6-4 18 4 30 7 10 16 34 19 52 4 19 20 54 37 78 16 25 30 51 30 58 0 20 119 135 163 157 26 14 48 18 67 14 16-3 31-2 35 4 10 17 22 13 57-17 43-36 83-56 97-48 6 4 24-3 41-15 35-26 60-16 42 18-8 15-5 29 13 60 21 38 23 53 5 53-4 0-12-11-18-25-12-27-36-33-49-12-4 6-23 20-41 30-33 17-35 16-59-3-23-18-28-19-48-6-12 8-32 12-44 9s-21-1-21 6c0 6 5 11 12 11 6 0 8 3 5 6-4 4-14 1-22-6-13-10-20-11-39-1-28 15-68 11-74-8-3-9 1-11 16-7 11 4 23 2 27-4 10-16-26-52-47-47-11 3-30-7-49-24-17-16-38-29-47-29-8 0-24-8-34-17-17-15-20-15-46 10-16 15-33 27-39 27-14 0-83 66-76 74 12 11-20 36-38 31-14-5-30 5-55 31l-35 38-54-56c-52-54-74-108-45-108 7 0 9-20 4-58-5-49-3-60 14-75 24-22 41-5 21 20-11 13-10 18 10 35l24 19-33 34c-31 32-33 55-6 55 7 0 27 7 44 15 44 22 96-1 141-63 19-26 48-61 64-79 23-25 28-35 19-46-7-8-9-29-5-50 3-23 1-42-7-51-6-8-14-28-17-43-10-62-23-180-23-210 1-50-74-107-95-73-8 13-48 13-61 0-10-10-31-3-116 39-32 16-40 17-55 5-27-20-142-18-173 3-55 38-81 74-76 101 3 15 8 56 12 92 5 50 13 73 35 101 18 22 29 49 29 67 0 27 39 90 63 100 4 2 7 10 7 17 0 19 108 115 130 115 10 0 25 8 32 18 7 11 18 21 25 23 8 3 9 9 3 18-7 12-11 12-24 2-13-11-18-10-31 3-32 32-73 5-45-29 24-29 2-26-31 4-40 37-41 37-64 11l-18-20-24 22c-17 16-26 19-34 11-17-17-3-47 17-39 10 4 22-1 29-10 9-14 16-14 33-5 13 7 27 9 32 6 16-10 11-35-7-35-9 0-31-14-49-31-37-36-69-33-84 7-6 14-18 24-30 24-27 0-25 24 5 64 31 41 31 47 1 75-33 31-52 19-30-19 18-29 13-64-9-58-6 2-19 19-26 36-16 35-37 38-55 10-8-13-6-22 12-41 12-13 22-30 22-39s11-23 25-32c17-11 25-26 25-46 0-16 4-32 10-35 5-3 10-20 10-38-1-18 1-53 4-78 4-38 1-50-15-65-10-9-19-24-19-33s-9-27-20-41c-12-16-17-34-13-51 3-15 0-30-6-33-8-5-6-16 4-36 20-39 19-45-12-75-63-59-94-64-227-33-46 10-63 20-75 40-9 15-28 37-43 48-16 12-28 28-28 36s-5 23-12 34c-10 16-9 23 10 43 13 13 22 30 20 37s7 16 19 19c29 8 65 39 58 50-3 5-14 7-25 4-23-6-39 22-21 40 6 6 11 24 11 40 0 44 30 88 55 82 18-5 18-5 3 5-22 14-24 63-3 80 12 10 13 16 4 27-7 7-14 11-17 8s-12 1-20 7c-8 7-27 11-43 10-37-3-61 37-38 64 11 14 11 18-6 30-10 8-22 14-26 14s-9 9-12 20c-4 16-14 20-45 20-49 0-72 22-54 51 16 25 15 29-6 29-35 0-82-62-82-107 0-34-4-43-22-49-13-4-40-22-61-40-20-19-41-34-45-34-5 0-16-18-26-41-17-38-17-41-1-59 25-27 16-65-15-65-26-1-27-4-14-57 4-17 2-28-4-28-18 0-36-68-22-85 17-21 40-7 40 25 0 15 9 35 19 44 11 10 22 35 26 57 4 21 16 50 27 64s18 32 15 39 8 28 24 45c16 18 29 37 29 43 0 5 11 23 25 40 14 16 25 35 25 41 0 24 51 67 78 67 32 0 92-55 92-84 0-9 12-33 27-52 30-40 45-153 23-179-8-10-8-19-1-34 6-11 7-22 3-25-29-18-63-85-53-104 9-17 6-26-15-51-28-33-27-81 1-81 7 0 17-5 21-12 9-14-61-78-85-78-9 0-25-6-36-14-37-25-100-28-128-6-14 11-34 20-45 20-12 0-24 5-27 11-4 5-18 14-31 19-14 6-24 18-24 29s-5 23-11 27c-7 4-9 23-5 50 3 25 1 46-5 49-18 12-39-17-39-54 0-49-11-64-43-56-25 7-66-8-79-29-5-8-13-7-28 2-24 15-72 16-87 1-23-23-119 50-125 96-5 44-30 38-40-9-13-62-32-76-99-76-32 0-61 5-64 10-3 6-16 10-28 10-11 0-33 12-49 27-33 31-62 18-52-23 8-31-17-32-63-5-34 21-39 40-46 162-2 31-7 61-11 68-4 6-2 18 4 26 7 8 13 48 14 88 2 59 6 79 24 102 12 15 22 38 22 50 0 26 39 65 64 65 15 0 17 6 12 33-5 28-2 38 24 62 18 18 30 39 30 55 0 38 63 98 85 80 12-10 18-8 35 11 30 37 26 52-14 45-24-5-37-2-46 9-7 8-21 15-31 15-19 0-26 15-11 22 23 10 53 70 41 84-9 11-9 18-1 26 7 7 12 19 12 28s14 29 30 45c17 16 30 39 30 53 0 27 14 56 41 83 10 10 19 24 19 30 0 5 4 8 9 4 5-3 12-1 16 5 3 5-3 10-13 10-23 0-20 35 4 44 8 3 19 17 24 31s20 29 32 34c13 5 17 10 10 15-12 7 12 62 51 120 16 22 18 33 10 46-12 18 19 80 39 80 6 0 8 7 5 15-8 21 5 26 27 10 11-9 15-19 10-27-6-10-4-10 9 1 18 14 12 36-17 61-25 20-20 50 8 50 13 0 29 6 35 14 16 20-3 31-54 31h-40l-7 57c-7 54-41 132-74 169-8 8-14 20-14 26 0 5-9 20-20 33-15 17-17 27-10 34 8 8 17 4 31-13 22-26 51-21 57 11 3 17-107 68-146 68-17 0-22 5-20 18 2 10 11 16 23 14 11-1 56 5 100 13s97 17 118 20c22 4 43 14 50 25 6 11 20 20 31 20s27 7 36 15c19 17 50 10 50-11 0-15-10-17-47-14-13 1-23-3-23-9s-9-11-20-11-20-4-20-9 24-9 53-8c58 0 87 18 87 53 0 24 55 60 66 43 9-16 50-10 77 11 23 19 27 19 41 4 9-9 23-13 31-10s15 2 15-2c1-4 3-31 5-60 5-71-6-100-42-104-32-3-40-33-9-33 25 0 31-19 11-35-12-10-21-10-41-1-42 19-110-42-73-65 7-4 19 3 29 16s25 21 36 18c28-5 23-32-6-36-14-2-32-10-40-17s-22-13-30-13c-30-2-75-15-81-24-7-10-39 0-39 13 0 5 6 9 13 9 8 0 22 10 33 21 19 22 19 22-4 14-13-4-36-1-53 5-37 16-48 6-24-20 28-31 7-46-39-29-20 7-36 16-36 20 0 14-80 70-90 64-14-9 15-42 54-62 16-8 40-28 53-44 24-28 25-28 106-22 45 3 89 11 97 18s33 15 54 18c48 8 126 78 126 114 0 13 7 26 15 29 8 4 15 17 15 29 0 13 5 25 12 27 8 3 13 34 15 92 1 48 7 94 13 101s13 46 16 86 7 76 10 80c2 4 0 10-6 14-5 3-10 19-10 36 0 30 17 38 38 17 9-9 15-9 24 0s1 21-32 50c-32 29-42 43-37 57 7 16 9 17 25 1 25-22 34-20 30 7-2 14-11 23-26 25-28 4-56 45-49 72 3 10-2 38-9 61-13 36-13 44 1 65 20 31 19 33-10 44-14 5-25 16-25 24 0 7-7 20-16 27s-20 22-25 34c-5 11-13 27-18 35-6 8-12 26-15 40s-28 52-55 85c-74 89-75 90-89 114-9 16-10 26-2 36 6 7 7 20 4 29-4 10 1 25 11 36 16 17 16 19-4 30-23 12-26 8-33-35-2-11-10-20-18-20s-16 9-18 20-16 34-31 50c-42 46-62 83-50 90 5 4 17 1 25-6 9-8 18-9 24-3 15 15-9 58-42 77-16 9-32 27-38 41-5 14-18 30-29 36-20 10-44 53-56 100-3 14-13 42-22 63-15 35-15 38 2 57s17 20-6 39c-24 19-24 19-5 40s19 22-2 67c-12 25-19 50-16 56 4 5 1 27-6 49-12 37-12 39 18 74 18 20 29 41 26 50-4 8-2 15 3 15 4 0 14 9 20 19 18 29-6 46-36 25zm2894-3954c3-5 17-10 31-10 29 0 110-78 138-132 9-18 28-53 41-77 29-52 34-143 10-175-8-11-15-32-15-48 0-39-29-64-85-71-38-6-52-3-67 10-17 15-19 15-36 0-21-19-84-13-103 9-18 22-33 17-90-26-29-21-57-36-63-32-6 3-31 9-55 12s-47 12-52 20c-14 28-22 55-20 72 1 9-3 19-9 23-14 9-13 35 4 67 8 15 12 36 9 47-7 28 14 84 42 111 13 12 21 29 18 37-6 16 26 53 99 114 46 39 64 45 185 58 6 0 15-3 18-9z"/>
  <path d="m4723 6813c-10-25-29-43-47-43-19 0-30-17-16-25 6-4 18-1 26 6 11 9 18 8 32-5 25-21 35-20 27 3-6 21 10 38 20 21 9-14 25-12 25 3 0 14-41 57-53 57-4 0-11-8-14-17z"/>
  <path d="m3e3 6794c-3-3-3-12 0-20 5-13-12-59-38-107-7-13-6-19 5-23 22-8 38 5 31 25-3 11 4 25 20 39 13 12 22 28 19 35-3 8 2 20 11 27 8 7 15 16 15 21 0 10-53 12-63 3z"/>
  <path d="m13463 6767c-18-18-33-40-33-49 0-28-22-33-42-8-28 35-25-8 5-54 40-63 84-50 71 21-7 37 8 63 37 63 24 0 32 16 19 40-14 26-19 25-57-13z"/>
  <path d="m2660 6721c-43-45-48-62-25-81 22-18 39-7 40 26 0 21 7 32 28 42 31 15 33 24 12 42-13 11-22 6-55-29z"/>
  <path d="m2784 6673c-4-21-9-32-11-25-3 6-18 12-35 12-37 0-33-25 5-25 36-1 40-7 45-70 5-59 22-85 41-62 15 19 4 70-21 97l-20 22 22 29c17 24 19 33 10 45-20 23-29 17-36-23z"/>
  <path d="m5725 6682c-6-4-17-20-25-37-8-16-45-63-82-104-42-46-68-83-68-97 0-13-4-25-9-28-4-3-11-24-15-48-4-27-19-55-41-80-19-21-35-46-35-56 0-11-9-27-20-37-13-12-20-29-18-50 1-18-11-56-30-94-34-67-38-91-22-107 6-6 1-20-15-38-14-16-22-33-19-38s6-73 5-152c0-130 2-145 19-161 20-18 20-17 20 18 0 20-4 39-10 42-14 9-12 99 2 113 9 9 9 15 0 24-21 21-15 116 8 135 11 10 20 23 20 30s6 13 14 13 16 7 20 15c8 23 6 30-9 27-22-4-27 16-11 45 20 40 37 87 40 116 2 13 15 40 29 59 15 19 27 43 27 53 0 32 30 57 47 40 16-17 33-20 33-6 0 5-6 16-14 23-14 14-6 66 18 120 4 9 5 22 1 28s14 32 39 58c73 74 91 95 109 124 26 42 21 72-8 50z"/>
  <path d="m13236 6631c-25-26-26-31-15-52 8-15 12-51 11-94-3-77 12-113 42-102 22 9 20 18-7 47-19 20-22 29-13 43 8 13 8 20-4 27-12 8-12 11 2 27 9 10 18 34 21 53s7 44 9 54c5 30-16 29-46-3z"/>
  <path d="m2256 6603c-3-3-6-19-6-33 0-15-7-33-15-40-14-12-14-15 0-30 10-11 15-37 15-78 0-34 4-62 9-62 4 0 6-11 4-24-5-23 42-74 56-60 3 3-3 12-13 20-11 7-16 17-13 21 4 3 0 17-8 30-17 25-13 43 11 43 20 0 17 13-7 28-13 8-19 21-17 36 1 13-3 31-11 40-12 14-11 19 3 34 24 28 17 100-8 75z"/>
  <path d="m4770 6603c-53-9-57-13-31-34 29-23 20-52-18-57-27-4-31-52-3-52 22 0 42-19 42-40 0-8 10-20 21-25 12-6 20-12 18-15s4-18 14-33c24-37 19-88-9-102-18-9-19-13-8-23 20-19 66-5 55 17-11 20-3 68 16 98 25 39 13 68-29 71-86 7-121 122-37 122 23 0 79 52 79 74 0 7-70 6-110-1z"/>
  <path d="m2023 6578c-8-9-9-19-3-28 6-8 10-22 10-31 0-29 65-88 89-82 19 5 21 1 21-32 0-34-2-36-27-33s-27 0-30-42c-5-77-5-82 13-101 13-14 14-22 5-33-9-10-5-25 15-65 25-48 26-52 10-69-15-18-15-21 8-47 14-16 28-47 32-69 4-24 21-58 41-83 32-39 33-43 20-65-26-40-13-118 19-118 16 0 19 36 4 45-12 8-13 45 0 65 8 12 11 12 27-2 17-15 83-15 83 1-1 24-20 35-40 24-35-22-50-16-44 16 5 23 2 29-15 34-32 8-26 43 14 85 39 42 45 58 14 42-42-23-106 68-110 156-3 63 8 144 19 144 4 0 8 24 9 54 2 49 1 53-17 49-13-4-22 1-27 13-11 32-64 92-84 97-12 3-19 14-19 29 0 36-23 64-37 46z"/>
  <path d="m12862 6432c10-24 9-36-2-56-9-18-10-29-2-38 6-8 10-48 9-93-2-78-3-80-27-80-19 0-25 5-24 21 0 14-4 20-13 17-7-3-20 0-28 7-10 8-15 9-15 2 0-6 5-14 10-17 12-8 13-162 1-169-9-6-84 6-113 19-27 11-45-35-29-73 17-41 60-84 78-78 8 3 28-2 44-11 21-13 32-14 40-6 18 18 1 33-40 33-27 0-44 7-61 25l-24 25 22 22c19 20 25 21 55 10 45-16 77-15 77 2 0 8-4 18-10 21-32 20 6 113 41 100 8-3 26 6 41 20l27 25-19 38c-22 41-18 103 7 123 11 10 11 14-2 29-14 15-14 21-4 39 7 11 11 21 9 23-3 2-17 14-32 27l-27 24 11-31z"/>
  <path d="m13035 6449c-8-12 32-59 51-59 7 0 21-12 33-27 16-23 23-26 37-17 23 14 30 34 12 34-8 0-25 11-38 25-19 21-73 55-86 55-2 0-6-5-9-11z"/>
  <path d="m2389 6429c-11-8-8-14 14-32l28-23-21-48c-15-36-17-52-9-67 13-26 33-19 37 12 2 13 8 29 13 35 4 5 6 20 2 32-3 12 0 29 7 37 23 28-39 75-71 54z"/>
  <path d="m7075 6260c-32-35-8-55 27-23 22 20 49 3 31-19-28-34-82-148-73-153 13-8 50 13 50 28 0 7 9 30 20 52s20 47 20 56c0 24 23 40 40 29 24-15 37-12 43 12 9 31-8 38-81 36-43-1-67-7-77-18z"/>
  <path d="m8344 6238c-22-36-54-105-54-117 0-8-8-23-17-33-13-14-14-21-4-31 18-18 47 5 43 35-1 14 4 31 13 38 8 7 15 19 15 27 0 7 10 27 21 42 12 16 18 34 15 40-9 15-23 14-32-1z"/>
  <path d="m12970 6199c-19-44 5-58 40-24 19 18 29 21 42 14 11-6 19-6 23 2 10 16-5 26-51 33-39 6-42 4-54-25z"/>
  <path d="m7235 6182c-14-10-55-70-55-80 0-11 33-42 44-42 5 0 6 10 3 22-7 26 26 68 54 68 19 0 42 24 32 33-9 9-66 9-78-1z"/>
  <path d="m7810 6183c-61-24-67-133-8-133 52 0 90 96 51 126-20 15-21 15-43 7z"/>
  <path d="m7982 6174c-6-7-12-16-12-20 0-3-11-19-25-36-25-30-33-58-16-58 11 0 61 58 61 70 0 5 12 10 28 12 15 2 27 9 27 17 0 20-47 31-63 15z"/>
  <path d="m8194 6178c-6-7-19-30-29-51-23-45-33-53-47-39-7 7-5 21 6 43 19 39 19 39 4 38-21 0-60-57-56-81 5-36 101-38 124-3 9 13 13 29 10 34-4 6-1 19 6 30 15 25-2 51-18 29z"/>
  <path d="m7627 6173c-4-3-7-17-7-29 0-13-4-26-10-29-5-3-10-14-10-24 0-20-49-71-71-72-7 0 0-5 16-10 26-8 33-6 51 17 12 15 27 23 33 20 30-19 91 43 91 93 0 29-72 56-93 34z"/>
  <path d="m2470 5952c0-5-18-16-41-26-40-18-41-18-55 3-20 27-35 27-63-3l-23-24 59-4c102-6 137 3 141 35 2 15-1 27-7 27s-11-4-11-8z"/>
  <path d="m12607 5871c-22-38-22-74 1-94 25-23 36-9 17 20-15 22-14 25 11 48 22 21 25 27 14 40-17 21-23 19-43-14z"/>
  <path d="m13720 5860c0-5-12-13-26-16-20-5-24-11-20-28 4-14-4-30-26-53-27-28-30-37-25-72 6-47 0-57-24-35-25 23-47 13-23-10 18-18 17-19-9-40-15-12-27-27-27-34 0-6-14-24-30-39l-31-27 28-22c34-27 19-59-17-36-44 27-47-8-4-52 39-40 42-55 14-79-23-19-46-22-55-7-11 18-23 11-18-10 3-11 11-20 18-20 16 0 27-27 14-36-7-4-6-10 1-19 17-20-16-42-41-27-23 15-56 16-64 2-3-6 5-14 19-20 29-11 33-31 10-51-8-7-13-21-11-31 3-10-8-36-25-59-29-40-27-58 5-59 13 0 8-27-8-40-8-7-13-16-10-20 8-14-5-38-24-43-15-4-121-199-121-222 0-5-6-16-14-24-8-9-17-35-21-58-7-49-30-109-45-118-5-3-10-19-10-34 0-16-7-34-15-41s-15-19-15-28c0-8-7-23-16-33-13-15-14-23-3-52 11-33 10-37-14-67-15-17-27-38-27-45 0-8-10-23-21-34-19-17-21-27-16-72 4-31 2-58-4-65s-11-28-11-46c-1-18-8-43-16-56-11-17-12-25-3-36 17-20 3-48-20-41-13 4-34-6-66-33-65-54-205-109-255-101-13 2-53-14-134-52-22-10-44-19-49-19-11 0-125-99-217-189-43-42-78-69-78-61 0 9-6 7-16-8-8-12-22-22-30-22s-14-10-14-23c0-16-9-28-27-38-16-7-39-24-53-37-31-30-68-46-98-43-12 1-22-1-21-6 3-19-2-33-12-33-5 0-8 4-5 9 4 5-3 7-14 4-10-3-22-13-25-22-4-13-14-16-38-14-20 3-27 1-19-4 9-7 5-13-15-24-16-7-43-30-60-50-24-27-39-36-53-32-11 3-26 0-33-6-10-8-19-6-36 5-19 14-24 14-39 2-17-14-318-164-439-219-82-37-253-79-321-79-42 0-62-5-86-23-24-19-42-23-81-21-31 1-56-4-66-12-9-8-24-12-33-8-18 7-22 34-4 34 9 0 9 3 1 11-7 7-17 8-25 3-7-5-110-9-228-9-130 0-249-5-300-13-47-8-124-15-172-16s-93-7-100-12c-29-22-89-36-102-25-42 35-568-148-622-216-18-22-25-26-35-16-17 17-37 16-55-1-28-28-144-60-169-46s-45 7-45-16c0-8-10-14-25-14-14 0-25 4-25 9s-8 7-18 4c-25-6-45 21-40 52 3 14-1 30-8 36-19 15-18 39 3 69l16 25-29-25c-16-14-34-32-41-41s-24-20-38-23c-14-4-25-11-25-16 0-15 20-22 33-11 24 20 44-5 23-28-18-20-18-22-2-40 15-16 15-19 1-31-13-11-21-8-48 18-33 32-64 31-51-1 6-15 4-16-22-3-18 10-33 12-44 6-23-12-74 39-64 64 4 10-1 25-11 36-13 15-14 23-5 39 13 25 4 45-17 37-8-4-26 4-39 16-28 28-31 43-5 29 14-8 22-7 31 4 10 12 8 16-13 24-45 17-53 89-11 115 17 12 24 25 22 41-3 27 27 65 54 65 24 0 34 27 19 51-7 12-8 26-2 36 37 75 61 132 67 156 3 15 10 30 15 33s9 12 9 21 8 25 18 36c9 10 17 31 17 45 0 19 8 30 26 39 29 14 29 10 13 136-4 30-2 53 5 60 6 6 11 22 11 35 0 14 9 39 20 58 13 20 17 35 10 39-12 8-13 52-1 59 9 6 6 92-4 119-4 10-3 28 2 40 11 25-5 85-43 159-8 14-14 33-14 42 0 23-30 67-41 60s-12-69 0-92c4-9 17-33 27-52 19-36 21-90 9-270-7-111-10-129-21-140-13-13-7-88 8-107 6-7 7-21 3-30-4-10-9-31-11-48-7-59-14-74-44-87-31-13-41-38-16-38 8 0 17-4 20-9 6-10-20-67-35-76-5-4-9-14-9-24s-11-26-24-35c-14-8-27-24-30-34-3-9-19-23-36-29-35-13-40-42-9-61 13-8 19-21 17-35-4-29-30-28-43 1-14 32-29 22-33-23-2-21-11-49-20-63-12-18-13-27-5-29 13-5 0-45-24-74-23-27-19-127 6-174 11-22 21-47 21-57 0-9 5-20 10-23 6-4 8-10 5-15-3-4-2-15 1-24 6-17 174-156 209-173 51-25 314-26 342 0 11 9 25 17 32 17s19 7 27 15c9 8 32 15 53 15 20 0 46 7 57 15 10 8 29 15 41 15s28 9 36 21c16 22 78 59 101 59 7 0 19 7 26 15s24 15 38 15 33 6 41 13c9 8 41 22 71 31 30 10 69 26 85 37 17 10 37 21 45 24s28 13 43 21c16 7 53 14 82 14 30 0 56 4 59 9 11 17 81 23 233 22 97-2 153 2 158 8 3 6 23 11 43 11s45 6 54 14c22 16 183 15 200-2 15-15 43-15 68 0 16 10 24 10 40 1 25-16 344-21 362-5 15 12 168 43 248 49 30 3 62 10 70 17 23 19 68 36 94 36 13 0 29 7 36 15s22 15 34 15 27 5 33 11c19 19 147 84 223 114 66 25 112 47 137 66 13 9 48 20 79 24 34 4 76 18 105 36 28 16 57 29 66 29s35 18 59 40 51 40 61 40c16 0 103 38 113 49 18 21 128 109 143 114 9 4 20 20 24 37 3 17 13 36 22 43s24 24 33 39c10 14 26 29 37 33 10 3 21 15 24 25 3 11 13 20 22 20s30 11 47 25c16 14 42 28 56 31 15 4 34 12 42 19s33 19 55 26 47 19 56 26 41 13 76 13c42 0 64 5 73 15 7 8 25 15 40 15s33 7 40 15 24 15 39 15c34 1 67 26 89 70 11 23 27 37 47 42 52 13 79 68 86 173 6 88 24 154 47 177 7 7 12 21 12 33s7 30 15 41c8 10 15 38 15 61s9 58 20 78c11 19 23 53 26 74 4 26 15 45 34 59 24 18 29 30 35 91 4 46 14 79 26 95 10 13 19 31 19 40s14 44 31 78c18 35 38 79 47 98 8 19 19 43 23 52 5 10 9 26 9 35 0 10 7 27 15 37 8 11 15 30 15 42s6 27 14 33c7 6 16 30 19 54 3 23 15 61 27 84 11 23 20 51 20 62s5 23 10 26c6 3 10 14 10 24s9 30 20 44 20 36 20 50c0 13 7 30 15 37s15 23 15 35c0 37 22 128 37 150 7 11 13 41 13 67s5 50 10 53c6 3 10 30 10 60 0 45 3 55 20 60 23 7 27 35 5 35-8 0-15-4-15-10z"/>
  <path d="m12422 5827c-18-18-32-41-32-50 0-10-8-21-17-24-53-19-44-62 25-119 31-26 63-54 69-63 7-8 16-12 19-8 4 4 1 13-5 21-7 8-13 27-14 42-2 22-9 30-35 36-37 10-50 31-32 53 16 20 45 19 78-2 25-16 24-14-10 28-38 47-37 69 2 69 26 0 31 12 13 32-21 24-24 23-61-15z"/>
  <path d="m4398 5803c-29-35-30-44-8-68 22-23 24-23 53-9 29 15 30 15 67-21l38-37 12 23c19 37 62 79 81 79 21 0 66 36 57 45-4 4-19 0-34-10-14-9-34-15-43-12-11 2-23-4-30-15-9-14-20-19-37-15-13 2-27 0-30-5-4-6-10-5-15 3-4 8-23 14-41 14-26 0-33 4-33 19 0 26-18 30-37 9z"/>
  <path d="m12695 5790c9-28 57-73 97-91 25-10 30-9 48 12 34 42 10 80-29 45-26-24-41-20-84 22-36 34-39 35-32 12z"/>
  <path d="m2250 5642c0-24 49-79 78-87 35-10 27 14-20 62-46 47-58 52-58 25z"/>
  <path d="m10800 5554c-54-30-62-43-47-75 14-27 43-33 39-7-1 9 13 33 33 53 56 59 48 69-25 29z"/>
  <path d="m12574 5554c4-14 2-32-4-40-7-7-9-18-5-24 9-15-4-50-20-50-7 0-23 12-34 28-11 15-21 22-21 15 0-6 5-15 10-18 6-3 8-16 5-28-4-16 2-30 20-47l27-25 19 24c12 14 17 31 13 46-3 14 3 35 20 60 31 45 32 61 7 75-33 17-44 12-37-16z"/>
  <path d="m12400 5521c-15-29-12-62 6-82 17-18 13-49-5-49-6 0-25 16-42 35-31 34-59 46-59 25 0-5 14-22 31-37 18-16 37-33 43-39 39-38 92-39 80-2-3 11-7 27-8 34-1 8-8 20-14 26-16 16-15 68 1 69 6 1 20 0 30-1 16-1 17 2 7 19-14 27-56 28-70 2z"/>
  <path d="m2348 5500c-23-41-16-54 52-95 43-26 65-34 86-30 33 6 42 1 67-38 14-21 23-26 41-21 24 6 96-61 96-89 0-7 13-24 29-38s32-41 36-60c4-18 22-50 40-69 53-56 69-108 56-182-6-35-17-109-25-166-17-124-10-144 84-237 51-51 63-58 105-61 26-2 54-9 62-15 11-10 17-9 30 3 21 22 8 38-31 38-19 0-39 7-46 15s-23 15-36 15c-15 0-45 21-84 59-66 65-79 113-45 177 8 16 15 39 15 52 0 12 6 31 12 42 10 16 10 24 0 40-14 23-16 98-2 120 10 17-16 67-62 115-15 17-28 39-28 49 0 9-13 34-30 54-16 20-35 53-42 73-20 55-111 129-160 129-25 0-45 7-58 20-11 11-33 20-49 20-44 0-81 35-81 76 0 42-10 43-32 4z"/>
  <path d="m11786 5411c-26-27-37-91-16-91 6 0 10 12 10 28 0 56 41 66 61 15 8-21 12-23 24-13 14 12 13 16-5 35-11 12-20 26-20 32 0 23-29 20-54-6z"/>
  <path d="m10367 5391c-19-21-36-42-38-47-2-6-19-20-36-33-18-12-33-31-33-40 0-10-17-36-38-58-38-39-38-39-22-68 23-42 52-40 106 8 48 42 60 41 77-7 3-8 11-7 27 2 30 18 50 1 32-28-16-26-15-40 4-78 18-37 25-39 49-12 10 11 25 20 33 20 19 0 70 36 108 77 40 41 47 41 73-2 22-38 57-47 68-17 9 23 25 33 46 26 11-4 36 11 74 46 62 54 86 60 91 20 2-14 8-30 14-37 5-7 7-26 3-44-4-19-2-41 6-55 11-21 10-27-9-47-28-30-28-41 0-34 15 4 30-1 46-15 19-19 26-20 42-10 11 7 27 12 35 12 23 0 18 24-7 35-13 6-23 17-24 25-2 35-5 40-31 52-24 12-28 19-29 58 0 25-3 59-7 76-6 24-3 34 12 48 11 10 18 22 15 27-11 19-73-7-127-53-57-49-58-50-78-32-21 19-21 18-51-19-34-42-55-47-60-15-2 19-9 23-43 23-53 1-72-9-80-43-11-50-85-71-93-27-2 11-11 28-19 37s-16 35-16 57c-2 30-6 40-15 36-8-3-16-5-18-5-3 0-9-11-14-25-10-27-28-33-36-11-7 18-49 9-93-21-33-23-36-23-48-7-22 31-15 49 38 92 47 38 119 126 119 144 0 17-20 6-53-31z"/>
  <path d="m11618 5353c-18-5-26-43-8-43 5 0 12-16 16-35 3-19 11-35 16-35 6 0 8-12 5-30-7-32 3-39 21-17 9 10 7 19-4 35-8 11-16 46-17 76-1 31-4 55-7 55-3-1-13-3-22-6z"/>
  <path d="m12045 5320c-12-13-25-17-45-14-21 5-31 1-43-16-21-30-13-46 36-70 71-36 93-58 79-81-7-10-12-31-12-45 0-18-12-38-36-60-39-37-59-42-83-20-28 25-84 24-96 0-6-12-16-29-23-37-24-29 20-32 45-3 26 31 46 33 82 7l27-19 51 34c45 30 54 42 67 88 19 64 20 78 6 92-8 8-6 15 5 24 21 17 19 30-11 61-21 22-24 31-15 47 18 34-6 43-34 12z"/>
  <path d="m12287 5323c-4-3-7-19-7-35 0-35-24-47-49-24-21 19-38 6-33-26 2-9-9-24-23-34-17-11-23-20-16-27 6-6 20-2 41 13 17 12 39 20 50 17 35-9 92 81 69 109-13 15-22 18-32 7z"/>
  <path d="m2186 5283c-12-12-34-27-49-32-30-12-34-28-12-57 8-10 15-30 15-43 0-17 4-22 16-17 9 3 18 6 20 6s4 10 4 23 5 28 11 34c16 16 39 5 39-19 0-14 5-18 15-14 8 3 22 9 30 12s15 1 15-5 17-11 39-11c79 0 122-45 82-84-12-12-12-18-3-28 7-7 12-22 12-35 0-21 2-22 20-11 14 9 20 24 20 52 0 23 7 47 17 58 15 17 15 19 0 36-10 10-17 22-17 25 0 22-74 107-94 107-12 0-31 7-42 15-32 22-111 15-138-12z"/>
  <path d="m3107 5212c-15-20-49-59-76-86-28-27-48-53-45-58 8-13 98-10 112 4 16 16 15 28-3 28-8 0-15-4-15-10 0-5-4-10-10-10-25 0-5 40 45 90 30 30 55 61 55 68 0 26-38 10-63-26z"/>
  <path d="m4067 5232c-9-10-17-24-17-30 0-17-39-89-56-103-19-16-18-33 4-52 21-19 38-21 55-7 7 6 21 17 32 25 11 7 17 17 13 21-5 4-17-1-29-11-17-17-22-17-29-5-13 20-12 30 0 30 6 0 10 7 10 15s15 26 34 41c31 25 33 30 23 53-17 40-22 43-40 23z"/>
  <path d="m3176 5162c-19-37-20-75-4-102 16-26 4-36-27-22-29 13-41 1-25-28 6-12 21-20 35-20 27 0 85 51 85 74s19 30 38 13c9-7 25-17 35-20 20-7 23-43 5-50-7-2-21 1-31 7-13 8-20 8-27-4-13-21-3-30 35-30 46 0 81 33 103 97 10 28 23 58 30 65 17 21-2 35-38 30-26-4-28-6-18-28 9-18 7-29-7-50-19-30-36-22-40 20-7 61-51 68-85 14-37-58-60-53-38 9 17 48-4 68-26 25z"/>
  <path d="m3630 5166c-6-6-10-20-10-33 0-12-14-38-30-57-34-38-25-57 16-36 19 11 26 11 39 0 19-16 45 2 45 31 0 25 17 24 30-1 15-28 29-25 41 8 6 15 20 37 32 50 16 18 18 25 8 35-10 9-18 5-42-20-32-37-45-43-30-14 8 13 7 22-2 29-17 14-85 20-97 8z"/>
  <path d="m4634 5167c-3-9 4-25 16-37 13-13 20-29 17-41-5-20 18-39 48-39 9 0 23-6 31-14 12-13 10-18-17-37l-32-22 29-24c16-13 42-27 58-31 41-11 54-34 37-66-23-42-1-58 68-50 45 5 59 3 70-10 8-9 29-16 51-16 58 0 92-48 50-70-24-13-26-30-5-30 9 0 19 8 22 18 10 25 25 33 58 27 23-4 26-3 10 4-28 12-52 58-38 72 8 8 17 7 31-2 17-11 25-8 58 19 48 40 63 40 104 2 30-28 58-44 32-18-7 7-12 19-12 28s-15 31-34 49l-34 33-33-18c-19-9-40-25-47-35-7-11-20-19-28-19-16 0-19 36-4 45 6 3 10 11 10 16 0 17-42-12-47-32-3-12-14-19-28-19-13 0-25-7-29-15-7-19-26-20-26-1 0 21-18 30-34 17-7-6-27-8-45-5-19 4-37 2-46-6-23-19-41 1-24 27 16 27-8 63-52 77-48 16-58 40-28 65l24 21-35 31c-19 17-57 49-83 72s-50 44-52 46c-3 2-7-3-11-12z"/>
  <path d="m3465 5136c-19-25-25-43-21-58 7-30 44-54 59-39 6 6 19 11 29 11s18 7 18 17c0 9 9 26 20 38 26 28 10 51-41 60-34 6-39 4-64-29z"/>
  <path d="m3836 5126c-42-46-44-57-12-72 34-16 52-3 35 24-14 23 9 62 37 62 25 0 26-22 3-46l-23-24 21-22c27-26 53-11 53 31 0 15 7 36 15 48 19 27 7 37-51 38-36 0-46-5-78-39z"/>
  <path d="m4161 5146c-13-14-20-30-16-36s1-18-6-26c-10-12-9-19 9-37 21-21 23-21 51-4 36 21 65 22 81 2 7-8 20-15 30-15 21 0 55 36 42 44-5 3-15-1-22-9-11-13-14-13-26 2-16 22 10 57 38 50 25-7 44 19 28 38-19 23-47 12-98-38-65-64-114-60-62 5 35 45-10 66-49 24z"/>
  <path d="m2500 5077c0-18 6-39 13-46 10-10 8-16-10-31-13-10-23-28-23-39 0-25 8-26 31-5 28 25 45 6 19-21-20-22-21-26-9-54 17-39 29-40 29-2 0 34 15 48 34 32 11-9 13-3 11 31-1 24-9 46-19 53-9 7-16 16-16 20 0 18-36 85-47 89-9 4-13-5-13-27z"/>
  <path d="m6962 4964c-31-21-28-29 17-51 36-18 41-19 56-4s18 14 36-11c12-16 27-28 34-28 22 0 25-27 4-46-28-25-23-37 13-32 22 4 41-1 59-14 42-31 103-22 107 17 2 17 8 36 14 42 7 9 4 15-13 22-13 5-40 25-58 45-38 39-51 43-81 24-17-11-24-8-49 17-30 28-31 28-51 10s-21-18-43 3c-21 20-25 20-45 6zm285-116c26-25 29-43 9-64-17-16-46-19-46-4 0 5-11 12-24 16-35 8-42 35-14 56 30 23 47 22 75-4z"/>
  <path d="m11160 4945c-17-18-21-28-13-36s15-5 25 10c15 21 15 20 53-14 21-18 43-31 49-28 5 4 1 9-9 13-13 5-15 9-7 14 7 4 25-2 41-13 16-12 34-21 41-21 16 0 90-76 90-93 0-8-7-20-15-27s-15-20-15-29-18-35-40-56-40-45-40-52-11-20-24-28c-23-15-23-18-9-45 20-41 43-39 43 4 0 27 8 41 40 70 26 23 40 45 40 60 0 16 12 34 32 49 31 25 31 26 15 51-9 14-17 31-17 38s-11 26-25 42-25 35-25 43c0 16-12 17-28 1-9-9-16-8-29 4-23 20-90 53-124 61-20 5-31 1-49-18z"/>
  <path d="m5392 4922c-26-26-35-27-52-7-23 28-40 18-24-14 23-46 40-56 69-41 13 7 31 10 40 6 24-9 14-39-15-46-16-4-26-14-28-29-3-18 0-22 11-18s13 0 10-14c-7-26 3-24 35 6 31 29 67 30 67 1 0-28 23-31 27-4 3 22 6 23 88 21 113-4 143-6 158-16 16-11 32 0 26 17-4 10 4 14 30 14 41 0 52-10 31-28s-19-27 10-34c55-14 51-41-14-110-34-34-61-66-61-69 0-16 30-5 40 13 12 23 40 27 40 6 0-7-7-19-15-26s-15-18-15-24c0-7-11-23-25-36s-25-30-25-38-13-30-30-49c-16-18-30-39-30-46 0-17-68-83-76-74-7 6-44-35-44-49 0-4 7-15 16-25 19-21 10-46-11-29-10 8-15 8-20 0-4-7-18-9-32-5-18 4-24 2-21-7 3-7 16-14 31-16 45-6 62-51 19-52-9-1-26-15-37-33-25-39-50-46-58-16-3 11-11 19-18 17-19-6-23-28-5-28 22 0 20-23-4-40-11-8-20-22-20-31 0-27-13-30-35-9l-22 21-16-24c-18-28-75-55-85-41-4 5-28 21-54 34-38 20-48 30-48 50 0 15-9 31-21 38-29 19-33 10-9-21 11-14 20-29 20-34 0-17 78-85 89-79 21 13 29-4 18-34-11-28-9-33 33-75 24-25 52-48 62-51s18-14 18-25c0-10 6-19 14-19 10 0 12 12 8 49-4 45-2 50 27 70 25 18 31 29 31 60 0 40 23 71 52 71 9 0 23 11 32 25s26 25 39 25c33 1 62 46 49 75-24 53 70 155 143 155 30 0 41 16 49 74 3 27 11 55 17 62 7 8 9 28 5 49-6 33-3 38 68 110 42 41 82 75 90 75s32-21 53-47 61-72 89-103c65-71 131-176 119-189-3-2 2-15 11-29 17-26 12-124-7-148-9-12 16-54 33-54 5 0 27 14 48 30 29 23 48 30 83 30 27 0 52 6 61 15 19 20 105 20 112 1 11-29-37-92-182-239-93-94-152-138-209-158-22-7-49-19-60-26s-29-13-40-13-29-7-39-15c-11-8-28-15-37-15-10 0-24-6-31-13-12-12-117-32-209-41-20-1-41-6-47-10-7-4-18-4-24 1-7 4-24 8-38 9-35 0-90 20-166 60-70 36-89 41-100 23-8-14 33-48 59-49 9 0 17-3 17-7 0-17 69-48 130-58 76-13 269-12 296 3 23 12 44 5 44-14 0-23 27-28 52-10 12 9 32 16 44 16 22 0 83 23 96 35 4 4 2 15-5 26-6 10-8 21-5 24 10 11 48-19 54-42 8-29 11-29 40 2 20 22 27 24 45 15 16-9 24-8 38 4 10 9 23 16 30 16 20 0 211 199 211 219 0 10-9 26-20 36-26 24-25 34 11 73 25 28 33 31 45 21s18-9 32 5c16 16 16 17-6 22-27 8-28 28-2 61 11 14 20 34 20 44s5 21 10 24c6 3 10 18 10 32 0 23 3 25 30 20 28-6 30-4 30 21 0 16 5 33 12 40 9 9 9 17 0 34-6 13-12 34-14 47-4 33-19 36-48 11-14-12-32-19-42-17-14 4-17 1-12-18 8-31-11-40-41-18-20 14-24 24-20 46l5 28-25-18-24-18 39-36c50-45 52-74 7-117-28-28-36-31-46-19-9 11-8 17 4 27 19 15 20 60 2 60-19 0-37 43-26 61 8 14 2 57-10 72-4 4-33 8-64 8-31 1-65 8-74 15-10 7-26 14-36 14-32 0-79 32-149 99-71 68-85 104-53 131 18 15 20 46 3 56-6 4-21-5-34-22-19-23-26-26-36-16-11 11-7 19 20 43 35 32 37 59 4 59-11 0-25-7-32-15-21-25-33-17-26 16 5 24 3 30-8 26-8-3-39 7-70 22-30 16-57 27-60 24-13-13-46 10-41 28 7 21-5 25-23 7-9-9-17-7-33 8-16 14-36 19-82 19-51 0-60 3-63 18-3 24-10 31-23 22-16-10-13-45 4-45 8 0 15-9 15-19 0-11 5-23 10-26 12-7 13-45 2-45-18 0-54 49-49 67 4 12-4 25-23 40-43 35-60 39-60 14 0-26-8-26-36 0-23 22-44 19-44-7 0-21-15-17-32 8l-14 22-22-22zm1107-626c13-14 21-29 18-33-3-5 3-17 14-27 20-17 20-18 3-37-18-20-44-10-44 18 0 7-16 28-35 45-28 24-33 33-24 44 17 21 43 17 68-10zm-39-91c0-8 9-20 20-27 41-26-2-56-59-41-21 5-30 33-11 33 5 0 12 11 16 25 7 27 34 35 34 10z"/>
  <path d="m11920 4921c0-26-37-58-52-43-8 8-17 7-33-4-20-13-26-13-53 3-29 17-31 17-50 0-10-9-26-17-35-17-24 0-21-8 15-41l31-30 26 24c19 18 39 25 71 26 64 2 140 77 95 95-10 3-15-1-15-13z"/>
  <path d="m9700 4915c-7-8-19-15-27-15-10 0-12-6-8-20 4-12 1-27-5-35-22-27 0-37 33-16 24 15 31 26 29 45-2 13 2 27 8 31 11 7 4 25-9 25-5 0-14-7-21-15z"/>
  <path d="m10370 4888c-1-28-58-81-81-75-16 4-19 3-10-6 6-6 11-18 11-27 0-28 37-55 55-40 23 19 18 31-10 24-40-10-31 22 20 74 25 25 45 49 45 54 0 13-30 9-30-4z"/>
  <path d="m11490 4882c0-11 34-42 45-42 5 0 17-8 27-17 16-14 22-15 36-5 9 7 29 21 45 31 24 16 26 20 12 31-13 11-20 9-40-10l-24-22-27 21c-26 21-74 29-74 13z"/>
  <path d="m8560 4845c-10-12-10-19-2-27s13-7 18 5c9 24 27 21 55-9l24-26-33-27c-20-18-30-34-27-43 5-12 15-7 45 22 22 21 52 47 67 58 26 19 27 21 8 27-11 4-35 13-53 21-43 18-86 18-102-1z"/>
  <path d="m2550 4833c0-16 45-53 65-53 10 0 28-9 40-20 20-18 23-19 35-5 18 21-24 54-69 55-19 0-43 7-53 17-10 9-18 12-18 6z"/>
  <path d="m6994 4805c-13-19-21-23-45-18-22 4-29 2-29-11 0-10 8-16 23-16 13 0 28-5 34-11 17-17 39-5 57 31 25 52-9 73-40 25z"/>
  <path d="m8765 4821c-11-18 47-45 68-32 27 17 44 0 30-31-7-17-5-31 11-60 25-48 36-49 26-2-10 45 21 84 69 84 37 0 50 18 19 24-73 16-217 26-223 17z"/>
  <path d="m9068 4798c-42-22-40-43 6-68 23-12 28-11 44 3 10 10 22 17 26 17s21 9 37 21c35 25 28 43-13 35-16-3-37-2-46 3-11 6-29 2-54-11z"/>
  <path d="m9302 4792c-22-17-22-19-5-34 51-44 79-43 104 4 23 44-52 66-99 30z"/>
  <path d="m9440 4785c0-35 42-62 75-47 15 7 25 20 25 32 0 18-3 19-20 10-24-13-44-4-36 16 4 10-2 14-19 14-20 0-25-5-25-25z"/>
  <path d="m8152 4788c-19-19-15-29 34-75 37-36 48-42 60-32s10 15-15 30c-38 23-45 37-30 55 21 26-24 47-49 22z"/>
  <path d="m8327 4793c-19-18 56-63 106-63 15 0 27-4 27-10 0-5 11-10 24-10 14 0 28-4 31-10 3-5 10-10 16-10 5 0 9 5 9 10 0 6-5 10-11 10s-20 11-31 25c-14 19-25 23-46 19-23-5-30-1-42 20-13 25-65 37-83 19z"/>
  <path d="m7850 4753c-20-7-53-10-78-7-33 4-48 1-62-11-18-16-20-16-35-1-14 14-65 23-65 12 0-2 7-21 16-42 13-32 17-35 25-21 13 22 67 22 91 0 17-16 20-15 54 18s36 33 50 15c8-11 14-29 14-41 0-30 20-48 37-33 11 9 10 15-8 34-29 31-20 47 28 50 32 2 46-3 64-22 29-30 37-30 71 3 44 42 32 79-16 48-28-18-86-18-126 0-19 9-33 8-60-2z"/>
  <path d="m6805 4739c-4-6 1-16 10-23 15-11 16-19 6-67-18-86 0-117 53-91 31 16 31 16 7 22-37 8-48 33-33 73 17 49-20 124-43 86z"/>
  <path d="m9010 4710c0-6 7-13 15-16 8-4 15-14 15-24s12-28 26-39l25-20 40 21c22 11 38 26 36 32-6 16-47 9-70-12-11-9-22-12-24-7-16 47-63 94-63 65z"/>
  <path d="m6666 4693c-3-4-6-17-6-31 0-13-9-35-20-49-23-30-25-43-6-43 7 0 16 9 19 20 4 16 11 19 29 15 35-9 57 19 34 43-9 10-16 23-16 29 0 13-25 24-34 16z"/>
  <path d="m4962 4674c-12-8-30-13-40-10-10 4-27-1-38-9-10-8-26-15-35-15s-22-7-29-15-25-15-39-15c-15 0-36-7-47-15-10-8-31-15-45-15-27 0-53-11-101-44-17-11-37-16-51-12-14 3-32-1-43-9s-42-14-75-15c-33 0-63-6-75-15-10-8-29-15-40-15-12 0-35-7-50-15-16-8-43-15-60-15-20 0-39-9-54-25-19-20-30-24-56-19-30 5-97-22-141-58-16-13-17-28-2-28 6 0 22-9 36-20 33-26 77-3 67 35-10 40 34 55 63 21 21-25 24-26 50-13 50 25 145 55 308 96 88 22 199 53 247 69 48 15 93 25 99 21 8-5 7-8-2-12-11-4-11-6 1-6 8-1 20 9 25 22 7 14 18 22 33 21 24-1 25 6 7 48-11 28 25 37 42 11 14-21 15-20 54 22 54 58 48 89-9 49z"/>
  <path d="m8590 4682c0-6 5-14 10-17 17-11 11-44-15-85-29-46-38-49-59-18l-16 22-21-20-21-21 41-43c27-29 41-52 41-70 0-15 3-30 7-34 14-14 41-96 33-101-10-6-6-127 4-143 7-12-16-55-47-85-17-18-17-20-1-38 19-21 36-16 32 11-2 10 8 27 22 38 23 18 25 27 25 105 0 47 4 89 8 94 36 35 40 135 6 154-11 5-19 18-19 28 0 19 39 61 57 61 11 0 26 40 18 48-9 10-35-9-35-25 0-10-14-27-30-38s-30-28-30-37c0-17-20-25-32-13-8 9 15 67 41 104 34 48 36 83 6 111-14 13-25 18-25 12z"/>
  <path d="m7260 4639c0-6-13-9-29-7-16 1-36-3-44-11-9-7-25-10-35-7-11 4-29-2-45-14-14-11-30-20-36-20s-11-4-11-10c0-15 46-12 59 4 6 7 22 11 35 9 13-3 27 0 30 6 5 7 15 6 32-5 13-9 27-14 31-10 3 3 2 6-4 6s-9 9-6 21c8 28 57 23 61-7 2-12 12-24 23-27 10-3 26-22 35-42 12-30 18-34 29-25 12 10 12 14 0 27-9 8-13 19-10 24 10 15 23 10 30-11 3-11 20-33 37-50 22-22 29-37 24-53-4-16 1-26 15-35s17-17 11-28c-5-10-3-33 6-60l14-44 19 35c25 46 24 62-8 131-36 81-126 164-177 164-7 0-23 11-36 25-24 26-50 33-50 14z"/>
  <path d="m6228 4574-26-26 32-28c46-41 106-70 143-70 40 0 44 17 6 22-18 2-28 9-27 19 1 11-5 14-22 11-24-4-73 25-74 44 0 7 13 11 31 10 41-1 47 15 12 32-38 17-45 16-75-14z"/>
  <path d="m12049 4553c-8-10-15-22-15-28-1-5-13-16-27-23-13-6-28-23-31-37-5-18-15-27-36-32-16-3-27-9-24-14 10-17 41-9 53 14s56 55 76 56c6 0 12 8 13 18 2 10 8 22 13 28 11 11 12 35 1 35-4 0-14-8-23-17z"/>
  <path d="m10866 4535c-21-19-26-33-26-69 0-50 17-72 22-29 2 19 12 32 31 41 30 14 37 51 13 71-10 8-19 5-40-14z"/>
  <path d="m12260 4511c0-8-9-24-20-36-12-13-18-29-14-38 8-21 24-22 24-3 0 45 93 61 129 22l23-24-21-18c-12-10-21-28-21-39 1-20 1-20 12 0 6 11 20 26 30 33s18 18 18 24c0 7 9 22 21 34 11 12 16 25 11 28s-15-1-22-9c-16-19-29-19-49-1-9 8-36 16-61 17-25 2-48 8-52 14-5 6-8 5-8-4z"/>
  <path d="m11395 4437c9-44-16-61-74-52-45 7-61-8-37-34 31-35 10-57-50-52-39 3-48-1-79-32-23-23-33-41-29-51 5-12-2-18-25-22-33-7-56-36-47-59 5-15 46-9 46 7 0 6 11 7 24 4 30-7 44 9 48 59 3 35 6 40 27 37 13-1 30 3 37 9s21 8 31 5c23-7 63 26 63 51 0 27 9 33 35 23 19-7 28-3 55 32 36 44 33 75-10 98-20 11-21 10-15-23z"/>
  <path d="m10248 4423c-29-30-35-42-27-55 20-36 69-5 69 43 0 14 5 30 12 37 9 9 9 12-3 12-8 0-31-17-51-37z"/>
  <path d="m10545 4420c-9-15 4-30 26-30 23 0 26-32 4-50-24-20-18-38 10-32 27 5 27 4 30 46 3 40-53 93-70 66z"/>
  <path d="m3148 4400c-19-21-10-34 16-24 27 10 18-11-25-60-23-26-38-50-34-54 3-4 12 1 19 11 15 20 37 22 54 5 9-9 15-9 24 0 24 24 159 4 287-42 66-24 87-22 86 12 0 25 3 27 40 27 34 0 40-3 40-22 0-33 13-38 33-13l18 22 32-36c17-20 38-36 45-36 8 0 20-7 27-15s16-13 20-10c11 7 7 30-9 49-12 14-9 21 23 50 49 47 46 54-21 50-317-18-406-13-411 24-3 17-11 22-35 24-55 2-68-1-87-25-14-17-21-19-31-10-16 16-4 43 21 43 11 0 20 4 20 8 0 18-25 31-50 25-15-3-31 0-34 6-11 18-50 13-68-9z"/>
  <path d="m10660 4361c-13-26-4-47 14-32 7 6 18 6 25 1 9-5 22-3 32 3 15 9 21 8 32-7 10-14 16-16 21-7 11 18-11 38-47 43-18 3-40 8-49 12-11 5-20 1-28-13z"/>
  <path d="m10852 4305c-13-7-29-18-35-24s-25-11-41-11h-31l25-13c18-9 30-10 42-3 13 8 22 5 38-9 22-20 22-20 36 0 12 16 18 17 33 8 33-21 32 0-1 34-35 37-34 36-66 18z"/>
  <path d="m7729 4265c-21-23-41-35-58-35-23 0-24-1-9-16 12-12 24-14 45-9 15 5 33 7 40 6s11 11 11 31c-1 17 4 34 10 36 7 2 12 8 12 13 0 18-20 8-51-26z"/>
  <path d="m1e4 4266c-16-17-33-39-37-48-3-10-12-18-18-18-7 0-6-9 5-25 9-13 16-31 16-40 0-8 6-15 13-15 8 0 11 13 9 43-3 39 0 46 32 75 20 17 36 36 36 41 0 21-27 15-56-13z"/>
  <path d="m10151 4224c-14-23-19-44-15-57 5-16 3-19-15-14-14 3-22-1-26-14-9-28 2-41 25-29 13 7 21 7 25 0 14-22 25-8 25 33 0 23 7 51 15 61 8 11 15 28 15 38 0 30-27 20-49-18z"/>
  <path d="m7890 4086c0-41 5-78 10-81 6-3 10-23 10-44s11-59 25-85 25-55 25-65 9-26 19-35c19-17 21-17 49 4 17 13 33 33 36 46 4 13 11 24 16 24 15 0 12 30-2 31-7 1-20 2-28 3-8 0-19 11-25 23-5 12-21 27-36 33-47 20-70 64-76 146-8 96-23 96-23 0z"/>
  <path d="m10836 4056c6-25-14-40-40-30-23 9-27-12-6-31 36-32 70-13 70 40 0 34-4 45-15 45s-14-7-9-24z"/>
  <path d="m4618 4011c-33-32-47-79-27-92 27-17 40-10 33 16-5 18 1 35 20 59 41 54 23 66-26 17z"/>
  <path d="m1354 4006c-8-14-27-26-42-28-20-2-29-11-36-35-5-18-15-33-22-33-13 0-19-13-15-34 1-5-7-29-19-52-21-40-21-43-5-68 17-26 17-26-19-41-24-10-36-22-36-35 0-25 11-25 57 0 47 25 56 40 36 62-15 17-15 19 0 36 10 10 17 26 17 34 0 9 10 22 22 30 19 12 20 18 11 30-14 16 0 38 23 38 17 0 40 39 48 83 8 43 3 47-20 13z"/>
  <path d="m2226 4014c-3-9-6-24-6-34 0-9-7-23-15-30s-15-19-15-28c0-8-7-23-15-32-13-14-12-17 5-28 17-10 20-10 20 3s26 79 49 125c9 17 4 40-9 40-4 0-11-7-14-16z"/>
  <path d="m1563 3982c-32-41-58-107-48-122 9-14 35 0 35 20 0 10 7 23 15 30s15 20 15 30 7 23 16 30c28 24 34 46 14 47-12 1-31-13-47-35z"/>
  <path d="m10640 4e3c-7-8-16-12-21-9s-9 0-9-6c0-7 7-10 15-6 8 3 15 2 16-2 0-4 2-34 4-66 3-33 9-64 14-69 12-12 33 1 25 15-23 37 2 118 36 118 6 0 10 5 10 10 0 6-9 10-21 10-11 0-29 4-39 10-13 7-21 6-30-5z"/>
  <path d="m10332 3977c-7-18-12-54-12-80 0-57-15-68-44-32-20 25-23 26-36 10-12-14-10-19 16-40 34-28 56-31 74-10 7 8 27 15 44 15 36 0 83 40 71 60-5 8-16 3-35-15-40-38-63-30-66 23-1 23 2 45 7 48 11 6 12 54 1 54-4 0-13-15-20-33z"/>
  <path d="m11080 3991c0-5 8-14 18-20 14-8 15-13 5-30-7-12-13-26-13-33-1-27-50-51-77-39-17 8-29 8-37 2-9-7-20-5-35 6-21 14-24 14-44-6-17-16-19-23-9-33 7-7 12-24 12-39s7-32 15-39c12-10 12-16 4-26-15-19-4-44 20-44 29 0 33 13 14 50-21 43-8 63 43 70 90 12 149 75 142 151-2 29-7 34-30 37-16 2-28-1-28-7z"/>
  <path d="m7723 3849c-6-6-9-17-6-24 2-8 0-23-7-34-18-34 43-123 72-105 11 7-1 55-18 75-18 20-18 34 0 48 11 10 16 8 21-9 17-55 89-83 83-32-2 20-8 26-21 24-15-3-17 1-12 17 12 38-81 71-112 40z"/>
  <path d="m10617 3802c-26-3-28-6-22-30 11-45 35-66 51-44 14 18 19 69 7 74-5 2-21 2-36 0z"/>
  <path d="m10438 3772c-18-16-41-31-50-35-18-6-25-27-9-27 4 0 6-11 4-24-5-24-31-30-45-11-4 5-10 6-14 2s1-16 11-27c17-19 19-19 37-4 10 10 18 24 18 33 0 17 85 103 111 114 9 3 6 6-8 6-12 1-37-12-55-27z"/>
  <path d="m1685 3762c-16-12-16-119 0-126 7-2 19 2 25 10 14 16 40 19 40 4 0-5 7-10 15-10 23 0 18 25-9 45-20 15-23 23-15 38 18 32-25 62-56 39z"/>
  <path d="m10588 3675c36-30 41-45 13-45-11 0-23-4-26-10-3-5 3-10 13-10 25 0 44-23 36-44-7-19 7-21 24-4 9 9 15 9 24 0 15-15 28-16 28-2 0 6-7 10-15 10-22 0-30 27-14 46 16 20-26 65-64 69-14 2-32 6-39 10s2-5 20-20z"/>
  <path d="m10990 3685c0-3 15-11 33-18 54-24 72-51 57-87-22-54-76-75-119-48-15 9-26 9-46 0-23-11-29-10-40 4-7 10-17 14-24 10-17-11 5-36 30-36 23 0 26-32 5-49-10-8-13-23-9-47 7-44-11-66-51-62-22 2-31-2-34-14-6-29 50-23 78 7 26 28 58 33 66 10 4-8 10-12 15-9s-2 19-16 36c-45 53-29 98 35 98 20 0 45 7 56 15 10 8 26 15 35 15 30 0 49 34 49 87 0 47-3 53-34 72-30 19-86 29-86 16z"/>
  <path d="m6965 3602c-37-27-38-41-6-77 31-36 31-36 41-13 5 13 15 30 21 39 20 27-28 72-56 51z"/>
  <path d="m1e4 3575c-12-14-32-25-46-25-24 0-24-1-8-19 15-16 15-22 5-39s-10-23 1-37c13-15 15-15 22 5 6 17 14 21 33 18 25-5 25-4 25 58 0 72-2 74-32 39z"/>
  <path d="m9146 3575c-24-18-58-19-74-3-9 9-17 6-37-12-21-19-27-21-40-10-25 20-55-11-33-34 16-15 44-13 84 6 15 7 28 7 42-1 14-7 23-8 27-1 3 6 16 8 29 4 16-4 25 1 35 19 22 40 2 58-33 32z"/>
  <path d="m1133 3516c-12-13-29-29-40-34-17-10-15-14 19-49 39-39 67-39 30 0-24 25-26 35-13 56 7 10 13 11 31 1 28-15 34-9 19 24-15 32-20 32-46 2z"/>
  <path d="m8129 3515c-1-5-2-14-4-20-1-5-3-15-3-21-1-6-13-16-27-22-33-15-32-32 3-32 31 0 72 25 72 43-1 16-39 65-41 52z"/>
  <path d="m11476 3494c-9-8-16-20-16-26 0-14-81 1-102 19-19 17-59 14-66-6-3-9 2-11 18-6s29 0 48-18c35-33 92-31 121 4 31 37 28 65-3 33z"/>
  <path d="m6883 3481c-2-10-16-24-30-30-28-13-26-32 5-46 12-5 22-13 22-18 0-4 16 7 35 24 41 38 42 45 13 70-29 23-39 24-45 0z"/>
  <path d="m8715 3451c-61-54-70-68-55-86 16-19 30-19 30 0 0 8 9 19 20 25s20 15 20 21 9 24 20 39c30 42 11 43-35 1z"/>
  <path d="m3513 3473c-7-2-13-15-13-28s-6-25-12-28c-10-3-10-9 0-27 11-18 11-25-2-45-18-27-21-55-6-55 6 0 10 8 10 19 0 10 7 25 16 32 12 9 14 23 10 49-4 24-1 43 9 56 23 30 19 40-12 27z"/>
  <path d="m8165 3380c-10-11-28-20-41-20-15 0-29-11-41-30-9-16-21-30-25-30s-8-8-8-18c0-14 8-17 45-17 55 1 64 9 40 35-23 25-12 37 35 42 29 2 35 7 35 27 0 32-17 37-40 11z"/>
  <path d="m8583 3338c-19-18-26-20-47-10-38 17-57-11-28-40 20-20 22-20 46-4 14 9 26 21 26 26 0 6 7 10 15 10s15 9 15 20c0 25-1 25-27-2z"/>
  <path d="m10099 3300c-4-51-7-57-41-79-29-19-38-31-38-52 0-43-43-51-53-11-4 13-5 12-6-4 0-11 7-29 18-38 18-16 21-14 73 46 45 52 98 140 98 163 0 3-9 5-19 5-11 0-21 6-24 13-3 6-6-13-8-43z"/>
  <path d="m10470 3326c-6-9-9-19-6-24 11-17-21-34-42-23-16 8-24 5-43-16-13-14-19-23-13-20 7 4 11-5 12-23 0-16-6-33-14-38-16-9 16-52 39-52 31 1 42 19 17 28-45 17-55 22-32 18 17-3 22 0 22 19 0 14 17 38 44 63 55 51 59 57 42 71-10 8-16 8-26-3z"/>
  <path d="m890 3307c0-13-70-87-82-87-4 0-14 7-23 16-14 15-14 19-1 39 22 33 8 38-20 8-24-26-23-34 3-65 13-14 12-20-1-41-15-22-15-26-1-37 20-16 33-5 76 65 35 56 57 67 79 40 14-17 90-21 90-5 0 6-4 10-10 10-5 0-27 16-49 35-40 37-61 44-61 22z"/>
  <path d="m1145 3299c-11-17 26-51 41-38 26 22 132-37 122-67-2-5 4-19 13-32 14-19 18-20 28-9 9 11 8 17-4 27-9 7-15 20-14 29 3 32-1 41-20 41-10 0-24 7-31 15-30 36-120 59-135 34z"/>
  <path d="m9747 3271c-20-20-37-45-39-56-2-10-18-29-36-41-30-21-31-23-16-39 21-21 39-14 39 16 0 17 7 25 24 27 19 3 22 0 16-17-5-16 1-27 22-45 40-34 46-34 47-6 1 16 16 40 39 61 39 37 59 86 31 75-9-3-18-6-20-6s-4-8-4-18c0-27-63-84-84-76-24 9-17 58 9 62 32 6 43 22 23 33-10 6-18 19-18 29 0 22 10 26 27 9 7-7 12-6 16 4 13 34-41 25-76-12z"/>
  <path d="m1085 3240c-3-5-1-18 4-29 14-25-8-44-46-39-42 5-36-24 7-34 31-7 38-4 63 24 33 39 33 45 5 69-25 22-25 22-33 9z"/>
  <path d="m6844 3218c-15-18-33-46-40-63-7-16-29-46-48-64-35-34-46-64-26-76 16-10 11-29-11-43-24-15-39-8-21 10 19 19 14 38-18 65-34 28-36 36-15 57 8 8 15 19 15 25 0 5 7 14 17 19 10 6 14 16 10 26-9 23-27 20-27-5 0-11-14-32-31-46-16-14-28-32-25-39s-2-18-10-24c-8-7-14-17-14-23s-7-19-17-29c-14-15-14-18-1-18 19 0 48 32 48 53 0 23 13 21 35-3 17-19 17-21 2-38-10-10-17-30-17-45 0-14-4-29-10-32-5-3-10-13-10-22 0-13 3-13 15-3 35 29 39-7 6-47-17-20-31-48-31-61s-11-33-25-46c-16-15-25-34-25-53 0-17-6-36-13-42-8-6-20-30-27-53-8-24-22-54-32-67s-18-30-18-38-11-38-24-66c-13-29-26-59-30-67-11-24-31-56-45-74-12-15-11-19 7-32 27-19 28-48 2-121-11-32-17-65-14-76 3-10-4-35-15-57s-16-42-11-45 7-27 3-53c-3-26-6-58-7-72 0-14-6-29-12-35-6-5-14-38-18-72-3-35-11-71-18-82-9-14-9-26-1-43 9-20 6-28-25-60-32-34-34-40-23-61 17-32 10-63-12-59-19 3-24-23-6-34 13-8 4-81-13-101-6-7-8-28-5-46 3-17 3-26 0-19-8 20-20 14-53-28-36-45-36-80 0-58 11 7 20 21 20 30 0 10 7 18 15 18s15-4 15-9-7-14-15-21-15-20-15-29-5-22-12-29c-17-17-3-25 22-12 32 17 43 0 24-38-16-33-41-41-62-20-19 19-27 0-9-20 10-10 17-24 17-31 0-6 12-16 26-21 34-13 30-51-6-57-14-2-34-13-45-25l-20-20 33 6 32 6v-45c0-24-5-47-11-51-6-3-8-15-5-27 5-22-85-148-92-128-7 21-30 10-56-27-14-21-26-43-26-49s-6-16-14-22c-7-6-16-29-20-51-7-45-46-61-46-19 0 12-5 19-12 16-8-3-12-19-10-45 2-35-1-41-19-44-13-2-30-18-40-38-20-36-120-97-139-85-15 10-12 47 6 66 9 10 14 25 11 34-9 22-27 19-27-5 0-17-3-19-19-10-27 14-28 13-35-12-9-34-54-64-76-50-13 8-23 7-39-4-24-18-29-64-6-64 8 0 15-4 15-10 0-14-7-13-34 5-16 11-30 13-47 7-20-8-32-2-77 34-49 40-72 52-72 39 0-2 21-25 46-51 41-42 44-49 30-62-14-14-17-14-34 1-23 21-31 21-54 0-17-15-20-15-48 12-25 24-32 26-45 15-12-10-21-10-41-1-35 16-47 5-28-25 20-30 17-34-32-40-33-4-42 0-75 32-38 37-65 38-54 3 8-23-17-26-35-4-7 8-18 15-25 15s-18 7-25 15c-19 23-22 12-6-21 18-34 13-43-12-21-10 10-32 17-48 17-17 0-35 5-42 12-9 9-16 7-32-7s-22-15-35-5c-21 17-127-1-153-27-8-7-35-13-63-13-47 0-49 2-69 40-23 46-23 46-60 23-26-15-29-15-45 0-20 21-34 22-41 2-7-16-34-21-34-6s-32 23-44 11c-8-8-6-14 7-21 22-13 13-29-16-29-11 0-33-12-49-27-23-22-30-24-43-13-8 7-22 9-32 5-43-19-88-12-125 18-36 29-39 29-83 17-32-9-49-20-58-39-19-41-78-42-117-2-19 18-28 35-24 45 11 29-26 18-39-11-6-16-20-37-30-48-9-10-15-25-13-32 7-16 5-16-55 3-39 13-52 14-64 4-8-7-22-9-31-6-23 9-37-3-23-20 8-10 8-14 0-14-6 0-11 3-11 8 0 22-41 32-69 18-16-9-31-12-34-9-8 7-37-16-37-29 0-7 265-7 667 2 12 0 25 5 28 10s19 7 34 4c16-3 39 0 52 6 28 16 129 26 209 21 105-6 243-1 255 9 8 7 56 13 107 16 51 2 106 6 121 10 15 3 33 2 40-3 7-6 73-11 147-12 75-1 160-6 190-12 100-20 284-14 335 10 25 12 59 21 76 21 16 0 40 5 51 11s45 12 75 14c30 1 59 7 65 13 7 7 19 12 28 12 8 0 29 8 45 18 17 10 42 22 56 25 14 4 66 41 115 83s106 87 126 100 49 40 65 61c15 21 31 40 35 43s12 17 17 30c6 14 16 34 23 45 36 62 58 113 58 133 0 8 6 23 14 31 15 17 24 94 30 276 9 219 19 340 30 354 14 18 34 130 35 197 1 27 8 59 16 70 9 12 14 42 15 79 0 34 6 69 14 80 8 12 16 66 20 140 4 66 11 124 17 130 5 5 9 26 9 46 0 21 5 50 11 66 6 15 12 46 14 68 4 52 27 144 43 172 6 12 12 30 12 41s7 25 15 32 15 23 15 35 7 28 15 35 15 21 15 31 5 21 10 24c6 3 10 15 10 26 0 19 23 62 47 87 7 7 13 18 13 23 0 9 7 22 58 96 12 18 22 36 22 41s36 64 80 130 80 126 80 134 5 19 12 26c6 6 8 15 4 19s-17-5-29-21c-12-15-37-45-54-66-18-21-33-42-33-47s-11-20-25-33-25-31-25-40c0-22-47-63-53-47-5 14 23 67 35 67 4 0 8 8 8 19 0 10 7 24 15 31s15 19 15 27c0 9 18 37 40 63s40 55 40 64 7 19 15 22c19 8 20 44 1 44-8 0-27-15-42-32zm-720-2646c3-5-17-30-44-57l-49-48-11 27c-14 37-13 40 9 60 13 11 27 15 40 11 12-4 21-2 21 4 0 13 27 15 34 3z"/>
  <path d="m10606 3214c-39-41-44-55-21-74 24-20 45-4 45 34 0 19 7 41 15 50 9 8 11 17 6 21-5 3-26-11-45-31z"/>
  <path d="m2011 3156c-7-8-22-16-34-18-16-2-21-9-19-24 1-11-7-29-18-39-19-17-28-45-14-45 15 0 64 57 69 82 8 34 12 34 42 6 15-14 27-18 33-12 7 7 0 19-18 37-25 24-31 26-41 13z"/>
  <path d="m7007 3163c-11-10-8-143 3-143 6 0 10-13 10-28 0-17 10-38 25-52 29-27 35-90 10-110-8-7-18-30-21-52-5-26-25-63-58-107-75-98-96-129-96-139 0-5-7-15-15-22s-15-20-15-30-7-20-15-24c-8-3-15-16-15-30s-4-36-9-49c-8-20-5-29 13-46l22-21 44 22c25 12 47 26 48 30 2 4 9 8 16 8s23 11 36 25 27 25 32 25c33 0 238 178 238 206 0 21 41 74 58 74 7 0 28-11 45-24 34-25 54-31 157-48 75-12 284-5 302 9 7 6 33 13 57 16s57 15 72 26c16 12 34 21 41 21 14 0 44 40 40 54-2 4 4 18 12 30l14 22-87-22c-268-71-540-67-604 8l-18 21-32-31c-36-35-65-29-46 9 5 11 14 28 19 39 12 25 13 30 1 30-6 0-16-12-23-27-10-21-21-28-43-28-24 0-29-4-27-19 2-11-10-33-29-52-31-32-32-35-16-51s17-15 28 15c9 26 16 32 39 32 43 0 43-13 2-54-36-34-40-36-70-25-43 15-85-28-76-78 7-36-2-42-21-16-16 22-55 7-82-33-10-15-36-46-58-68l-40-41-3 28c-2 16 3 36 12 46s16 24 16 33c0 8 21 37 48 65 58 60 122 156 122 181 0 11 19 40 41 66 40 45 41 48 24 66-16 18-16 20 4 49 23 32 27 56 11 66-19 12 2 27 29 21 23-6 24-5 9 7-10 8-18 18-18 24 0 10-95 56-119 57-8 1-17 11-22 24-9 24-12 26-22 15z"/>
  <path d="m949 3101-24-19 23-24c26-28 28-47 7-74-8-10-15-25-15-33s-7-22-16-32c-11-12-14-27-9-48 9-40 22-39 30 1 8 36 62 129 82 141 18 11 51 79 46 95-8 20-97 15-124-7z"/>
  <path d="m705 3090c-10-12-24-19-31-16-8 3-11 0-8-8 3-7-7-35-21-63-30-61-32-79-5-56 11 10 20 24 20 32s23 36 51 63c47 44 56 68 25 68-7 0-21-9-31-20z"/>
  <path d="m582 2908c-7-7-12-22-12-33 0-12-3-24-6-28-8-7-9-275-2-283 3-2 11 2 18 11 8 10 9 15 2 15-8 0-9 22-5 68 3 37 5 90 4 118-1 38 3 53 14 58 10 3 15 19 15 46 0 41-7 49-28 28z"/>
  <path d="m880 2761c0-48 3-61 15-61 9 0 15 9 15 25 0 18 9 31 30 43 28 16 39 31 23 33-31 3-50 7-65 14-16 6-18 0-18-54z"/>
  <path d="m1255 2797c-4-8-5-18-3-23 1-5-8-31-20-58-27-59-28-79-4-74 12 3 16 12 15 35-2 23 4 39 23 58 15 15 24 34 22 47-4 26-26 36-33 15z"/>
  <path d="m2490 2552c-28-24-32-33-26-55 8-31 22-35 31-8 3 11 12 22 20 25 23 9 37 42 22 55-10 8-22 3-47-17z"/>
  <path d="m8710 2535c-7-8-20-15-30-15s-23-7-30-14c-8-11-18-12-35-6-16 6-26 5-33-3-15-20-35-77-29-83 10-10 27 6 27 25 0 24 23 43 43 35 8-3 18 0 22 6s20 8 40 4c30-5 35-3 49 25 9 16 16 32 16 36 0 11-28 4-40-10z"/>
  <path d="m1167 2318c-4-18-2-62 4-98 19-123 19-131-5-155s-25-55 0-35c23 20 34 2 27-48-3-26-10-55-15-65-6-12-6-23 1-31 6-7 11-28 13-47 1-19 8-44 15-55 12-19 12-24-2-37-8-9-15-19-15-23s-11-22-26-41c-43-57-98-37-144 51-16 32-27 43-34 36s-6-14 2-22c7-7 12-22 12-35 0-31 66-93 99-93 15 0 43 14 63 30l36 30 20-27c36-50 74 22 40 77-12 19 11 60 33 60 11 0 49-88 49-112 0-27 21-18 40 18 23 40 67 44 108 9 35-30 51-18 26 20-16 25-16 27 10 53 30 32 33 50 10 59-16 6-64-32-64-52 0-23-21-34-46-23-18 8-27 8-40-3-14-12-21-9-51 26-33 38-34 43-29 101 4 48 1 69-15 98-10 20-19 45-19 55 0 11-5 23-11 27-6 3-8 20-5 38 3 19 0 38-9 50-8 10-12 30-9 45 4 20 0 28-18 36-16 7-23 19-24 40-1 60-4 75-13 75-5 0-11-15-14-32z"/>
  <path d="m3318 2079c-12-6-18-22-18-44 0-18-5-46-10-61-16-42 1-54 71-50 75 4 90 16 53 45-44 35-66 77-48 92 11 9 18 9 26 1 22-22 43-14 23 8s-68 26-97 9z"/>
  <path d="m3654 2019c-13-22-86-47-123-42-60 8-94-43-48-71 15-9 22-6 39 17 14 19 26 26 39 22 11-4 37 4 63 20 46 27 84 27 107-1 17-21 34-17 48 12 10 23 10 25-9 19-13-4-31 1-49 14-32 23-56 27-67 10z"/>
  <path d="m3e3 1971c10-16-5-41-23-39-10 2-16-4-16-17 0-21 1-21 88-8 45 6 45 6 5 43-31 27-66 41-54 21z"/>
  <path d="m3232 1888c-7-7-12-19-12-28 0-8-31-48-70-87-38-40-70-77-70-83 0-18 20-11 44 15 13 14 32 25 43 25 21 0 46 23 56 52 4 10 12 15 20 12 15-5 47 20 47 37 0 6-6 9-12 8-35-4-41 1-24 20 26 29 5 56-22 29z"/>
  <path d="m2056 1883c-10-10-7-61 4-68 6-3 10-14 10-24 0-61 143-88 188-36 32 37 82 34 104-5 17-30 48-41 48-17 0 19-12 32-54 61-49 33-66 33-100-3-29-30-82-47-116-36-19 6-60 79-60 108 0 18-14 30-24 20z"/>
  <path d="m2770 1794c0-45 79-136 114-131 27 3 32 27 8 34-19 5-92 87-92 104 0 4-7 9-15 13-11 4-15-2-15-20z"/>
  <path d="m2307 1724c-3-3-3-12-1-19 6-15-29-55-47-55-6 0-9 6-6 14 8 21-16 39-31 24-7-7-32-11-56-9-45 2-81-19-73-43 5-16 47-20 73-5 18 9 30 10 49 1 13-6 27-8 29-3 3 5 23 11 44 15 51 8 69 28 54 61-11 25-23 31-35 19z"/>
  <path d="m1290 1605c0-5 7-17 17-27 15-17 15-20-5-41-25-27-20-37 18-37 15 0 36-11 50-25 16-17 27-22 34-15s1 19-17 38c-15 15-27 33-27 38 0 6-16 25-35 44s-35 30-35 25z"/>
  <path d="m3330 1595c-7-8-19-15-28-15-8 0-32-18-54-41-21-22-43-37-49-33-6 3-17-3-25-15s-21-21-29-21c-46 0-159-90-138-111 7-7 26-1 62 20 29 17 58 31 66 31 7 0 22 10 32 23 19 22 83 60 94 55 4-2 15 4 25 13 11 10 28 19 39 21 12 2 19 10 17 20-4 24 25 43 42 28 8-6 13-17 10-25-3-7-1-16 5-20 26-16 22 28-5 55-33 33-46 36-64 15z"/>
  <path d="m5113 1563c-7-2-13-12-13-21 0-24-25-91-38-104-17-17-15-32 8-53 11-10 20-16 21-14s2 21 3 41c3 40 22 72 38 62 5-3 6-19 3-35-8-34 18-42 35-10 14 28 13 35-15 65-18 20-23 34-19 52 6 24 1 27-23 17z"/>
  <path d="m4337 1553c-16-15-6-62 15-78 19-13 21-18 10-35-16-26-15-40 3-40 8 0 22 15 30 33 26 55 43 80 59 89 25 14 19 38-9 38-18 0-28-7-35-25-5-14-16-25-25-25s-20 11-25 25c-10 27-13 29-23 18z"/>
  <path d="m4892 1538c-27-33-73-141-64-150 19-19 52 14 52 51 0 21 8 43 21 57 15 16 18 27 12 39-8 13-11 14-21 3z"/>
  <path d="m5e3 1507c-19-22-34-46-32-54 2-7-1-13-6-13-15 0-23-30-13-47 7-13 11-12 25 8 9 13 16 29 16 35 0 7 7 14 15 17 18 7 49 78 38 87-5 4-24-11-43-33z"/>
  <path d="m4508 1498c-16-5-28-16-28-23s-7-16-16-19c-20-8-15-51 6-51 10 0 17 13 20 35 5 36 23 47 50 31 12-8 12-12-3-29-20-22-23-56-4-50 10 4 45 62 47 79 1 18-46 35-72 27z"/>
  <path d="m4636 1459c-15-28-25-53-21-57 7-7 50 37 57 59 2 7 10 9 16 5 14-9 6-47-12-58-16-10 7-30 26-23 10 4 14 14 11 26-3 10 2 30 10 43 18 27 13 36-18 36-11 0-25 4-31 10s-19-9-38-41z"/>
  <path d="m5355 1469c-30-33-34-43-24-55 10-13 17-10 49 21 27 26 42 34 56 28 17-6 18-5 5 11-32 39-47 38-86-5z"/>
  <path d="m2901 1458c-44-47-45-75-1-33 23 22 34 26 59 20 36-8 43 11 13 38-25 23-25 23-71-25z"/>
  <path d="m3879 1411c-62-69-81-101-74-122 5-15 10-17 20-9 16 13 40-13 29-32-6-10-5-11 7-1 27 22 44 89 28 109-11 14-9 20 20 44 20 16 31 32 27 38-11 19-21 14-57-27z"/>
  <path d="m1343 1405c-1-34 9-46 22-25 3 6 13 6 23 1 63-32 74-35 90-24 27 17 20 27-28 36-25 5-57 18-72 28-34 25-34 25-35-16z"/>
  <path d="m2921 1373c-8-3-27-18-43-32-28-24-42-30-135-49-58-11-45-27 26-30 43-2 68 1 80 11 9 8 37 24 64 36 62 30 70 88 8 64z"/>
  <path d="m6064 1290c3-18 2-29-4-25-14 9-31-32-24-60 8-30-21-69-45-60-27 11-29-17-3-40 22-19 24-25 14-37-11-14-12-131 0-143 3-3 13 4 23 15 17 18 17 21 1 45s-16 27 9 59c19 25 24 41 19 60-4 16-1 32 6 41 10 12 10 18 0 30s-10 19-2 27c7 7 12 21 12 33 0 11 7 31 16 43 17 24 11 42-13 42-12 0-14-7-9-30z"/>
  <path d="m2592 1255c-13-16-28-24-42-23-27 3-39-19-15-28 9-4 24 1 35 11 18 16 21 15 64-25 46-43 64-43 25-1-18 20-20 26-9 46 25 47-24 63-58 20z"/>
  <path d="m2133 1111c-24-20-34-52-10-34 22 18 68 21 98 6 26-13 31-13 46 2 18 18 5 34-27 35-8 0-31 3-50 5-26 4-41 0-57-14z"/>
  <path d="m737 999c-18-11-18-12 1-32 11-12 22-29 26-37 3-8 4-4 2 8-6 32 3 52 23 52 10 0 17-9 18-21 3-29 34-62 47-49 6 6 4 16-7 28-9 10-17 24-17 30 0 22-66 37-93 21z"/>
  <path d="m4160 995c0-8 5-15 11-15 5 0 15-13 20-30 6-16 15-30 20-30s7-11 3-25c-5-22-3-25 19-25 34 0 41 13 18 34-11 10-17 25-14 37 4 13-3 29-17 44-26 28-60 33-60 10z"/>
  <path d="m692 867c-13-14-22-36-22-55 0-35 15-43 25-13 3 10 15 21 25 24 15 4 20 14 20 36 0 37-18 40-48 8z"/>
  <path d="m4434 859c-27-29-28-29-11-64 9-19 21-35 26-35 17 0 48 48 45 72-1 13-3 28-3 34-2 25-30 21-57-7z"/>
  <path d="m1607 859c-9-5-21-7-27-4-5 3-14-4-20-16-9-15-18-19-34-15-28 7-67-31-90-86-23-53-20-74 15-118 38-48 57-55 80-34 11 10 28 15 44 12 14-3 30 1 36 8 6 8 21 14 33 14 40 0 76 50 76 103 0 26-5 47-10 47-6 0-14 8-17 18-8 20-55 82-63 82-3 0-13-5-23-11z"/>
  <path d="m757 726c-17-25-13-96 5-96 5 0 18-10 27-21 27-34 61-11 61 41 0 38-13 60-25 41-3-6 0-19 7-30 11-17 10-23-5-38-16-16-18-16-35 7-28 40-31 56-16 85 22 44 8 52-19 11z"/>
  <path d="m5563 643c-4-11 4-25 25-44 19-17 32-38 32-52 0-35 53-83 70-62 7 8 20 15 29 15 14 1 13 3-2 15-11 7-24 12-30 9-7-2-23 5-36 15-29 22-20 45 15 37 18-5 22-3 18 8-3 8-11 13-19 10-7-3-15 4-18 18-10 37-73 61-84 31z"/>
  <path d="m712 620c-12-20-7-50 9-50 14 0 10-26-6-40-21-18-19-82 4-109l18-21 7 31c4 21 1 35-9 46-20 19-19 22 8 51 21 22 21 24 4 37-13 9-16 20-12 38 8 31-7 42-23 17z"/>
  <path d="m4412 568c-20-20-14-32 26-50 20-10 52-27 70-38 17-11 32-15 32-10 0 6-4 10-10 10-5 0-10 6-10 14 0 13-76 86-90 86-3 0-11-5-18-12z"/>
  <path d="m810 535c-23-24-23-25-5-45s18-21-4-44c-18-19-19-25-8-34s18-7 32 8c20 22 33 24 55 10 13-9 12-13-8-29-31-27-19-51 24-51 38 0 39 2 22 30-10 16-10 24-1 40 11 17 9 21-22 36-43 20-50 31-34 50 10 12 9 19-7 35-20 19-20 19-44-6z"/>
  <path d="m3861 518c11-20 14-35 18-79 1-20 83-109 100-109 18 0 25 28 11 45-7 8-27 17-45 21-31 6-34 9-40 57-7 49-27 87-47 87-5 0-3-10 3-22z"/>
  <path d="m634 506c4-15 0-28-9-36-24-20-20-80 5-80 14 0 20 7 20 24 0 13 3 44 6 70 6 39 4 46-11 46-13 0-16-6-11-24z"/>
  <path d="m1124 479c-33-51-35-62-19-96 23-47 32-41 38 25 5 62-4 95-19 71z"/>
  <path d="m4957 423c-3-4-6-28-8-53-3-42-2-45 21-42 33 3 46 18 33 34-6 7-13 24-15 37-3 25-22 39-31 24z"/>
  <path d="m4546 245c-14-21-20-23-36-15-13 7-21 7-25-1-4-6-14-8-22-5-9 4-22 1-29-5-18-15 21-69 50-69 38 1 116 86 101 110-10 16-21 12-39-15z"/>
 </g>
</g></svg>