<svg xmlns="http://www.w3.org/2000/svg" viewBox="0 0 64 64" width="64" height="64"><g transform="scale(0.080000)">
 <metadata>Created by potrace 1.16, written by Peter Selinger 2001-2019</metadata>
 <g transform="translate(0 800) scale(.1 -.1)" fill="currentColor">
  <path d="m2863 7798c-11-24-52-126-93-228-40-102-79-198-86-215-7-16-26-68-44-115-55-150-83-225-85-228-1-1-28 7-58 18-31 12-59 21-62 21-3-1-22 6-43 15-20 8-71 26-112 40-41 13-90 31-108 40-19 9-36 14-38 11-6-6 83-43 201-84 55-19 103-39 106-45 4-6 20-10 35-10 68 0 76-26 37-113-17-40-20-47-22-73 0-7-6-10-13-6-6 4-8 3-5-3 7-11-6-67-27-123-8-19-28-84-46-145-18-60-39-115-47-121-8-7-10-13-3-16 6-2-3-43-24-108-19-58-42-133-52-167-19-72-22-73-119-48-224 59-489 125-498 125-24 0 4-10 98-35 55-15 123-33 150-41 28-8 62-16 77-19 15-2 56-13 91-24 35-10 84-22 109-26 70-11 73-15 55-71-37-118-121-498-114-517 3-7 8 6 12 28 16 94 116 511 126 526 8 13 371-66 377-82 2-4 9-6 16-3 19 7 390-77 398-90 9-13 9-12 13 29 7 72 129 589 144 610 4 5 8 24 10 40 2 17 6 32 10 35 3 3 7 14 7 25 2 19 34 147 39 153 2 3 81-16 200-48 111-29 252-60 300-65 22-3 4 5-40 16s-87 23-95 26-18 6-21 5c-12-2-324 79-331 86-8 8-3 27 57 232 21 69 43 145 50 170s33 106 57 180 50 154 57 178c11 41 31 58 31 27 0-8 4-15 9-15s4 13-2 29c-16 42 16 146 41 136 46-18 318-107 397-129 104-30 150-34 55-5-152 46-446 143-452 149-4 3 1 29 12 58s16 52 12 52-15-22-25-50c-10-27-23-50-30-50s-70 23-142 50c-71 28-136 50-145 49-20-1 29-23 123-55 44-15 84-32 90-38 7-6 25-12 41-13s30-4 33-7c10-9-21-87-33-82-7 3-10-2-7-14 3-10-15-78-40-152-24-73-54-167-67-208-12-41-28-93-35-115-15-46-79-269-95-332-6-24-13-43-16-43-21 0-404 125-439 143-18 9-18 8-7-6 7-8 79-37 160-63s152-54 158-61c7-8 14-10 15-4 5 13 109-20 109-35 0-7-9-41-20-76-11-34-20-69-20-77s-8-20-17-27c-10-7-13-14-7-14 12 0 11-3-41-195-30-112-46-179-91-398-12-56-20-77-29-73-8 3-31 8-52 11-21 4-74 15-118 25-44 11-114 26-155 35-70 15-162 36-305 70-33 8-71 17-85 19-55 12-55 13-7 172 26 82 49 161 53 177 3 15 10 27 16 27 5 0 6 4 3 10-3 5 5 42 18 82 14 40 35 108 48 151 13 42 27 77 32 77s6 7 3 15c-3 9 1 18 10 22 9 3 13 12 9 21-5 15 39 158 55 175 4 4 59-10 124-32 64-21 116-36 116-31 0 4-51 25-112 45-62 21-115 39-117 41-4 4 6 31 65 187 56 145 100 259 118 308 15 41 20 46 41 41 14-2 25 0 25 6s-9 8-20 5c-28-7-27-5 36 146 30 73 53 135 50 138-2 3-13-15-23-39z"/>
  <path d="m4886 7829c-4-14-39-216-51-296-4-24-11-43-15-43-5 0-6-16-3-35s4-35 1-35c-44 0-288 44-433 77-141 33-147 36-135 69 10 25 13 51 6 43-12-13-34-110-23-101 9 8 45 2 125-18 61-16 187-41 279-56 93-15 169-28 171-30 2-1-9-71-23-156-15-84-29-166-32-183-37-266-47-296-100-311-13-3-23-10-23-16 0-5 4-7 10-3 22 13 50-77 45-145-3-44-2-57 4-40 5 14 9 42 10 62 1 33 5 39 36 52 27 12 35 21 35 41 0 37 17 65 41 65 25 0 36-27 20-51-6-11-9-19-5-19 5 0 45 19 53 26 1 1-11 16-28 33-53 52-98 37-110-36-7-42-30-57-32-21-1 23-1 23-9-2-6-21-8-22-14-8-12 26-3 63 15 62 16-1 24 35 65 296 9 58 18 112 21 120s6 26 8 40c8 101 30 190 47 190 10 0 18-5 18-11 0-8 4-8 13-1 8 7 29 7 62 1 159-30 438-49 449-30 4 5-39 10-101 11-60 1-115 2-123 2-21 0-280 38-306 44-26 7-26 7 26 303 11 63 18 116 15 119-2 3-6-1-9-9z"/>
  <path d="m5444 7748c-4-51-7-109-5-129 1-23-4-42-14-53-11-10-12-16-4-16 11 0 10-35-6-205-1-16-6-104-9-195-6-150-23-388-51-720-8-99-25-331-30-430-3-58-8-125-10-150-15-163-21-357-11-368 4-3 6 13 6 35v40l83 8c108 10 103 9 169 28 32 10 68 27 81 40 12 12 16 17 7 11-17-12-80-39-95-40-5 0-35-6-65-12s-82-12-115-14l-60-3 2 60c8 228 48 768 58 786 4 5 23 9 44 9 84 0 225 52 262 96 7 8-10 1-37-16-52-32-183-70-242-70h-33l6 73c3 39 10 119 15 177s14 195 20 305c17 341 20 365 38 365 16 1 16 1 1 10-12 7-16 21-13 52 2 24 8 117 14 208s14 175 17 188c3 12 1 22-5 22-5 0-13-42-18-92z"/>
  <path d="m6694 7824c6-14 34-170 57-304 5-30 11-67 14-82 6-24 3-27-32-32-215-33-552-31-554 3 0 10-2 11-6 4-7-18-48-16-138 7-43 11-83 20-89 20-25-2 82-33 148-44l71-12 12-134c8-74 12-152 10-172-1-21 2-38 7-38 9 0 3 181-11 289l-6 54 59-8c109-14 464 1 496 21 4 3 16-1 28-8 20-13 28-58 10-58-5 0-10-7-10-15s7-15 15-15 15-9 15-20c0-23-28-27-36-5-7 16-34 21-34 5 0-12 40-35 60-35 15 0 22-33 34-160 4-46 24-180 61-410 9-62 11-92 3-96-7-5-7-8 0-10 6-2 13-29 16-60 3-30 7-62 10-70 6-16 47-354 71-584 10-88 19-162 22-165 8-8-4 159-21 295-8 66-17 149-21 184-3 35-12 109-20 165-8 55-15 108-15 117 0 13 22 20 113 33 61 9 159 26 216 37s112 18 122 16c10-3 19-1 21 4 3 9 158 42 165 35 3-2 9-35 15-73 5-37 18-106 29-153 10-47 23-114 29-150s15-83 20-105 11-58 14-80c2-22 6-47 9-55 7-17 48-282 45-285-2-1-91-12-198-24s-231-26-275-31-115-12-157-16l-78-6v42c0 24-3 41-6 37-3-3-6-21-6-40v-35l-116-8c-135-10-587-12-596-3-3 3-11 116-16 250-6 134-13 278-15 319-3 41-8 124-12 183l-6 108 24-5c13-3 70-8 127-10 56-3 107-8 112-11 6-3 10-2 10 2 0 5 37 10 83 10 82 2 268 21 276 29 3 3-40 1-95-3-129-9-468-10-515-1l-37 6 4-36c2-20 6-89 9-152s9-191 15-285c5-93 11-222 12-285l3-115-55 4c-30 2-58 7-61 12-3 6-13 7-22 4-33-13-235 44-272 77-5 4-16 8-25 8-60-2 211-100 276-100 17 0 34-3 38-7 4-5 20-8 34-9 15 0 41-1 59-2l32-2 4-92 3-93 4 180h338c205-1 344 3 354 9 25 15 27 10 40-105 13-100 13-102 18-49 3 30 3 57 0 60s-6 14-7 25-3 31-5 45c-3 24 0 25 67 32 294 28 401 39 543 58 99 13 102 12 103-48 1-52 27-201 28-163 3 70-69 529-131 836-17 83-36 186-44 230-7 44-17 96-23 115l-9 35-1-31c-1-30-2-31-73-44-40-8-82-14-93-16-11-1-27-4-35-8-42-17-422-76-432-67-4 4-9 29-12 56-2 28-6 57-9 65s-8 35-10 60c-7 68-36 278-47 339-9 47-8 56 8 67 33 23 65 54 57 54-5 0-22-12-37-27-31-30-65-20-38 12 7 8 8 15 3 15-14 0-30 125-18 145 8 12 6 19-7 26-19 11-27 99-9 99 5 0 17 3 26 6 13 5 15 2 9-20-4-16-2-26 5-27 6-1 16-3 21-4 6-1 13-3 17-4 4 0-2-8-13-16-20-15-8-21 15-6 20 13 6 41-21 41-13 0-18 4-12 8s14 16 17 26c7 17 4 18-36 13l-44-6-12 77c-7 42-19 109-26 147-7 39-19 100-25 138-7 37-17 67-22 67-6 0-7-7-4-16z"/>
  <path d="m7300 7836c0-2 4-16 10-30 18-49 138-529 184-741 42-193 61-289 126-630 22-115 47-244 54-285 8-41 24-129 35-195 10-66 25-151 31-190 6-38 15-104 20-145s20-165 34-275 26-201 26-202c0-2 4-3 9-3s5 16 1 38c-5 20-14 84-20 142s-18 151-26 208c-19 141-20 137 24 150l37 11-37-5c-46-6-42-15-67 156-12 80-28 177-36 215-13 62-31 161-81 435-8 41-16 81-19 88-5 15-11 13 127 43 60 13 108 28 108 33 0 4-7 5-16 2-30-11-168-39-199-40-29-1-29 0-41 69-27 162-79 402-145 674-23 90-37 167-32 170 10 10 218 72 229 70 5-1 29 7 54 18s66 25 93 33c26 7 50 17 53 21 7 12 11 13-96-22-52-17-102-33-110-34-8-2-64-19-125-39-60-19-111-34-113-32-15 16-12 79 4 99 17 20 17 20 1 7-24-18-29-11-57 96-17 67-40 118-40 90z"/>
  <path d="m4145 7175c-4-22-16-83-27-135s-23-113-28-135c-4-22-22-107-39-189-18-82-30-156-28-165 3-9 5-3 6 13 1 27 3 28 34 22 82-18 273-46 382-57 100-10 123-15 139-33 15-17 18-17 13-3-4 9-2 17 4 17s13-9 16-20 10-20 15-20c6 0 8 7 4 15-4 10 1 15 14 15s20-7 20-20c0-11-4-20-8-20s-6-16-4-35c3-21 0-35-7-35-6 0-8-11-4-30 5-30-10-43-20-17-4 9-6 9-6 0-1-6 4-15 9-18 6-3 10-25 10-47 0-48 12-44 14 4 1 17 7 33 15 36 9 3 11 0 5-9-6-11-4-11 10 0 15 13 19 13 27 0 16-24-2 42-21 76-12 20-16 44-13 73l5 43 37-5c20-3 82-11 139-18 84-10 106-16 114-32 12-22 5-27-80-62-52-22-52-22-63-2-6 11-13 18-15 15-3-3 7-28 21-56 27-51 41-67 31-33-5 14 51 62 59 50 48-72 69-84 95-53 15 18 7 71-14 94-7 9-17 26-20 39-9 27-8 27 129 7 55-8 127-14 160-14l60 1-60 9c-33 4-105 13-160 19s-145 17-200 25-127 17-160 21c-133 15-132 15-143 44-6 17-9 17-27 3-19-14-19-14-1-11 10 2 21-3 24-11 2-8 0-11-6-8-5 4-45 9-88 12-106 7-458 59-472 70-2 2 21 119 45 228 3 15 9 27 14 27s6 7 2 16c-3 8 1 43 10 77 26 106 49 235 44 249-2 7-8-5-12-27z"/>
  <path d="m355 6191c-28-6-33-14-68-116-43-127-47-133-82-117-31 14-48 15-41 3 3-5 23-12 43-15 21-4 57-14 80-23 23-8 47-13 54-11s-8 10-34 17c-57 16-56 11-12 139 4 10 13 7 36-12 89-75 207 31 131 119-22 26-46 29-107 16z"/>
  <path d="m3026 5770c-9-47-24-116-32-155-7-38-23-114-34-168s-20-109-20-123c0-23-3-25-25-20-14 4-46 9-73 13-26 3-52 10-58 14-6 5-13 6-16 3s-43 2-89 11c-182 35-336 66-369 75-53 13-198 46-360 80-213 46-593 141-608 153-8 6-12 21-9 34 2 13 0 23-4 23-5 0-9-9-9-20s-7-20-15-20-15-8-15-17c0-14 2-15 9-4 15 24 23-7 9-36-8-17-23-29-38-31-14-2-29-8-35-14-7-8-4-9 8-4 10 3 40 6 65 6 34 0 43 3 32 10-12 8-11 10 7 10 16 0 21-4 17-15-4-10 0-15 14-15 30 0 33-12 16-63-13-37-19-44-37-41-16 3-13 0 8-10 17-9 37-16 45-16 10-1 9-4-5-9-13-5-19-17-20-37 0-25-4-29-28-30-70-3-60-82 10-87 23-2 28 2 25 19-1 11 6 48 17 82 15 51 16 63 5 72-8 8-10 19-5 33 31 83 31 85 0 92-16 4-29 10-29 15s24 2 53-6c28-8 69-19 90-25 25-7 35-14 30-22-4-8-1-7 10 1 9 8 22 10 29 6 9-4 10-4 3 3-5 6-62 22-125 37-151 36-150 36-150 47 0 15 36 10 158-22 64-17 144-37 177-44s141-32 240-55c362-83 621-138 770-165 50-8 138-25 197-36s117-19 130-16c20 4 20 4-5 6-47 2-47 1 34 389 17 79 29 151 27 160s-12-21-22-68z"/>
  <path d="m750 5799c14-6 48-16 75-24 28-7 93-25 145-40 52-14 102-28 110-29 15-3 16-6 7-29-4-9-8-9-14-1-4 6-30 14-58 18-35 5-46 4-35-3 8-6 25-11 38-11s22-6 22-16c0-8 5-12 10-9 14 9 80-42 80-60 0-8 7-18 15-22 12-7 12-21-6-103-29-135-31-150-14-107 8 21 19 65 25 98 13 69 28 114 36 107 5-5-22-136-62-310-9-37-14-73-12-80 3-7 8 4 12 25 8 43 4 42 93 21 37-9 77-18 88-20s63-13 115-24c177-38 302-61 313-57 7 2-15 9-48 16-33 6-100 20-150 30-49 11-159 34-242 52-131 27-153 35-153 50 0 11 3 19 8 19 4 0 7 15 8 33 0 38 29 173 45 214 7 15 13 39 15 53 3 23 2 23-10 7-17-22-50-11-85 27-31 33-19 47 13 17 33-31 85-19 59 14-9 12-17 16-20 9-4-13-40-7-60 8-6 5-9 16-6 24s0 14-7 14-10 7-6 16c5 14 4 15-8 5-14-12-23-10-251 54-92 25-129 32-85 14z"/>
  <path d="m3855 5640c-9-58-23-147-32-197-8-51-13-98-10-105 5-15 9 4 42 221 14 90 26 165 27 167 2 1 37-4 78-11 120-20 222-36 260-40 19-3 55-6 80-9s90-12 145-20c55-9 104-16 109-16 4 0 5-33 2-72-11-124-16-147-34-151-15-4-15-5 1-6 18-1 17-74-1-246l-7-60-55 4c-30 1-58 5-62 8-4 2-49 6-100 9-51 2-144 11-206 19-105 14-190 19-167 9 74-29 1312-117 1284-90-2 2-112 9-244 15-391 18-435 22-435 37 0 8 3 14 8 14 4 0 6 18 4 41-2 22-1 78 3 124 7 82 7 83 38 93l32 11-32-5c-31-5-46 10-27 28 3 3 7 50 10 104 3 55 9 102 13 107 4 4 52 1 107-7 117-17 243-31 263-29 8 1 22-8 33-20 12-15 16-17 12-5-6 17 50 18 209 3 31-3 57-2 57 3s-51 12-112 16c-166 10-216 14-398 37-91 12-183 23-205 25s-49 6-60 8c-12 3-81 12-155 21s-137 19-140 23-34 8-70 9-106 11-156 21l-92 18-17-106z"/>
  <path d="m3690 5170c0-5 7-10 15-10 12 0 12-3-2-18-12-13-22-16-30-9-10 7-13 1-13-27 0-20 5-36 10-36 6 0 10-5 10-10 0-7-6-7-19 0-11 5-22 10-26 10-10 0 59-56 79-64 17-6 18-14 12-79-4-39-10-75-14-79-7-6-54-1-362 38-69 8-179 22-245 30-227 29-207 20-199 91 4 32 4 55 0 52-4-4-8-21-8-38-1-18-5-34-9-37-5-2-5-12-2-21 6-14 0-15-43-9-86 12-169 18-163 12 8-9 28-12 117-21 45-4 75-12 78-20 3-7-11-145-30-307-20-161-40-348-44-415-5-68-11-126-14-129-4-3-62-1-130 5-68 5-174 13-236 17-85 5-115 10-119 21s-8 12-13 3c-6-9-45-9-171 0-212 15-197 9-188 73 4 28 8 82 8 119 1 37 5 69 11 73 5 3 7 12 4 20-6 14 10 148 41 355 8 52 17 116 20 141 5 37 11 48 28 54 20 6 20 8 3 12-14 4-17 11-12 35 3 17 6 37 6 45 0 15 20 14 64-3 9-3 16-2 16 3 0 10-33 18-195 49-87 17-201 29-160 17 11-3 74-16 140-28l120-22-3-39c-2-26-11-45-25-56-20-16-20-18-4-18 15 0 17-6 13-27-3-16-12-75-20-133-9-58-23-151-31-208-8-56-15-120-15-141s-2-40-5-43-8-42-10-87-7-102-11-127l-6-45-67 6c-36 4-124 13-194 21-71 8-154 13-185 13-71-2-56-5 88-18 63-6 170-16 238-22l123-12-6-61c-4-34-13-119-21-189-8-71-13-157-13-190 2-68 16 48 39 303 6 68 12 126 14 127 4 5 338-17 347-22 3-3 51-7 105-10 155-7 393-28 404-35 15-9-8-392-24-402-8-6-7-10 2-17 8-5 12-22 10-42-3-29-6-34-25-31-13 2-23-2-23-7 0-6 7-11 15-11 20 0 19-8-6-69-27-64-32-64-54 5-15 47-15 58-4 65s9 9-6 9c-11 0-38 3-60 6-40 7-42-10-1-18 18-3 50-68 65-133 11-46 30-36 58 30 41 99 45 93 40-67-2-82 0-148 5-148 4 0 8 72 8 160v160h26c15 0 23 4 19 10s-14 9-23 8c-18-3-19 165-3 397l6 90h35c63-1 274-16 281-21 4-2 49-6 101-8 338-16 392-18 388-13-5 4-50 8-315 23-83 5-113 10-122 22-8 10-13 11-13 4 0-13-110-10-279 6l-74 7 2 75c2 76 8 141 36 370 8 69 20 172 26 230s15 113 20 123c5 9 6 29 3 44-7 26-6 26 32 19 21-3 77-11 124-16 47-6 128-16 180-24s172-22 265-31c215-21 218-22 213-80-2-25 0-45 4-45 5 0 8 19 8 43 1 56 25 215 35 225 8 8 1-109-21-328-50-510-105-1493-82-1470 3 3 8 97 11 210 14 446 18 499 41 517 16 12 17 14 4 10-15-5-18-1-18 24v31l68-8c89-10 201-11 195-1-2 4-14 7-26 8-19 1-18 2 8 14 17 8 25 14 18 15-7 0-28-7-47-17-29-14-49-15-123-7l-88 9 2 35c18 299 25 395 33 450 5 36 10 89 10 119 0 43 3 52 15 47 13-4 13-2 5 14-6 11-8 47-4 90 7 66 9 71 28 66 60-14 387-43 661-59l40-2-2-90c-1-49-9-216-17-369-9-154-16-292-16-308v-28l-445 8 438-21-7-191c-4-129-3-186 4-176 5 8 10 54 10 101s3 126 6 175l7 89 171-3c139-3 174-7 189-20 17-15 17-15 11 3-7 17 1 18 187 12 107-4 200-7 207-7 19 0 13-267-6-286-8-8-9-14-3-14 8 0 11-61 11-190 0-152 3-188 13-184 7 2 22-4 32-16 10-11 15-20 11-20s-1-7 8-15c16-16 76-21 76-6 0 5-9 7-19 4-13-3-29 4-45 21-30 29-32 36-11 36 8 0 15-5 15-11 0-8 5-7 16 2 14 11 20 8 45-21 36-41 47-36 16 8-21 30-25 32-86 32h-64l6 218c4 119 7 267 7 328v112l88 7c48 4 116 13 152 21s72 16 80 17 21 9 27 17c16 19 36-5 27-32-3-10 0-18 6-18 8 0 10 11 6 34-5 28-3 37 15 49 11 8 28 26 36 39 12 18 9 16-12-6-58-59-215-106-356-106h-70l5 58c3 31 8 158 12 282 5 192 8 226 22 238 16 13 16 13-1 8-16-5-18 2-15 87l3 92 30 1c121 3 295 39 310 64 4 6 9 8 13 6s15 7 25 20c16 21 16 23 1 17-22-8-2 31 24 47 16 11 16 11 0 6-20-6-22-2-9 22 4 9 12 35 15 56 7 35 6 38-8 27-8-7-20-10-26-6-5 3-10-1-10-9 0-10 6-13 15-10 20 8 19-12-5-65-11-24-20-54-20-67 0-25-60-64-100-64-23 0-24 8-8 61 9 30 16 39 33 39 15 0 27 10 38 31 15 32 13 48-12 113-6 16-10 30-9 31 2 1 21 12 44 23 22 11 47 29 55 39 13 17 13 17-11 0-14-9-44-27-67-39-35-18-40-24-30-39 13-20-2-40-66-91-37-29-39-30-52-12-21 27-17 5 5-36 11-19 19-28 20-19 0 14 39 49 55 49 11 0 4-27-16-69-12-26-18-53-15-66 5-20 1-24-24-29-17-3-43-9-59-12s-32 0-36 6c-3 5-11 7-17 4-6-4-28-9-49-11l-38-5 5 79c3 43 5 86 5 96 0 9 4 15 9 12s4 8-1 25c-14 38-7 57 23 63 13 2-42 5-121 5-79 1-235 8-345 17-470 37-691 56-792 70-59 9-109 13-112 10-10-10 80-22 333-46 66-7 127-13 135-15 8-1 33-3 55-3l41-1-4-97c-2-54-8-102-12-107-4-4-4-21 0-36 5-16 6-30 4-32s-65 1-141 8c-76 6-208 17-293 23-85 7-188 17-227 23l-72 10 5 62c3 33 10 76 16 94 8 25 7 37-2 45-10 9-12 7-7-10 4-18 1-23-13-23-36 0-72 23-67 42 3 10-2 22-11 27-20 11 1 43 27 39 10-2 17 5 19 20 2 12 9 22 15 22 19 0-16 20-35 20-10 0-18-4-18-10zm1045-140c55-5 174-12 265-16s171-11 178-17c8-6 12-6 12 0s17 10 38 9c33-1 37-4 40-29 2-16-3-36-10-45-7-8-8-13-2-10 8 6 12-61 4-82-1-3-1-27 0-53l2-48-164 2c-90 2-257 10-373 18l-210 16-3 95c-2 52 0 114 3 138l6 42 57-5c31-3 102-9 157-15zm-50-284c164-14 495-27 534-21l44 7-6-234c-4-128-10-302-14-385l-6-153h-202c-143 0-204 3-213 12s-12 9-12-1c0-13-298-9-333 5-19 7-12 214 8 228 11 8 11 12 1 20-10 9-10 47 0 191 7 99 13 215 13 257 1 87 3 89 76 83 28-3 77-7 110-9z"/>
  <path d="m6247 5038 31-10 4-127c2-69 2-129-1-133-8-9-172 9-244 28-34 9-105 37-157 62-120 59-114 57-105 43 9-16 165-88 239-111 32-11 108-25 167-31l108-13 3-174c3-165 2-175-17-189l-20-14 20 3c19 3 20-4 26-192 3-107 3-198-1-202-7-9-217 9-234 19-5 4-26 8-46 9l-35 3 35-15c19-9 52-17 75-19 22-2 79-6 127-10l87-7 4-121 3-122 4 240 183 1c100 1 273 5 384 9l202 6 8-86 1 43 2 43 134-2c74 0 140 2 147 7 8 5 10 2 6-8-5-14-3-15 21-2 37 19 79 19 63 0-8-10 0-8 26 4 44 21 203 33 208 16 2-6 6-24 10-40l6-29 16 22c8 12 12 25 9 28-3 4-6 0-6-8 0-12-2-12-9 0-12 19-3 41 14 35 19-8 27 12 10 26-10 9-15 9-15 1 0-6-4-11-10-11-5 0-10 13-10 29 0 35-13 46-30 26-9-10-9-15-1-15 6 0 11-9 11-20 0-17-7-20-47-21-27 0-66-2-88-4-83-8-195-15-326-21l-135-7-12 353c-7 194-17 360-22 369-5 10-7-10-5-54 9-154 27-657 23-660-2-2-175-7-384-11l-381-7-7 104c-4 57-6 158-6 224 1 66-1 195-5 286l-8 167 99 7c140 9 147 14 20 12-61 0-111 3-112 9-1 5-4 63-7 129l-4 120 141-1 141-2-134 8c-74 5-155 11-180 14-42 5-44 4-14-6z"/>
  <path d="m1939 3616c-5-5-76-14-134-17-22-1-31-3-20-6 29-7 40-20 28-35-5-7-24-48-43-90-30-72-35-78-62-78-17 0-27-4-23-10s10-8 15-5 11 1 14-4c8-12 66-5 80 9 8 8 6 9-5 5-26-10-31 10-13 54 14 37 20 41 50 41 29 0 34-3 34-24 0-14 5-28 10-31 15-9 12-25-6-25-13 0-15-14-14-87 1-49 1-93 1-100-1-7-20-14-43-16l-43-4 43-1c23-1 42-6 42-12 0-16-81-12-100 5-13 12-80 15-403 16-214 2-401 5-418 7-34 5-38 19-6 25 22 4 22 4 0 6-16 1-23 9-26 29-3 19-4 14-6-15-1-42-21-63-21-22 0 11-4 18-10 14-5-3-7-12-3-21 5-13-10-15-106-13-67 1-111 5-111 11s-6 6-14-1c-11-9-75-11-243-8-125 3-216 3-200 0 15-2 27-9 27-14s-12-10-27-11c-81-4 153-16 354-17 182-1 232 2 230 12-1 8 13 13 42 15 51 4 82-5 63-17s126-21 326-21c112 0 172-4 172-10 0-7-82-10-248-8l-248 3 3-50c1-27 5-144 7-260 6-230 18-427 40-635 8-74 21-196 28-270 10-106 14-125 18-90 3 25 2 55-2 67-4 11-9 62-12 111l-6 89 38 7c47 9 152 18 532 47 80 6 188 14 240 18s100 6 106 4 14-42 17-91c13-167 20-238 37-357 10-67 18-102 19-80s-5 90-13 150c-17 129-36 319-36 358 0 23 4 27 28 27 15 0 119 6 232 14s257 17 320 20c63 4 158 9 211 12l96 6 6-39c16-102 20-333 6-333-10-1-9-4 3-11 23-13 24-119 2-119-8 0-14-4-14-9s9-7 19-4c15 4 19 0 19-19-1-12 4-59 11-103 6-44 13-97 16-117 7-48-6-48-27 0-9 20-17 29-17 20-1-10-12-20-25-24-53-13-51-81 3-109 17-8 31-20 31-25 0-6 7-10 15-10 22 0 18-27-4-40-25-13-74 7-67 27 7 17-41 17-158-1-50-8-145-23-211-33-66-9-112-19-103-21s50 2 90 8c40 5 125 17 188 25s127 17 142 21c22 4 29 0 42-25 9-16 20-32 25-35 13-8 70 26 76 45 11 34 122 56 375 74 25 1 61 5 80 9 19 3 91 11 160 16 69 6 148 13 177 16l51 7 6-44c11-81 16-239 7-239-58 0-278-27-489-61-93-14-295-39-298-36-2 2-11 61-20 132-10 71-19 124-22 117-2-7 2-59 8-115 7-56 13-111 14-122 1-18-9-21-84-31-47-7-148-22-224-34-77-12-147-19-158-17-10 3-16 2-13-3 2-4-39-15-93-23-53-9-133-23-177-31s-83-11-86-7c-5 5-20 81-56 283-4 25-1 27 39 33 24 3 84 12 133 20l90 14-85-5c-47-3-105-10-129-15-56-12-60-7-63 71-3 53 0 64 12 62 12-3 11 0-2 15-9 10-21 30-27 43l-10 25v-27c-1-21-6-28-20-28-10 0-25-8-32-17-15-18-14-17 39 4 6 3 12 0 12-6s-11-16-24-21-28-15-32-22c-6-10-4-10 9 1 9 7 17 10 17 5 0-4 5-3 12 4 18 18 28 14 27-10 0-13 3-41 6-64l7-41-78-16c-44-9-99-19-124-22s-74-12-110-19c-131-28-206-40-232-38-16 0-28-3-28-7 0-17 50-17 117 0 55 14 378 74 442 82 16 2 17-2 52-190 13-68 21-124 18-127-2-2-29-7-59-11l-55-7 28 29c15 16 27 33 27 38 0 4-12-5-26-20-33-35-106-32-135 6-25 33-25 95 0 109 29 15 71 12 77-5 7-18 25-20 19-2-25 70-26 72-36 55-5-9-23-19-40-23-46-10-69-41-69-94 1-65 34-100 97-102 25 0 26-1 8-9-31-13-6-12 65 5 196 44 707 127 1145 185 39 5 147 21 240 35 94 14 215 29 270 32 116 7 137 14 130 46-14 63-64 822-72 1090-3 108-8 197-12 197-7 0-4-321 3-385 4-35 32-463 39-585l2-45-75-8c-217-23-366-32-371-24-4 5-8 4-10-2s-46-16-99-22c-52-5-131-14-174-19-44-6-81-9-83-7-4 5-32 245-38 332-2 39-9 108-14 155s-12 154-16 239l-8 153 44-2c24-2 51 0 59 3 14 5 75 9 370 22 344 15 320 15 320-8 0-12-7-31-15-41-8-11-15-34-15-50 1-28 2-29 14-13 8 10 20 16 27 15 12-3 13 33 4 107-1 11-3 28-4 38-1 15-4 16-23 6-22-12-22-12-3-19 11-4-56-10-150-14-165-6-421-21-558-32-79-6-75-12-79 114-2 76 0 92 12 92 9 0 11 3 5 8-16 12-20 32-21 139-1 56-4 105-7 110-2 4-4 94-3 198l1 190 270 10-140 5c-77 3-147 2-155-2-10-5-11-7-2-8 10 0 13-46 12-212 0-117 3-233 6-257 5-31 3-45-7-52-10-6-11-11-3-16s14-66 19-164l7-155-268-12c-148-7-314-17-369-22s-136-10-180-12l-80-3-3 49c-2 32 1 52 10 57 8 5 9 9 2 9-6 0-10 11-9 25 2 14-1 27-6 31-5 3-9-33-9-85 0-80-2-91-17-91-27 0-409-29-588-44-88-8-169-14-180-13-11 0-48-3-82-7-62-8-63-7-63 16 0 12-9 127-20 253-11 127-23 342-27 478l-6 248 374-4c206-3 419-5 475-5l101-1 8-283c5-156 9-318 10-360 0-42 4-81 9-85 4-4 4 118 0 272s-7 318-7 365l1 85 169-1c92 0 280-1 417-3 136-1 251 0 254 4 3 3-39 6-94 7-54 1-112 2-129 3-16 1-60 2-97 3-41 1-68 6-68 13s40 10 125 7c69-2 125 0 125 5 0 4-13 7-30 7-16 0-30 5-30 10 0 6 18 10 41 10 32 0 40-3 35-15-4-12 6-15 52-17 134-5 249-2 236 5-27 15-14 27 32 27 35 0 45-3 41-14-6-16 121-30 138-15 5 5-2 9-18 9-15 0-27 5-27 10 0 13 77 13 84 1 4-5 0-11-6-14-26-8 144-16 393-17 141 0 291-2 332-3 61-2 72 0 59 9-21 16 1 27 42 22 33-4 35-21 4-30-14-3 2-6 40-7 65-1 85-17 30-24-18-2 39-4 127-3 137 0 142 1 38 3-118 3-165 17-85 26l37 4-37 1c-38 2-51 18-23 28 40 16-2 19-210 17l-225-2-2 197-3 197-2-194c-2-123 0-198 7-205 19-19 10-26-35-26-52 0-61 17-12 23 17 2-6 5-53 7-47 1-98 4-114 6-15 1-26 0-22-3 3-3 15-6 27-7 42-2 34-26-9-26s-56 8-42 25c7 8-105 12-453 14-254 2-514 5-577 7-63 1-197 3-297 3-115 1-183 5-183 11s10 10 23 10c20 0 23 4 19 35-3 21 0 35 7 35 24 0 9 19-16 22-24 3-28 8-28 33 0 27 4 31 40 36 22 3 34 7 26 8-7 0-11 7-8 15s2 16-3 18c-18 6-23 58-6 58 9 0 16-7 16-15s4-15 9-15 4 16-2 35c-8 28-13 33-19 20-19-33-48-11-48 36 0 10-4 19-10 19-5 0-10 7-10 15 0 26 78 20 101-7 13-16 18-19 18-8 0 18-23 62-30 56z"/>
  <path d="m695 3568c-56-31-71-95-34-154 28-47 103-50 144-7 72 78-19 212-110 161z"/>
  <path d="m2293 3558c-35-9-73-50-73-79 0-33 31-98 50-104 11-3 29-22 40-41 34-54 93-72 136-39 17 13 16 14-18 8-31-5-41-1-62 22l-26 28 40 37c43 39 49 66 28 117-6 15-10 33-9 38 2 6 0 7-4 3-4-3-21-1-38 6-22 9-42 10-64 4z"/>
  <path d="m3853 3520c-37-22-48-54-39-105 16-84 131-104 176-30 28 46 25 78-11 120-37 41-76 46-126 15z"/>
  <path d="m6318 3353c3-173 3-176-17-170-12 3-19 1-15-4 3-5 12-9 20-9s14-7 14-15c0-11 12-15 53-15 37 0 48 3 37 10s-5 10 23 10c38 0 52-15 20-22-10-2 13-4 52-5 38-1 162-6 275-12 380-20 740-22 740-6 0 10 11 15 35 15 39 0 48-16 13-23-13-2 43-5 125-6 141-1 147 0 147 19 0 18-7 20-57 20-32 0-124 2-205 4-141 3-148 2-148-16 0-16-6-19-37-16-50 4-55 26-6 31 21 2-33 4-120 5-121 2-156-1-155-10 4-16-61-23-75-9-8 8-3 11 18 11 15 0 26 2 23 5-7 7-115 12-451 20-141 4-265 8-275 9-15 3-17 19-19 157-2 147-1 155 20 172 16 13 17 16 4 11-9-3-23-1-30 4-10 9-12-23-9-165z"/>
  <path d="m5789 3337c18-23 9-32-18-17-12 6-21 9-21 6 0-2 43-26 95-51 90-45 120-65 95-65-6 0-29 9-51 21-23 11-43 19-45 17s29-20 69-41c80-40 152-61 302-87l100-17-4-239c-2-161-7-241-15-246-8-6-7-8 2-8s12-33 12-131v-131l-44 6c-68 10-274 64-299 78-12 7-24 13-27 13-18 4-100 50-100 57 0 4-6 8-12 8-7 0-33 10-58 22-60 28-82 30-70 7 6-9 10-166 11-351 0-183 4-342 8-352 4-11 7 138 7 331-1 193 2 355 7 359 10 10 177-78 170-90-4-5 0-6 7-1 7 4 15 3 19-3 3-6 20-13 36-16s41-10 55-16c40-16 232-60 263-60h28l-3-112-3-113-26-3c-94-11-97-152-4-196 64-31 150 40 130 106-12 36-43 76-66 83l-21 7 6 490c4 269 9 495 12 502 4 9-12 15-55 19-70 8-195 32-268 53-46 13-53 18-53 40 0 24 3 25 27 19 36-9 41-14 23-25-10-6-2-11 26-19 49-13 120-24 86-13-20 6-32 22-17 22h30c15 0 25-6 25-14 0-20 6-22 65-29 28-3 42-3 33-1-10 3-18 9-18 14s8 10 18 12c9 2-28 12-83 22-119 22-199 43-239 63-22 11-30 12-36 3s-13-9-29-1c-28 15-27 34 2 27 12-3 2 3-23 14-24 12-51 26-60 33-13 11-13 10-1-6z"/>
  <path d="m5617 3245c-81-55-159-73-364-85-100-5-188-8-195-6-31 10-472 16-458 7 27-19-2-31-50-22-42 7-42 10 0 24 8 3-17 6-57 6-60 1-71-1-67-14 5-11-1-15-25-15-21 0-31 5-31 15 0 11-11 15-40 15s-40-4-40-15-11-15-41-15c-32 0-40 3-35 15 4 12-4 15-38 15-25 0-53 3-63 6-17 5-17 5 0-6 9-6 17-18 17-25 0-12 25-15 143-16 78 0 196-2 262-4 697-22 940-13 940 34 0 8 12 18 28 22 33 9 37-8 5-21-15-5-17-9-7-9 44-2 155 69 161 104 3 14 5 25 4 24 0-1-23-16-49-34z"/>
  <path d="m6445 3100c22-5 180-12 350-16 171-4 312-8 314-11 7-5 8-554 2-678l-6-110-105 3c-58 2-117 5-132 8-16 3-28 1-28-4 0-6 58-13 133-17l132-7-3-111c-2-62-7-114-11-117s-1-16 7-30c13-23 13-23 9-3-3 13-1 26 4 29 6 3 7 15 4 26-4 10-4 62 0 115l8 96 211-7c116-3 279-8 361-11 95-3 137-1 115 4-36 9-343 21-560 21h-125l3 397 3 398 157-4c86-2 155-1 152 2-3 4-183 11-400 16-217 6-449 13-515 15-81 3-107 1-80-4z"/>
  <path d="m3932 2544c-18-12-22-25-22-64 0-63-14-70-53-27-29 32-98 63-82 37 3-5 12-10 19-10 20 0 59-47 53-64-4-9-11-16-17-16-5 0-10-4-10-10 0-5 11-10 25-10 20 0 25-5 25-24 0-49-8-56-71-56-56 0-60 1-58 23 4 39-1 67-10 67-14 0-23-33-10-40 20-13 6-55-18-54-21 1-23-3-21-50 1-49 2-49 5-10 4 38 7 42 31 42 15 0 49 3 75 6 33 4 46 2 41-5-4-8-1-8 12-1 30 16 199 23 214 9 9-9 14-9 17 0 3 7 46 12 131 13 70 1 150 3 177 4l50 1 3-52c3-49 1-53-28-68-18-9-30-19-27-22 3-2 14 0 26 6 28 15 28 16 35-179 3-96 9-236 12-311 6-127 5-136-12-143s-17-9 6-18l25-10-29-11c-21-7-31-7-34 1-2 6-14 7-35 2-18-4-84-11-147-14-63-4-173-13-245-21-71-8-155-15-186-15-67 0-64-4-75 138-4 50-10 92-15 92-4 0-6-15-3-32 2-18 13-136 24-262 12-127 23-232 25-235 3-2 60 1 127 7 68 6 191 17 275 23 84 7 150 16 148 19-3 4-19 6-37 4-213-21-501-45-503-42-7 7-27 260-21 266 3 3 59 9 124 14 64 4 149 12 187 17 59 8 72 6 83-7 10-14 12-14 12-1 0 9 6 16 13 16 6 1 44 4 82 8 65 6 68 5 51-9-17-13-17-16-4-16 9 0 23 7 32 15 10 10 35 15 80 15h66l1-72c0-40 4-99 8-131 8-66 11-64-94-71-80-5 135 2 420 14 127 5 266 10 310 11s68 4 53 6c-16 2-28 9-28 15 0 7-4 7-12 1-7-6-119-13-248-17-129-3-267-9-307-12l-71-6-6 43c-3 24-7 85-9 134l-2 90 140 7c109 5 316 14 410 18 6 0-1 6-15 13s-27 10-30 6c-11-14-502-32-511-18-4 7-3 19 2 25 6 7 6 15 1 18s-12 115-16 248c-4 134-9 262-12 286-5 53 8 54 31 1 15-33 16-44 7-60-15-24-19-25 63 16 39 19 76 35 84 35s11 6 7 16c-3 9-6 27-6 40s-4 24-10 24c-5 0-10-13-10-29 0-32-42-74-69-69-26 5-49 56-31 68 11 7 19 5 27-7 21-27 25-8 6 26-20 34-32 40-29 14 2-31-30-26-44 7-7 17-11 32-9 33 27 19 56 23 77 9 26-17 29-6 6 26l-15 22-37-25c-49-33-52-32-52 19 0 34 4 46 18 50 31 9 167 5 180-6 8-7 12-7 12 1 0 14 37 15 45 1 4-7 12-7 25 0 39 21 45 14 102-103 7-14 3-20-21-28-17-6-31-15-31-20 0-13 12-11 45 9 17 10 52 27 78 37 54 21 77 46 77 88v28l93-1c50 0 107 2 125 6l32 6 1-53c0-30 3-155 7-279s7-277 7-340v-115l-93-7c-132-9-129-20 3-14 87 5 110 9 109 20-1 8-4 166-8 353-4 186-9 359-12 386l-6 47h39c21 0 67 5 103 11s74 12 85 13c20 3 32 8 106 39 39 16 109 73 109 89 0 5-22-10-50-35-49-44-128-76-152-61-6 4-8 3-4-4 7-12-15-18-138-32-98-12-113-8-76 20l25 19-30-2c-27-2-32 3-59 57l-29 60 24 19c28 23 26 22-58-18-35-16-63-33-63-37 0-12 8-10 35 8 24 16 24 15 59-55 21-41 32-73 26-76s-53-8-106-10l-96-4-33 35c-35 37-72 44-111 21-99-58-94-56-248-56h-146l-1 27c-1 15-3 40-5 57-2 16 2 33 9 37 8 5 5 8-9 8-11 0-26 6-34 13-12 10-12 9-1-5 7-10 10-18 6-18s-2-7 5-15c6-8 9-19 6-24-4-5-2-12 4-16 5-3 10-19 10-35v-28l-122-4c-75-2-126 1-130 7-5 6-8 6-8-1 0-6-18-11-39-11-31 0-38 3-34 16s3 14-5 2c-9-12-207-36-220-26-1 1 1 23 4 49 9 60 27 68 64 27 23-25 37-31 67-31l38 1-38 13c-70 25-84 51-44 80 22 17 22 17-10 12s-33-4-33 29c0 22 8 43 20 55 24 24 14 26-18 4z"/>
  <path d="m6299 1819c0-35 0-105 1-156 1-83-9-120-25-93-3 5-17 10-31 10-16 0-24 6-24 17 0 15-1 15-13-2-10-13-16-15-21-6-4 6-11 9-16 6-14-9-184 44-197 61-6 9-16 13-22 10-19-12-101 37-108 63-6 23-7 24-13 6-4-11-5-28-2-38 6-22 122-83 131-69 4 6 42-1 96-18 50-16 113-33 140-38 28-6 62-13 78-16 27-6 38-38 17-51-6-3-6-15 0-29 5-13 7-26 4-29-8-8-10-168-2-173 4-3 8 24 8 60 0 56 3 66 18 66 10 0 13 3 6 8-6 4-12 16-13 27-3 25-1 108 2 111 1 1 34-5 72-13 39-8 100-18 138-21 37-4 68-11 68-17 1-12-122-76-133-69-13 8-9-11 13-60 32-74 99-85 115-21 3 14 10 22 15 19 34-21 67 58 35 85-8 6-16 21-19 33-6 20-3 20 66 15 40-4 143-9 230-13l159-7-4-68c-2-38 0-69 5-69 7 0 11 48 7 109l-2 33 159-7c87-4 237-12 333-19s182-10 190-7c20 7-242 27-479 36l-193 8 5 191c5 196-4 156-18-76-6-110-18-148-28-95l-4 22-2-22c-1-22-4-23-68-19-38 3-135 8-216 11-134 7-149 9-162 28-14 20-15 20-15 3 0-21-57-18-187 9-38 8-71 15-75 15-5 0-8 70-7 156 0 86-2 158-5 162-3 3-6-24-7-59z"/>
  <path d="m4609 1196c-5-4-166-15-226-16-24 0-43-3-43-7 0-5 34-7 75-5s75 0 75-5c1-48 27-380 35-448 2-16 4-36 4-43 1-10 4-10 15 0 8 7 11 15 7 18-10 7-34 221-26 229 4 3 47 6 96 6 59 0 89 4 89 11 0 6 3 27 6 45l6 34-20-31c-13-20-31-33-53-38-37-7-49 4-49 47 0 29 9 34 28 15 9-9 12-4 12 26 0 22-4 35-10 31-5-3-10-13-10-21 0-26-17-14-24 17-8 40-1 49 33 49 18 0 34-8 43-22 15-22 15-22 10 10-4 32-5 32-51 27-114-13-126-12-129 14-2 13 0 27 5 32s131 12 279 16c148 3 271 7 273 9s-97 4-221 4c-123 0-227-2-229-4z"/>
  <path d="m3545 1103c-46-4-316-42-515-73-74-11-182-27-240-35-416-56-867-139-1230-225-113-27-249-59-303-71-53-12-97-27-97-33 0-17 48-187 54-194 10-10 6 15-13 79-27 90-30 108-22 113 6 4 195 49 247 59 11 2 27 7 37 12 28 12 34-4 9-24-13-9-20-20-16-24 10-10 26-9 20 2-3 5 13 16 36 26 23 9 54 25 68 35 23 16 267 75 432 104 42 8 44 6 53-55l7-47-51-13c-28-7-51-16-51-20s9-5 20-2c15 4 20-1 25-23 4-16 11-42 16-58 14-45 11-62-13-74-23-10-23-11 4-11 15-1 39 4 53 11 33 15 34 13 56-94 10-51 26-117 35-146s15-54 13-56c-8-7-320-76-363-80-12-2-31-8-42-15-27-17-22-16 311 57 99 22 98 23 115-31 16-51 24-40 10 13-6 23-10 43-8 45 2 1 46 11 98 23s169 37 260 58c116 25 165 33 168 25s8-8 16 2c12 17 228 62 251 53 8-3 15-18 15-33s9-62 20-103 20-85 20-97c0-13 5-23 11-23 7 0 9 9 5 23-18 70-49 237-44 242 3 3 45 12 94 20s127 22 174 30 146 24 220 35 163 25 197 31c86 15 90 12 98-68 4-37 13-106 21-153 13-79 13-86-3-99-13-9-14-12-3-9 10 3 19-6 28-26l12-31-5 35c-3 19-16 114-29 210s-36 256-50 355-27 194-29 210c-4 28-4 28-5-5-1-19 9-114 23-210 13-96 21-178 17-181-13-12-112-20-112-9 0 5-5 10-11 10-5 0-7-4-4-10 3-5 4-10 1-10-21 0-517-86-581-100-22-5-45-10-51-10s-19 39-28 88c-9 48-24 125-33 170-13 67-14 85-4 91s9 10-3 14c-10 4-16 19-16 40 0 18-5 59-11 91s-8 61-5 64c7 6 238 42 431 67 66 9 125 18 132 20s15 0 18-4c2-5 24-2 47 6 40 14 63 25 42 21-5-1-27-3-49-5zm-626-180c6-43 13-98 15-123 4-44 37-220 57-309 12-53 16-49-73-67-40-8-98-19-130-25-31-6-61-9-66-5-6 3-12 1-14-5-2-5-46-19-98-29s-164-35-249-54c-85-20-158-36-161-36-7 0-31 86-64 230-11 48-12 68-4 78 10 11 6 12-24 7l-35-7-6 44c-3 23-9 61-13 82-7 36-6 39 14 34 21-6 41 17 21 24-6 2-11 25-12 52-2 59-24 51 263 100 183 31 441 70 556 85 7 0 16-30 23-76z"/>
  <path d="m5266 841 7-139-64-6c-35-4-140-11-234-17-93-5-201-14-240-19-147-19-147-16 13 65 62 32 111 60 109 62-8 8-237-110-248-128-4-6-35-13-70-15s-104-8-154-14c-49-5-130-12-180-15-49-4-137-13-194-21-129-17-178-18-184-1-3 6-6-1-6-17-1-23 2-27 17-21 21 9 106 19 327 40 289 27 360 32 366 26 3-3 13-91 23-196 20-226 25-265 35-265 4 0 1 51-5 112-30 286-35 350-32 353 4 5 149 19 412 40 115 9 184 11 191 5 7-5 15-6 21-1 17 17 94 24 98 9 5-15 13-150 23-365 3-85 10-153 16-153 5 0 6 27 3 68-4 37-11 155-16 262-10 211-10 208 45 212 63 3 60 3 170 53 40 18 92 52 120 79 49 47 49 47 5 11-64-52-194-112-273-126-37-6-70-9-72-7-6 6-14 98-17 190-2 43-7 78-11 78-5 0-5-63-1-139z"/>
  <path d="m1270 530c-48-48-34-137 27-165 35-17 38-17 79 4 63 30 73 104 22 158-28 30-99 32-128 3z"/>
 </g>
</g></svg>